<svg width="79" height="92" viewBox="0 0 79 92" fill="none" xmlns="http://www.w3.org/2000/svg">
<g id="Layer_1" clip-path="url(#clip0_509_209)">
<g id="lFIe5s">
<g id="Group">
<path id="Vector" d="M39.8915 0H39.2892C38.8677 0.284399 38.7051 0.671665 38.7111 1.34938C38.7352 2.97711 38.7352 4.6351 38.7292 6.23257C38.7292 7.10997 38.7292 7.98737 38.7292 8.87082C38.7292 10.0871 39.3133 10.075 39.6024 10.0689C39.8674 10.0689 40.4455 10.0447 40.4455 8.87687C40.4455 7.99947 40.4455 7.12207 40.4455 6.23862C40.4455 4.6351 40.4395 2.98316 40.4636 1.35543C40.4756 0.69587 40.307 0.29045 39.8915 0.00605104V0Z" fill="white"/>
<path id="Vector_2" d="M67.0336 53.1281C67.8888 53.0071 68.497 52.6561 68.7981 52.1115C69.0992 51.5669 69.0752 50.8287 68.7259 50.036L68.5151 49.558C67.0998 46.3449 65.6846 43.1318 64.2573 39.9187C64.0044 39.3438 63.9081 38.8597 63.9562 38.3515C64.155 36.0702 64.0285 33.8132 63.5768 31.6348C61.9087 23.5204 57.2595 18.2257 49.7738 15.9021C47.3529 15.1518 44.8837 14.7766 42.3484 14.7766C38.8856 14.7766 35.2963 15.4785 31.5083 16.8884C20.6863 20.9124 14.8447 30.951 16.6333 42.4601C17.4885 47.9726 19.5842 53.1341 22.8543 57.7995C25.4439 61.4906 26.8471 65.7022 27.0217 70.3009C27.0699 71.6261 27.0699 72.9695 27.0699 74.2644C27.0699 74.7666 27.0699 75.2688 27.0699 75.765C27.0699 76.5275 27.2987 76.7574 27.63 76.8724C28.443 77.1447 28.3346 77.8042 28.2984 78.0523L28.2864 78.137C28.1599 79.0447 28.2984 79.7708 28.714 80.3638C29.2018 81.0597 29.0151 81.5861 28.7441 82.0521C28.196 82.9718 28.0876 84.0489 28.443 85.005C28.7923 85.961 29.5691 86.6993 30.5748 87.0381C31.2794 87.2741 31.5625 87.6977 31.7612 88.2604C32.5742 90.5296 34.5917 91.9516 37.0187 91.9818C37.8437 91.9939 38.6688 91.9879 39.4938 91.9818H40.632H41.5896C42.3845 91.9818 43.1794 91.9818 43.9744 91.9818C46.7085 91.9697 48.5814 90.6566 49.551 88.0729C49.6955 87.6856 49.9123 87.2923 50.4965 87.0865C51.6407 86.6811 52.4658 85.9489 52.815 85.011C53.1643 84.0852 53.0318 82.996 52.4537 81.9492C52.2249 81.5377 52.0623 81.0779 52.4537 80.4969C52.9355 79.7829 53.1041 78.9842 52.9536 78.1189C52.9054 77.8708 52.8452 77.5561 53.0499 77.2717C53.1402 77.1447 53.3209 76.9873 53.6461 76.945C54.3628 76.8542 54.5495 76.5396 54.5434 75.408C54.5314 73.9921 54.5374 72.5701 54.5374 71.1541C54.5374 69.5748 54.5374 67.9955 54.5254 66.4162C54.5254 66.035 54.5615 65.4783 54.959 65.091C55.248 64.8066 55.6696 64.6735 56.2357 64.6916C57.5425 64.7279 58.8433 64.7279 60.0899 64.6916C62.7036 64.6069 64.6247 62.6403 64.6608 60.0202C64.6729 59.0642 64.6729 58.1081 64.6669 57.152V55.845C64.6669 53.6424 64.8656 53.4125 67.0396 53.1099L67.0336 53.1281ZM47.5155 87.9579C47.2625 89.1318 46.1183 90.0697 44.8657 90.1423C43.4143 90.227 41.981 90.2694 40.5718 90.2694C39.1626 90.2694 37.7112 90.227 36.3321 90.1363C35.1879 90.0636 34.2665 89.3799 33.586 88.0971L33.1704 87.3165H47.66L47.5215 87.9579H47.5155ZM49.7256 85.4709C49.4727 85.5012 49.2318 85.4951 48.9909 85.5012H48.8524H42.2761H32.2731C32.0322 85.5012 31.7974 85.5012 31.5565 85.483C30.5508 85.3922 29.9425 84.7327 29.9726 83.7585C30.0027 82.8326 30.611 82.2154 31.5625 82.1549C31.7733 82.1428 32.0021 82.1549 32.2069 82.1428H49.1294C49.3221 82.1428 49.5209 82.1428 49.7136 82.161C50.6651 82.2638 51.2372 82.8811 51.2372 83.8129C51.2372 84.7387 50.6711 85.362 49.7256 85.477V85.4709ZM49.3824 80.3578C47.2384 80.3699 45.1005 80.3638 42.9566 80.3638H37.9581C35.9226 80.3638 33.8931 80.3638 31.8576 80.3638H31.8516C30.34 80.3638 30.0148 79.3654 29.9606 78.7724C29.9184 78.3367 30.0389 77.9434 30.3099 77.6287C30.6471 77.2415 31.1891 77.0176 31.8395 76.9873C32.0202 76.9813 32.1948 76.9813 32.3755 76.9873H32.5803H48.6717C48.9186 76.9873 49.1595 76.9873 49.4064 76.9934C50.5386 77.0479 51.2432 77.6953 51.2372 78.6877C51.2312 79.6982 50.5025 80.3517 49.3763 80.3578H49.3824ZM64.0827 51.7364C63.0168 51.8937 62.9084 52.0268 62.9023 53.1281C62.9023 54.2112 62.9023 55.2944 62.9023 56.3836C62.9023 57.4183 62.9023 58.453 62.9023 59.4877C62.8963 61.89 61.8725 62.9187 59.4817 62.9247C59.0481 62.9247 58.6145 62.9247 58.1809 62.9247C57.4703 62.9247 56.7596 62.9247 56.049 62.9308C54.0436 62.961 52.8271 64.1712 52.803 66.162C52.7729 68.5219 52.7729 71.0452 52.803 73.8711C52.803 74.222 52.7729 74.6214 52.4838 74.9118C52.1948 75.2023 51.7973 75.2386 51.4721 75.2386C43.5468 75.2144 36.567 75.2144 30.1412 75.2386H30.1292C29.8281 75.2386 29.4065 75.2023 29.1114 74.8997C28.8103 74.5911 28.7983 74.1797 28.8103 73.7863C28.9488 69.1815 28.4008 65.448 27.0699 62.0534C26.3231 60.1352 25.2813 58.2231 23.8841 56.2081C20.8971 51.8876 19.0181 47.0529 18.2894 41.8369C16.814 31.2657 22.3183 22.0923 32.3213 18.4556C38.0906 16.362 43.33 15.9808 48.3405 17.3059C55.79 19.2665 60.3429 24.3009 61.8786 32.2641C62.3302 34.5938 62.4085 36.8448 62.1074 38.9445C62.0592 39.2954 62.1797 39.6101 62.3784 40.0458C63.7997 43.2528 65.2149 46.4538 66.6301 49.6609C66.7204 49.8605 66.8048 50.0663 66.8951 50.2841L67.3167 51.2886L65.781 51.4943C65.1968 51.573 64.6307 51.6456 64.0707 51.7303L64.0827 51.7364Z" fill="white"/>
<path id="Vector_3" d="M70.141 38.9142C69.7195 38.9142 69.0088 39.0291 68.9848 39.7795C68.9787 40.0154 69.045 40.2091 69.1895 40.3604C69.3882 40.5721 69.7375 40.6871 70.1591 40.6932C71.0323 40.7053 71.9116 40.7053 72.7848 40.6992H73.9411H75.1576C76.073 40.6992 76.9883 40.7053 77.8977 40.6932C78.6324 40.6811 78.9998 40.3846 78.9998 39.8037C78.9998 39.2228 78.6264 38.9202 77.8917 38.9202C75.4527 38.9081 72.9173 38.9081 70.141 38.9202V38.9142Z" fill="white"/>
<path id="Vector_4" d="M0 39.6404C0 39.8583 0 40.5239 1.18036 40.536C2.05961 40.542 2.93886 40.542 3.81209 40.536H4.96234H6.11259C6.99184 40.536 7.86507 40.536 8.74432 40.536C9.22008 40.536 9.59948 40.4089 9.81026 40.185C9.94877 40.0398 10.021 39.8462 10.009 39.6162C9.99093 38.9022 9.31644 38.7509 8.75637 38.7509C7.48567 38.7509 6.21497 38.7449 4.94428 38.7449C3.67358 38.7449 2.43902 38.7449 1.18639 38.7509C0 38.757 0 39.4226 0 39.6404Z" fill="white"/>
<path id="Vector_5" d="M8.41303 20.5675L6.7268 19.5873C6.46784 19.436 6.25706 19.3634 6.02219 19.3452C5.46815 19.4178 5.31157 19.7264 5.2393 19.9927C5.14294 20.3315 5.14294 20.6946 5.75721 21.0516L6.4016 21.4268C8.44916 22.6188 10.4967 23.8169 12.5443 25.0029C12.9117 25.2147 13.2609 25.2934 13.532 25.2147C13.7247 25.1603 13.8873 25.0211 14.0017 24.8093C14.3389 24.1981 13.8812 23.7564 13.4356 23.4962C11.7674 22.516 10.0932 21.5417 8.41303 20.5736V20.5675Z" fill="white"/>
<path id="Vector_6" d="M73.0323 19.5266C72.8457 19.5266 72.6409 19.5811 72.4482 19.69C70.4066 20.8518 68.2627 22.0983 65.4985 23.7321C64.9746 24.0407 64.824 24.4824 65.083 24.9483C65.2094 25.1722 65.3841 25.3175 65.5888 25.378C65.8117 25.4385 66.0586 25.3961 66.3115 25.2569C68.1061 24.2404 69.8827 23.1996 71.6653 22.1588L73.3515 21.1785C73.6647 20.997 73.8454 20.7429 73.8694 20.4645C73.8694 20.0954 73.7309 19.805 73.466 19.6476C73.3395 19.569 73.1889 19.5327 73.0323 19.5327V19.5266Z" fill="white"/>
<path id="Vector_7" d="M13.195 54.0479C13.0084 54.0479 12.8156 54.1023 12.6169 54.2173C10.1357 55.6211 7.70877 57.0431 5.66722 58.2533C5.35406 58.4349 4.88433 58.8403 5.22759 59.4575C5.35406 59.6814 5.52268 59.8266 5.72744 59.8871C5.96833 59.9537 6.24536 59.9053 6.53442 59.7358C8.35917 58.6951 10.1719 57.6361 11.9906 56.5772L13.4962 55.6998C13.8334 55.5062 14.0321 55.246 14.0261 55.01C14.0141 54.6045 13.8575 54.302 13.5925 54.1447C13.4781 54.0781 13.3396 54.0479 13.2011 54.0479H13.195Z" fill="white"/>
<path id="Vector_8" d="M58.1211 5.76062C57.8139 6.25076 57.5188 6.7772 57.2298 7.27943C57.1093 7.49727 56.9829 7.71511 56.8564 7.93295C56.5854 8.40493 56.3084 8.87691 56.0374 9.34889C55.387 10.4744 54.7125 11.6301 54.0741 12.7859C53.8754 13.1489 53.8573 13.512 54.0259 13.7904C54.1885 14.0566 54.5077 14.2018 54.8992 14.1958C55.14 14.1837 55.3809 13.9961 55.5616 13.6814L56.6396 11.8117C57.6333 10.0871 58.6329 8.36257 59.6146 6.62592C59.9036 6.11158 59.8073 5.65171 59.3436 5.37941C59.175 5.27654 59.0244 5.24023 58.8859 5.24023C58.5125 5.24023 58.2596 5.53674 58.1211 5.75457V5.76062Z" fill="white"/>
<path id="Vector_9" d="M21.0174 5.65772C20.8307 5.33701 20.5838 5.19179 20.2104 5.17969C19.9033 5.18574 19.6443 5.33096 19.5058 5.57906C19.3432 5.86345 19.3613 6.22652 19.554 6.57143C20.9813 9.11891 22.4447 11.6482 23.5648 13.5604C23.7334 13.8448 23.9563 14.0384 24.2032 14.0989C24.414 14.1534 24.6308 14.1171 24.8355 13.99C25.2812 13.7238 25.3775 13.2336 25.0885 12.7193C24.1128 10.9947 23.1192 9.27624 22.1255 7.55775L21.0234 5.65167L21.0174 5.65772Z" fill="white"/>
<path id="Vector_10" d="M57.3617 42.1818C57.8736 39.8461 57.9098 37.5527 57.4581 35.3744C57.3798 34.9992 57.2473 34.745 57.0606 34.6301C56.8679 34.5091 56.5788 34.503 56.1934 34.6059C54.2723 35.1202 53.64 33.9947 53.4593 33.4864C53.2004 32.7543 53.2064 31.7135 54.724 30.9087C55.0913 30.7151 55.3142 30.4972 55.3744 30.2673C55.4346 30.0434 55.3563 29.7529 55.1455 29.408C53.9471 27.4717 52.3873 25.844 50.5144 24.5551C50.1591 24.3131 49.864 24.2162 49.6352 24.2767C49.4003 24.3312 49.1775 24.5551 48.9667 24.9424C48.7379 25.3659 48.3404 25.9529 47.5816 26.1344C46.8228 26.3159 46.1423 26.1163 45.6605 25.5838C45.1125 24.9726 44.992 24.2525 45.2991 23.3691C45.4497 22.9395 45.4678 22.6127 45.3594 22.413C45.2449 22.2012 44.9559 22.0379 44.4922 21.9229C43.354 21.6385 42.1495 21.5598 40.921 21.5054C39.9333 21.5477 38.9095 21.5961 37.9038 21.7958C37.4762 21.8805 37.1992 22.0197 37.0788 22.2194C36.9523 22.4191 36.9463 22.7398 37.0607 23.1755C37.4883 24.8395 36.6933 25.5475 35.9466 25.8379C34.9228 26.2433 33.9713 25.8016 33.345 24.6156C33.1402 24.2283 32.9174 24.0045 32.6765 23.9379C32.4416 23.8713 32.1405 23.956 31.7792 24.186C29.9063 25.372 28.3043 26.9211 27.0156 28.7908C26.7566 29.166 26.6542 29.4746 26.7024 29.6985C26.7566 29.9345 26.9975 30.1705 27.4191 30.4125C28.497 31.0237 28.9066 32.0281 28.479 33.0205C28.0574 34.0129 27.0577 34.4183 25.8713 34.0734C25.3594 33.9221 24.9921 33.91 24.7873 34.0371C24.5946 34.152 24.4441 34.4485 24.3417 34.9145C23.8479 37.1715 23.8177 39.3983 24.2514 41.5464C24.3296 41.9337 24.4682 42.1939 24.6669 42.3149C24.8716 42.442 25.1848 42.4541 25.5943 42.3452C26.9192 41.9942 27.8165 42.3451 28.2562 43.392C28.5693 44.1363 28.6054 45.2073 27.0156 46.0786C26.7747 46.2118 26.4736 46.4296 26.3953 46.7261C26.3351 46.95 26.4013 47.2162 26.594 47.5248C27.8346 49.5338 29.4365 51.2039 31.3576 52.4927C31.6648 52.6985 31.9297 52.7771 32.1526 52.7227C32.4416 52.6561 32.6644 52.3536 32.7969 52.1176C33.3871 51.0828 34.0616 50.7742 34.6518 50.7742C34.9228 50.7742 35.1697 50.8348 35.3925 50.9255C37.0185 51.573 36.5729 53.1584 36.4284 53.6848C36.3139 54.0963 36.32 54.4109 36.4404 54.6227C36.5608 54.8224 36.8138 54.9676 37.2052 55.0584C39.5057 55.5848 41.752 55.6211 43.8839 55.1794C44.2934 55.0947 44.5644 54.9495 44.6849 54.7498C44.8053 54.5501 44.8174 54.2536 44.715 53.8542C44.2392 52.0147 45.2148 51.3551 45.8351 51.1252C46.5578 50.859 47.5876 50.859 48.4127 52.3899C48.6114 52.7529 48.8282 52.9647 49.0691 53.0313C49.304 53.0918 49.587 53.0192 49.9182 52.8074C51.8875 51.5609 53.5256 49.9695 54.7902 48.0755C54.995 47.7729 55.0733 47.5067 55.0251 47.2888C54.9709 47.0589 54.7661 46.835 54.4168 46.6293C53.2184 45.9213 52.8149 45.0439 53.2305 44.0152C53.4834 43.392 54.1699 42.4238 55.9826 42.9684C56.2597 43.0531 56.6451 43.1136 56.9101 42.9563C57.1148 42.8353 57.2594 42.5872 57.3437 42.212L57.3617 42.1818ZM55.8441 40.3907C55.549 41.0442 54.8926 41.0563 54.5012 41.0623C54.3626 41.0623 54.2181 41.0623 54.1278 41.0926C52.9053 41.4254 51.9718 42.2967 51.5683 43.4827C51.1588 44.6687 51.3636 45.9334 52.1284 46.9621C52.3331 47.2344 52.9474 48.0634 51.9598 48.8742C51.8995 48.9226 51.8514 48.9771 51.8032 49.0376C51.7369 49.1102 51.6707 49.1768 51.6045 49.2433C51.484 49.3523 51.3756 49.4672 51.2612 49.5822C50.942 49.9089 50.6168 50.2478 50.1712 50.4475C49.4545 50.7682 48.9547 50.2539 48.6837 49.9816C48.5813 49.8787 48.4729 49.7698 48.3946 49.7274C47.3407 49.1647 46.1122 49.1102 45.0342 49.5701C44.0104 50.0118 43.2516 50.8771 42.9505 51.9481C42.4988 53.5517 42.288 53.7151 40.656 53.6666H40.5175C40.4271 53.6666 40.3428 53.6666 40.2585 53.6666C40.1561 53.6727 40.0598 53.6787 39.9574 53.6787C39.2046 53.6787 38.5301 53.4185 38.3254 52.1176C38.1146 50.7924 37.3136 49.7577 36.1272 49.2675C34.9108 48.7714 33.5196 48.971 32.4115 49.8C32.1345 50.0058 31.4058 50.5564 30.659 49.6851C30.5868 49.6064 30.5085 49.5338 30.4302 49.4612C30.3338 49.3765 30.2375 49.2857 30.1532 49.1949C30.0568 49.086 29.9484 48.9831 29.846 48.8803C29.5329 48.5717 29.2077 48.251 29.015 47.8274C28.6717 47.0831 29.1956 46.5748 29.4726 46.2965C29.575 46.1997 29.6774 46.0968 29.7196 46.0181C30.3278 44.9047 30.37 43.6219 29.834 42.5085C29.3161 41.4314 28.3344 40.6993 27.142 40.4935C26.4675 40.3786 25.6003 40.076 25.781 38.7569C25.7931 38.6722 25.781 38.5814 25.781 38.4906C25.781 38.418 25.781 38.3515 25.781 38.2789C25.7931 36.4998 25.9496 36.3002 27.6238 35.8645C28.8584 35.5498 29.8039 34.6845 30.2254 33.5046C30.641 32.3307 30.4543 31.0721 29.7075 30.0494C29.3462 29.5533 28.9668 28.809 29.8701 28.0647C29.9544 27.9981 30.0267 27.9134 30.099 27.8348C30.1833 27.744 30.2736 27.6472 30.3639 27.5625C30.4663 27.4717 30.5627 27.3749 30.659 27.272C30.9481 26.9816 31.2673 26.6609 31.6888 26.4854C32.3513 26.2191 32.815 26.6972 33.0619 26.9513C33.1523 27.0421 33.2486 27.1389 33.3149 27.1812C34.447 27.8287 35.7418 27.8953 36.8559 27.3567C37.952 26.8303 38.6988 25.8077 38.9035 24.543C39.0601 23.5809 39.5539 23.1876 40.4934 23.2723C40.5355 23.2723 40.5837 23.2723 40.6259 23.2723C40.6921 23.2723 40.7584 23.2723 40.8246 23.2723C40.9872 23.2783 41.1498 23.2723 41.3184 23.2723C41.7701 23.2602 42.2398 23.242 42.6915 23.4175C43.4503 23.7079 43.4624 24.428 43.4684 24.8576C43.4684 25.015 43.4684 25.1723 43.5045 25.2752C43.8658 26.4551 44.7331 27.3507 45.8833 27.7379C47.0336 28.1252 48.2741 27.9255 49.2799 27.1873C50.0326 26.6427 50.659 26.6972 51.2491 27.3749C51.3515 27.4959 51.472 27.6048 51.5864 27.7198C51.6827 27.8166 51.7791 27.9074 51.8755 28.0102C52.9775 29.1781 53.0016 29.4383 52.1585 30.7937C51.478 31.8829 51.3877 33.1718 51.8995 34.3154C52.4175 35.4651 53.4473 36.2518 54.724 36.4696C55.6695 36.6269 56.073 37.1171 56.0188 38.0429C56.0188 38.1336 56.0188 38.2183 56.0188 38.3091C56.0188 38.4301 56.0308 38.5511 56.0188 38.6782C56.0127 38.8174 56.0188 38.9566 56.0188 39.0957C56.0248 39.5072 56.0308 39.9731 55.8441 40.3907Z" fill="white"/>
<path id="Vector_11" d="M40.9397 30.1462H40.9156C36.3387 30.1462 32.6048 33.8676 32.5928 38.4543C32.5808 43.0592 36.2905 46.829 40.8674 46.8713C43.0535 46.9016 45.1492 46.0242 46.7391 44.4388C48.335 42.8534 49.2203 40.7537 49.2383 38.533C49.2564 36.3244 48.4012 34.2307 46.8354 32.6393C45.2576 31.0418 43.1679 30.1583 40.9397 30.1462ZM40.9517 45.0742H40.9216C39.1571 45.0742 37.4949 44.3783 36.2363 43.1136C34.9836 41.855 34.3031 40.2031 34.3091 38.4483C34.3272 34.8176 37.2781 31.8647 40.8915 31.8526H40.9035C44.5048 31.8526 47.4437 34.8055 47.4557 38.4422C47.4678 42.0789 44.547 45.056 40.9517 45.0681V45.0742Z" fill="white"/>
</g>
</g>
</g>
<defs>
<clipPath id="clip0_509_209">
<rect width="79" height="92" fill="white"/>
</clipPath>
</defs>
</svg>
