<svg width="133" height="133" viewBox="0 0 133 133" fill="none" xmlns="http://www.w3.org/2000/svg">
<circle cx="66.5" cy="66.5" r="66.5" fill="white"/>
<g clip-path="url(#clip0_6_18)">
<path d="M43.819 38.493C43.8219 40.5227 44.4285 42.1151 45.6259 43.463C45.9199 43.7932 45.9285 44.0148 45.7177 44.3779C42.8797 49.2679 40.0532 54.1651 37.2352 59.0666C37.0545 59.3811 36.8193 59.5397 36.4838 59.6512C33.4923 60.6461 31.5076 63.2791 31.3972 66.3695C31.2882 69.4299 33.118 72.2158 36.0493 73.3922C36.4594 73.5566 36.7089 73.7996 36.9212 74.1627C39.7649 79.0227 42.6115 83.8813 45.4782 88.7271C45.722 89.1402 45.7077 89.3846 45.4123 89.7748C43.5422 92.242 43.2282 94.9265 44.6924 97.6538C46.1608 100.39 48.5729 101.755 51.6934 101.545C54.3536 101.365 56.3441 99.9694 57.6161 97.6309C57.87 97.1635 58.1367 97.0191 58.6544 97.0206C64.187 97.0406 69.7196 97.0391 75.2522 97.0206C75.7226 97.0191 75.9564 97.1606 76.1758 97.5795C77.6084 100.32 80.65 101.951 83.4967 101.548C86.7462 101.087 89.3103 98.743 89.8868 95.5811C90.297 93.3312 89.7363 91.2857 88.2248 89.5447C87.9308 89.2059 87.872 88.9829 88.1115 88.5755C90.9093 83.7998 93.6857 79.0127 96.4606 74.2242C96.647 73.9025 96.8621 73.7024 97.245 73.5809C100.374 72.5875 102.452 69.7572 102.435 66.5739C102.418 63.3877 100.384 60.6447 97.2608 59.6326C96.8521 59.5011 96.581 59.311 96.3602 58.9251C93.6082 54.1237 90.8405 49.3308 88.057 44.548C87.8161 44.1334 87.8089 43.889 88.1502 43.5117C90.178 41.2703 90.5781 38.0799 89.2128 35.4197C87.8533 32.7767 84.9694 31.1686 82.0339 31.4173C79.1099 31.6646 76.431 33.823 75.6724 36.6833C75.4673 37.4581 75.1375 37.5953 74.4233 37.591C69.3439 37.5624 64.2644 37.5681 59.185 37.5867C58.6314 37.5896 58.3747 37.4752 58.217 36.8849C57.3049 33.47 54.2633 31.2758 50.714 31.4088C47.5017 31.5288 44.6163 34.0575 43.938 37.3651C43.8477 37.8054 43.8405 38.2614 43.8176 38.4915L43.819 38.493ZM94.004 59.3167C93.7789 59.3896 93.624 59.4483 93.4648 59.4897C90.0561 60.3717 87.7816 63.2319 87.7945 66.6254C87.8075 69.9816 90.0919 72.8734 93.4433 73.7067C93.9668 73.8368 94.0557 73.934 93.7746 74.4128C91.2635 78.6982 88.7668 82.9908 86.2902 87.2934C86.0522 87.7065 85.8643 87.7107 85.4714 87.5306C84.5277 87.1018 83.5139 86.9031 82.4799 86.9589C78.4143 87.1819 75.4932 90.1793 75.3684 94.2546C75.354 94.7106 75.2049 94.805 74.7905 94.8035C69.5432 94.7935 64.296 94.7907 59.0488 94.8064C58.5726 94.8064 58.4651 94.6563 58.4551 94.1989C58.3418 88.8743 52.9511 85.4523 48.1097 87.6436C47.6307 87.8608 47.4773 87.7379 47.2493 87.3491C44.7468 83.0608 42.2358 78.7769 39.7032 74.5058C39.405 74.004 39.4781 73.8811 40.0331 73.7639C43.0045 73.1378 44.9878 71.3496 45.7751 68.445C46.5538 65.5776 45.6905 63.0976 43.4963 61.0992C42.4337 60.1315 41.1402 59.6069 39.742 59.3368C39.7549 59.2524 39.7491 59.1995 39.7721 59.1609C42.3806 54.6325 44.9978 50.1084 47.5935 45.5729C47.8057 45.2027 47.9921 45.3027 48.2718 45.4171C52.498 47.1309 57.0798 44.8853 58.2299 40.4984C58.3891 39.8895 58.6544 39.8037 59.195 39.8052C64.1081 39.8223 69.0227 39.8152 73.9358 39.8152C74.8526 39.8152 75.4583 40.2316 75.7527 41.0645C77.1466 45.0154 81.347 46.9708 85.3093 45.5186C85.5961 45.4128 85.8543 45.1741 86.1267 45.6486C88.7209 50.1856 91.3424 54.7054 94.0055 59.3153L94.004 59.3167ZM51.1442 99.3262C48.365 99.3262 46.0232 96.9963 46.0404 94.2503C46.0576 91.5373 48.3865 89.2073 51.1083 89.1816C53.8704 89.1559 56.2064 91.473 56.2165 94.2503C56.2265 97.0449 53.9464 99.3276 51.1442 99.3262ZM77.607 94.2832C77.6012 91.5016 79.9086 89.1802 82.6807 89.1816C85.4226 89.1816 87.796 91.5573 87.7816 94.2875C87.7673 97.0163 85.4542 99.3148 82.7122 99.3262C79.9 99.3376 77.6127 97.0777 77.607 94.2832ZM77.607 38.6859C77.6184 35.8914 79.9072 33.6401 82.7237 33.6558C85.4642 33.6701 87.7773 35.98 87.7816 38.7045C87.7859 41.439 85.4083 43.809 82.6692 43.8004C79.8972 43.7918 77.5955 41.4676 77.607 38.6859ZM51.1628 33.6558C53.9335 33.6601 56.2007 35.9143 56.215 38.6788C56.2294 41.4604 53.932 43.7875 51.16 43.8004C48.4224 43.8133 46.0389 41.4447 46.0404 38.7117C46.0404 35.9557 48.375 33.6515 51.1628 33.6558ZM95.0839 71.6569C92.3176 71.6469 90.0518 69.387 90.036 66.6239C90.0202 63.858 92.342 61.5195 95.1068 61.5138C97.8588 61.508 100.209 63.858 100.205 66.6111C100.201 69.3756 97.8746 71.6669 95.0839 71.6569ZM38.7137 71.6569C35.9245 71.6569 33.6042 69.3498 33.6171 66.5882C33.63 63.8309 35.9933 61.4895 38.7396 61.5138C41.4829 61.5395 43.7674 63.8294 43.7875 66.5768C43.8075 69.357 41.5116 71.6555 38.7137 71.6569Z" fill="#FF5F00"/>
<path d="M66.8213 86.0067C72.037 85.9553 77.247 85.3192 82.3608 83.9684C83.2571 83.7311 84.1477 83.4738 85.0382 83.2165C86.1109 82.9063 86.3332 82.6076 86.2056 81.4612C85.9933 79.55 85.7768 77.6403 85.4986 75.7378C85.0683 72.7803 84.5922 69.8286 83.5325 67.0112C83.3661 66.568 83.1582 66.1392 82.9459 65.7161C82.5057 64.8356 81.8603 64.3367 80.8135 64.1666C77.9511 63.6992 75.1102 63.1003 72.2607 62.5514C71.7818 62.4585 71.3472 62.4499 70.9113 62.7729C68.3228 64.6926 65.6597 64.6298 62.9938 62.953C62.3585 62.5542 61.7734 62.4642 61.0449 62.6171C58.2757 63.196 55.4937 63.7206 52.7159 64.2567C51.9888 64.3968 51.5629 64.9013 51.2073 65.4731C50.5132 66.5923 50.0944 67.8288 49.7316 69.0853C48.679 72.7188 48.0953 76.4425 47.592 80.1818C47.5289 80.6521 47.473 81.1238 47.3998 81.5927C47.2621 82.4689 47.4945 82.8935 48.332 83.1608C51.0538 84.0298 53.8302 84.6859 56.6481 85.1548C59.9923 85.7123 63.3667 85.9381 66.8213 86.0053V86.0067ZM69.5977 66.2521C70.2875 65.9034 70.9098 65.6532 71.4577 65.2916C71.8793 65.0128 72.2722 64.9871 72.7325 65.0757C75.1604 65.5446 77.584 66.0463 80.0247 66.4365C80.8178 66.5638 81.1691 66.9283 81.4086 67.6187C82.0324 69.4197 82.3895 71.2794 82.7337 73.1434C83.1983 75.6634 83.5439 78.2021 83.825 80.7493C83.8752 81.2082 83.7246 81.3783 83.3073 81.4769C82.4526 81.6784 81.6037 81.9086 80.759 82.1487C80.3718 82.2588 80.214 82.1787 80.1696 81.7499C80.0176 80.3105 79.8125 78.8768 79.6533 77.4388C79.5343 76.3682 79.051 75.7206 78.3627 75.7835C77.6428 75.8478 77.2627 76.6283 77.4018 77.7118C77.584 79.1241 77.7288 80.5406 77.9382 81.9486C78.0328 82.5804 77.8149 82.8063 77.2025 82.9035C74.7789 83.2908 72.3439 83.5667 69.896 83.7168C69.7081 83.7282 69.483 83.8526 69.298 83.6196C69.7655 83.0107 70.2186 82.4032 70.6919 81.8085C71.0475 81.3625 71.1163 80.9094 70.9471 80.3491C70.0623 77.4231 69.2177 74.4856 68.34 71.5567C68.2181 71.1493 68.254 70.8735 68.5895 70.569C69.2937 69.9286 69.9605 69.2482 70.6159 68.5578C71.2712 67.866 71.1723 67.2384 70.3764 66.7524C70.134 66.6052 69.8988 66.4451 69.5977 66.2493V66.2521ZM64.6329 83.7583C61.6802 83.611 58.8996 83.3251 56.1419 82.8191C55.7532 82.7477 55.8135 82.5204 55.8378 82.2459C55.9856 80.5664 56.1203 78.8868 56.2566 77.2058C56.3183 76.4453 55.8522 75.8307 55.181 75.7749C54.5644 75.7235 54.0998 76.1723 54.0252 76.9542C53.8732 78.538 53.724 80.1218 53.6208 81.7099C53.5921 82.163 53.4774 82.3017 53.0357 82.183C52.072 81.9243 51.104 81.6784 50.1346 81.444C49.7789 81.3583 49.7187 81.1767 49.7718 80.8308C50.179 78.2064 50.592 75.5834 51.1614 72.9876C51.5772 71.0907 51.9745 69.1867 52.7116 67.3757C52.8894 66.9383 53.1074 66.5995 53.6337 66.5009C56.1117 66.0377 58.5826 65.5417 61.0607 65.0757C61.326 65.0257 61.6099 64.8956 61.8925 65.0729C62.5894 65.5088 63.3466 65.8276 64.1167 66.1407C63.9661 66.4423 63.6936 66.5109 63.4828 66.651C62.5091 67.2971 62.4317 67.8988 63.2448 68.7236C63.8801 69.3683 64.5039 70.0244 65.1736 70.6319C65.5249 70.9492 65.5823 71.238 65.4489 71.6811C64.5856 74.5399 63.7653 77.4116 62.8934 80.2676C62.6984 80.908 62.793 81.4154 63.2046 81.9172C63.6664 82.4803 64.098 83.0664 64.6315 83.7583H64.6329ZM66.8299 75.1374C66.8844 75.1389 66.9404 75.1417 66.9949 75.1431C67.3476 76.3153 67.58 77.5417 68.0819 78.6466C68.796 80.2233 68.5078 81.4769 67.2774 82.6004C67.2429 82.6319 67.2128 82.6705 67.1884 82.7105C66.9877 83.0393 66.8199 82.9749 66.6177 82.6948C66.2147 82.1387 65.7888 81.5984 65.3701 81.0538C65.251 80.8994 65.1463 80.7465 65.2094 80.5378C65.7501 78.7381 66.2907 76.9371 66.8314 75.1374H66.8299ZM65.7687 68.0446C65.9093 67.7173 66.1803 67.6458 66.3897 67.5057C66.8701 67.1856 67.5326 67.2828 67.8954 67.8174C68.1851 68.2433 67.5599 68.3105 67.4451 68.5978C67.4365 68.6178 67.415 68.6364 67.395 68.6479C67.1913 68.7636 67.0895 69.1853 66.7941 68.9823C66.4098 68.7193 66.0971 68.352 65.7687 68.0446Z" fill="#FF5F00"/>
<path d="M66.9891 60.4072C71.2727 60.4444 74.7503 57.041 74.7832 52.777C74.8177 48.3758 71.4835 44.9695 67.0881 44.9152C62.7486 44.8609 59.2409 48.3086 59.2251 52.6426C59.2093 56.9323 62.6468 60.3701 66.9891 60.4072ZM72.5375 52.6483C72.5418 55.7459 70.1182 58.1816 67.0293 58.1859C63.9575 58.1902 61.4766 55.7259 61.4723 52.6655C61.468 49.5994 63.9303 47.1408 67.0135 47.1351C70.1111 47.1294 72.5346 49.5479 72.5389 52.6483H72.5375Z" fill="#FF5F00"/>
</g>
<defs>
<clipPath id="clip0_6_18">
<rect width="71.0435" height="70.2174" fill="white" transform="matrix(-1 0 0 1 102.435 31.3914)"/>
</clipPath>
</defs>
</svg>
