<svg width="35" height="36" viewBox="0 0 35 36" fill="none" xmlns="http://www.w3.org/2000/svg">
<path d="M20.28 35.2598H25.87C30.89 35.2598 35 31.1499 35 26.1299V9.49023C35 4.47023 30.89 0.359863 25.87 0.359863H9.22998C4.20998 0.359863 0.0999756 4.47023 0.0999756 9.49023V26.1299C0.0999756 31.1499 4.20998 35.2598 9.22998 35.2598H14.8199H20.27H20.28Z" fill="white"/>
<path d="M21.2 19.4502L21.76 15.7998H18.26V13.4302C18.26 12.4302 18.7499 11.46 20.3199 11.46H21.91V8.3501C21.91 8.3501 20.47 8.1001 19.08 8.1001C16.2 8.1001 14.3101 9.84977 14.3101 13.0098V15.79H11.11V19.4399H14.3101V28H18.25V19.4399H21.1899L21.2 19.4502Z" fill="#6B6C6F"/>
</svg>
