<svg width="36" height="36" viewBox="0 0 36 36" fill="none" xmlns="http://www.w3.org/2000/svg">
<path d="M35.8899 9.48987V26.1299C35.8899 31.1699 31.8 35.2599 26.76 35.2599H10.1199C5.07987 35.2599 0.98999 31.1699 0.98999 26.1299V9.48987C0.98999 4.44987 5.07987 0.359863 10.1199 0.359863L26.76 0.359863C31.8 0.359863 35.8899 4.44987 35.8899 9.48987Z" fill="white"/>
<path d="M11.12 14.5698H14.5V25.4199H11.12V14.5698ZM12.8101 9.18018C13.8901 9.18018 14.77 10.0599 14.77 11.1299C14.77 12.1999 13.8901 13.0898 12.8101 13.0898C11.7301 13.0898 10.85 12.2099 10.85 11.1299C10.85 10.0499 11.7301 9.18018 12.8101 9.18018Z" fill="#6B6C6F"/>
<path d="M16.62 14.5698H19.86V16.0498H19.9C20.35 15.1998 21.45 14.2998 23.09 14.2998C26.51 14.2998 27.14 16.5502 27.14 19.4702V25.4199H23.77V20.1401C23.77 18.8801 23.75 17.2598 22.02 17.2598C20.29 17.2598 20 18.6298 20 20.0498V25.4199H16.63V14.5698H16.62Z" fill="#6B6C6F"/>
</svg>
