<svg width="109" height="92" viewBox="0 0 109 92" fill="none" xmlns="http://www.w3.org/2000/svg">
<g id="Layer_1" clip-path="url(#clip0_509_238)">
<g id="2WEbGc">
<g id="Group">
<path id="Vector" d="M97.6383 46.8377C97.6383 46.8377 97.672 46.8377 97.6855 46.8377C98.657 46.8377 99.217 47.1876 99.6285 48.0489C100.317 49.4753 101.518 50.4779 102.928 50.8009C104.297 51.1171 105.707 50.774 106.895 49.832C107.718 49.1793 108.406 48.2911 108.797 47.3222C109.027 46.757 109.04 45.9428 108.899 45.3574C108.521 43.7426 107.657 42.2354 106.045 41.6029C105.701 41.4683 105.336 41.3741 104.965 41.3203C102.327 40.9166 100.695 41.7644 99.5071 44.1732C99.1023 44.9941 98.5288 45.1421 97.8137 45.1556C96.5993 45.1489 95.3781 45.1421 94.1637 45.1421C92.9493 45.1421 91.7484 45.1421 90.534 45.1421C89.3196 45.1421 88.1591 45.1421 86.9717 45.1421C86.5332 45.1421 86.0946 45.1421 85.6561 45.1421C85.2445 45.1421 84.7993 45.1085 84.3945 45.1758C84.0909 45.2229 83.8817 45.492 83.7738 45.7612C83.6658 46.037 83.5849 46.4273 83.8345 46.6561C84.1651 46.9588 84.6643 46.8714 85.0691 46.8781C85.6831 46.8916 86.2903 46.8781 86.9042 46.8781C87.9635 46.8781 89.0227 46.8781 90.0819 46.8781C92.5512 46.8781 95.1082 46.8781 97.618 46.8512L97.6383 46.8377ZM104 43.0159C104.729 42.8948 105.41 43.0697 105.977 43.5138C106.679 44.0656 107.124 44.9874 107.178 45.9697C107.219 46.7301 106.902 47.5241 106.308 48.1431C105.674 48.8092 104.824 49.1927 103.98 49.1927C103.211 49.1927 102.401 48.8159 101.761 48.1565C101.12 47.4971 100.762 46.6897 100.782 45.9226C100.829 44.2674 102.206 43.0159 103.994 43.0024L104 43.0159Z" fill="white"/>
<path id="Vector_2" d="M78.7737 54.6025C79.86 54.5958 80.0286 54.4208 80.0286 53.2635C80.0286 48.4593 80.0286 43.6483 80.0286 38.8441C80.0286 37.5253 79.8937 37.3908 78.5646 37.3908C75.2317 37.3908 71.8921 37.3908 68.5592 37.3908H63.1146V31.9271C63.1146 28.5763 63.1146 25.2255 63.1146 21.8746C63.1146 20.7106 62.9324 20.5356 61.7585 20.5356C56.9414 20.5356 52.1175 20.5356 47.3003 20.5356C45.9307 20.5356 45.8632 20.6029 45.8632 21.9756C45.8632 25.1582 45.8632 28.3341 45.8632 31.5167V37.3975H40.3512H30.528C28.9964 37.3975 28.9492 37.4446 28.9492 38.9182C28.9492 43.6551 28.9492 48.392 28.9492 53.1222C28.9492 54.5621 29.0032 54.6159 30.447 54.6159H44.2643C44.5274 54.6159 44.7838 54.6361 45.0671 54.6496L45.87 54.69V60.49C45.87 63.6794 45.87 66.8687 45.87 70.0581C45.87 71.3903 45.9442 71.4711 47.2261 71.4711C52.0837 71.4711 56.9346 71.4711 61.7922 71.4711C62.9662 71.4711 63.1281 71.3029 63.1281 70.1052C63.1281 66.7543 63.1281 63.4035 63.1281 60.0527V54.6698L68.6132 54.6563C72.0068 54.6429 75.3936 54.6361 78.7872 54.6025H78.7737ZM63.0539 52.8867C61.5898 52.8867 61.3874 53.0886 61.3874 54.5352C61.3874 57.7784 61.3874 61.0148 61.3874 64.258V69.6678H47.5837V64.2176C47.5837 61.0148 47.5837 57.8053 47.5837 54.6025C47.5837 53.0684 47.4082 52.8934 45.8767 52.8934H36.4246H30.7371V39.12H36.1345C39.3931 39.12 42.6518 39.12 45.9105 39.12C47.3813 39.12 47.5837 38.9181 47.5837 37.4715C47.5837 34.2822 47.5837 31.0928 47.5837 27.9035V22.3187H61.3874V27.715C61.3874 30.9448 61.3874 34.1745 61.3874 37.4109C61.3874 38.9451 61.5629 39.12 63.1011 39.12H78.234V52.8934H63.0539V52.8867Z" fill="white"/>
<path id="Vector_3" d="M101.875 17.777C101.247 15.0654 98.8926 13.6322 96.0253 14.2108C94.6152 14.5002 93.3266 15.496 92.6519 16.8215C92.0785 17.9452 92.0245 19.1227 92.49 20.132C93.4278 22.1708 92.8948 23.1531 91.4443 24.4585C89.7846 25.959 88.1654 27.5671 86.6001 29.1281C85.6151 30.1105 84.6368 31.0861 83.6383 32.0483C83.2335 32.4319 82.5588 32.7077 81.9584 32.7212C80.4336 32.7683 78.8886 32.7616 77.3908 32.7548C76.8376 32.7548 76.2844 32.7548 75.7379 32.7548H73.7274C73.1741 32.7548 72.6277 32.7548 72.0744 32.7548C71.1164 32.7548 70.1651 32.7548 69.2071 32.7616C68.8158 32.7616 68.3772 32.9769 68.1411 33.2729C68.0399 33.4008 67.9859 33.5286 68.0062 33.6228C68.0871 33.9929 68.3233 34.4841 69.2138 34.4908C71.3728 34.4841 73.5385 34.4841 75.6974 34.4774C78.1397 34.4774 80.5888 34.4774 83.0311 34.4639C83.2942 34.4639 83.6248 34.3495 83.8137 34.1947C84.6166 33.5286 85.3722 32.8019 86.1481 32.0551C87.0184 31.214 87.8888 30.3662 88.7658 29.5184C90.547 27.7891 92.3888 25.9926 94.2239 24.2566C94.6152 23.8866 95.3169 23.6645 95.8229 23.7587C97.7457 24.1019 99.5336 23.577 100.734 22.3121C101.854 21.1346 102.273 19.4861 101.875 17.777ZM97.1385 22.0631C97.1385 22.0631 97.0778 22.0631 97.044 22.0631C96.2479 22.0631 95.5328 21.7872 94.9795 21.2624C94.3656 20.6837 93.9878 19.8292 93.9675 18.9814C93.9473 18.1134 94.3184 17.2723 94.9863 16.66C95.6407 16.0612 96.4976 15.7786 97.3342 15.8661C98.191 15.8863 99.0006 16.2361 99.5538 16.8283C100.087 17.4002 100.363 18.1471 100.323 18.9478C100.228 20.8452 99.0343 22.016 97.1385 22.0631Z" fill="white"/>
<path id="Vector_4" d="M25.0841 60.0999C25.7048 59.4741 26.2851 59.2252 27.1352 59.2319C30.4478 59.2521 33.7537 59.2521 37.0663 59.2454H39.6638C40.5746 59.2454 40.7635 58.9426 40.7838 58.4245C40.7973 58.1284 40.7365 57.9198 40.6083 57.7853C40.4397 57.6103 40.1293 57.5229 39.684 57.5229H38.0783C34.1113 57.5094 30.0093 57.5027 25.9747 57.5498C25.5564 57.5498 24.9897 57.792 24.6659 58.0948C21.8457 60.766 18.8367 63.6459 15.9423 66.5795C14.8426 67.6965 13.8441 68.5308 11.8134 68.2819C11.6514 68.2617 11.4895 68.255 11.3276 68.255C10.1469 68.255 9.01346 68.7663 8.14988 69.7083C7.03667 70.9195 6.5779 72.5882 6.91523 74.1694C7.35377 76.2149 9.85005 78.2469 11.6919 78.0518C13.9318 77.8163 15.4296 76.8339 16.1447 75.1316C16.671 73.8801 16.7654 72.5141 16.2594 71.2424C16.1043 70.8522 15.8951 70.4888 15.6522 70.1457C15.4498 69.8631 15.207 69.6343 15.5173 69.3315C15.6185 69.2373 15.713 69.1364 15.8142 69.0422C16.0098 68.8471 16.2122 68.6587 16.4079 68.4635C17.0488 67.8445 17.6762 67.2322 18.3104 66.6199C18.9581 66.0009 19.6126 65.3751 20.2602 64.7561C21.8525 63.2422 23.4987 61.6744 25.0707 60.0932L25.0841 60.0999ZM11.6649 76.336H11.6244C10.039 76.336 8.72335 74.6337 8.59516 73.0928C8.53444 72.3594 8.82455 71.6192 9.40477 71.0002C10.039 70.3206 10.9228 69.8967 11.7121 69.9169C13.527 69.9438 14.8359 71.2828 14.8291 73.0995C14.8224 74.8557 13.3988 76.3023 11.6649 76.336Z" fill="white"/>
<path id="Vector_5" d="M94.7439 77.305C96.0055 78.072 97.483 78.1729 98.8999 77.601C100.458 76.9685 101.592 75.6228 101.936 74.0079C102.266 72.42 101.808 70.8388 100.674 69.6747C99.8309 68.8067 98.7177 68.255 97.4965 68.1877C97.0917 68.1675 96.6869 68.2012 96.2889 68.2685C96.1135 68.2954 95.938 68.329 95.7694 68.3761C95.5872 68.4232 95.4253 68.5107 95.2364 68.5376C95.0138 68.578 94.9193 68.4703 94.7709 68.329L94.3593 67.9388C94.1772 67.7705 93.995 67.5956 93.8128 67.4274C93.0572 66.7209 92.3151 66.0211 91.5864 65.3079C90.8848 64.6216 90.1966 63.9352 89.5084 63.2422C88.1119 61.8427 86.6613 60.396 85.177 59.0503C84.9949 58.8888 84.8262 58.7071 84.6575 58.5187C84.1515 57.967 83.7197 57.4893 82.9169 57.4893C82.9034 57.4893 82.8966 57.4893 82.8899 57.4893C79.7729 57.5364 76.6087 57.5296 73.5524 57.5229C72.1626 57.5229 70.7795 57.5229 69.3965 57.5229C68.8567 57.5229 68.4114 57.6642 68.182 57.9064C68.0471 58.0477 67.9864 58.2092 67.9999 58.4111C68.0201 58.8013 68.6003 59.2387 69.4032 59.2454H72.7091C73.5659 59.2454 74.4363 59.2454 75.3066 59.2454C77.4723 59.2454 79.665 59.2454 81.8307 59.2791C82.5053 59.2858 83.288 59.602 83.7737 60.0596C85.4604 61.6543 87.1538 63.3028 88.7933 64.8974C90.0617 66.1288 91.33 67.3668 92.6119 68.5914C93.3743 69.3181 93.3068 69.9775 92.9695 70.7311C92.5579 71.6529 92.1936 72.5478 92.2678 73.3216C92.4163 74.9365 93.3743 76.4639 94.7641 77.3117L94.7439 77.305ZM97.0985 69.9237H97.1322C97.9688 69.9237 98.7919 70.2668 99.4059 70.8724C100.013 71.4713 100.344 72.2383 100.344 73.0323C100.344 74.6337 98.7852 76.2755 97.1929 76.336C97.166 76.336 97.139 76.336 97.1187 76.336C96.4373 76.336 95.6817 75.9861 95.0475 75.3671C94.3323 74.6741 93.914 73.7926 93.9275 73.0121C93.9545 71.3838 95.432 69.9439 97.0985 69.9304V69.9237Z" fill="white"/>
<path id="Vector_6" d="M7.56286 16.2428C6.87469 17.2992 6.6588 18.6449 6.9624 20.031C7.23902 21.3094 8.02838 22.4398 9.12135 23.1261C10.2076 23.8125 11.5029 24.0009 12.859 23.6779C12.967 23.651 13.0884 23.6375 13.2099 23.6375C13.7226 23.6375 14.3163 23.8461 14.6469 24.1623C18.0675 27.4392 21.1912 30.4939 24.1935 33.5016C24.9289 34.2418 25.6036 34.5244 26.5009 34.4975C27.9717 34.4436 29.4627 34.4571 30.9065 34.4638C31.5137 34.4638 32.1209 34.4705 32.7281 34.4705H34.7454C36.4253 34.4705 38.112 34.4705 39.7919 34.4705C40.4599 34.4705 40.7365 34.235 40.777 33.6227C40.8107 33.0777 40.6015 32.8893 39.7852 32.748C39.657 32.7278 39.5086 32.7346 39.3534 32.7413C39.2724 32.7413 39.1915 32.7413 39.1105 32.7413H36.3444C33.2004 32.7413 30.0497 32.7413 26.9057 32.7211C26.4402 32.7211 25.7925 32.5462 25.4012 32.1761C23.4649 30.3392 21.569 28.4417 20.1387 26.9951C19.1267 25.9723 18.1282 24.9361 17.1095 23.8797L15.6454 22.3456C15.524 22.1303 15.6049 21.989 15.7804 21.693C15.8141 21.6324 15.8546 21.5786 15.8883 21.518C15.9423 21.4373 15.9895 21.3633 16.03 21.2825C16.9408 19.2034 16.7654 17.427 15.5105 15.8391C14.033 13.982 12.0629 13.9282 10.6663 14.2175C9.31026 14.4934 8.23753 15.1931 7.55611 16.2293L7.56286 16.2428ZM8.62209 18.9611C8.62209 18.0595 8.9122 17.2925 9.47218 16.734C10.0389 16.1688 10.835 15.866 11.7661 15.866H11.7796C13.6349 15.866 14.8291 17.0771 14.8291 18.9342C14.8291 19.8426 14.5255 20.6231 13.9587 21.195C13.3853 21.767 12.6027 22.063 11.6919 22.063C9.9512 22.063 8.63559 20.724 8.62884 18.9611H8.62209Z" fill="white"/>
<path id="Vector_7" d="M72.3381 20.3877C73.8831 20.3742 75.4281 20.3675 76.9731 20.4281C77.4588 20.4483 77.9446 20.4752 78.4169 20.3541C79.0578 20.1926 79.4019 19.7687 79.6988 19.2102C80.5421 17.6626 81.4394 16.1218 82.3097 14.628C82.9372 13.5515 83.5646 12.4816 84.1786 11.3916C84.6913 10.4832 85.1771 9.83054 86.7356 9.77672C88.3346 9.72289 89.7581 9.01639 90.6419 7.85234C91.5123 6.69502 91.7821 5.22146 91.4043 3.69407C90.9118 1.70914 89.6299 0.538363 87.4912 0.114461C85.5684 -0.269068 83.9694 0.397062 82.7415 2.0994C81.6216 3.64697 81.4597 5.22819 82.249 6.79595C82.357 7.00454 82.4852 7.20639 82.6066 7.40825C82.782 7.68412 82.9574 7.97345 83.0991 8.2897C83.1598 8.431 83.4567 9.15769 83.1801 9.64887C82.7213 10.463 82.2423 11.2705 81.7565 12.0712C80.9267 13.4505 80.0698 14.8837 79.3817 16.3438C78.7272 17.7299 77.4723 18.6786 75.9138 18.7527C74.8546 18.7998 73.8493 18.8401 72.7901 18.7863C71.7309 18.7325 70.6986 18.7459 69.6664 18.7594C69.3021 18.7594 68.8838 18.6854 68.5532 18.8401C68.2226 18.9949 67.9527 19.3515 68.0202 19.7148C68.0742 20.0042 68.3238 20.2195 68.6004 20.3204C68.877 20.4213 69.1739 20.4213 69.4707 20.4213C70.4288 20.4213 71.38 20.4012 72.3381 20.3944V20.3877ZM86.5872 1.74951C86.5872 1.74951 86.6276 1.74951 86.6479 1.74951C88.537 1.78988 89.8796 3.09523 89.8391 4.85139C89.8188 5.7732 89.387 6.70848 88.6854 7.34769C88.1254 7.85907 87.4575 8.12821 86.7761 8.12821C86.7153 8.12821 86.6614 8.12821 86.6006 8.12821C85.0759 8.02055 83.5511 6.83632 83.6051 4.7841C83.6456 3.09523 84.9747 1.74951 86.5804 1.74951H86.5872Z" fill="white"/>
<path id="Vector_8" d="M91.1475 89.1271C91.9098 87.2902 91.7209 85.6147 90.5875 84.1546C89.535 82.7954 88.1587 82.1966 86.3978 82.3312C85.5207 82.3985 84.9742 82.0822 84.5154 81.2411C82.7275 77.998 81.0341 75.0576 79.3339 72.2585C79.1585 71.9691 78.5648 71.6664 78.1128 71.626C77.0671 71.5452 75.9808 71.5587 74.9351 71.5789C74.645 71.5789 74.3616 71.5856 74.0783 71.5991H72.2769C71.6967 71.5991 71.1097 71.6327 70.5295 71.5991C70.01 71.5654 69.4837 71.5251 68.9642 71.5991C68.7214 71.6394 68.438 71.6933 68.2558 71.8682C67.8983 72.2046 68.0804 72.9313 68.465 73.1601C68.8698 73.4023 69.4028 73.436 69.8616 73.4494C70.9073 73.4764 71.9463 73.3485 72.9853 73.3485C74.1525 73.3485 75.3264 73.3418 76.5003 73.2745C76.561 73.2745 76.615 73.2745 76.6757 73.2745C77.7687 73.2745 78.3085 73.8195 78.774 74.6404C79.3677 75.6901 79.9749 76.7397 80.5753 77.7826C81.4389 79.2764 82.3025 80.7701 83.1391 82.2773C83.4022 82.7483 83.2066 83.4279 83.1054 83.6971C82.9434 84.1412 82.7275 84.5785 82.5184 85.0024C82.1271 85.7964 81.756 86.5433 81.7898 87.2229C81.8775 88.6897 82.5386 90.0421 83.6181 90.9303C84.6301 91.7647 85.8783 92.1145 87.2276 91.9396C89.1234 91.6974 90.4795 90.7217 91.1475 89.1136V89.1271ZM88.948 89.3626C88.3543 89.9345 87.5245 90.244 86.6137 90.244C86.5799 90.244 86.5462 90.244 86.5057 90.244C84.8258 90.2036 83.5844 88.7906 83.6114 86.9672C83.6384 85.2447 84.8932 84.047 86.6609 84.047H86.6879C87.6122 84.047 88.4083 84.3632 88.9818 84.9486C89.5552 85.534 89.8521 86.3347 89.8386 87.2632C89.8251 88.0774 89.508 88.8175 88.948 89.3626Z" fill="white"/>
<path id="Vector_9" d="M39.4879 73.3148C40.0546 73.3148 40.4257 73.2139 40.6078 73.0322C40.7225 72.9111 40.7832 72.7227 40.7765 72.4603C40.7765 71.9557 40.6753 71.599 39.5149 71.5923C38.5366 71.5923 37.5651 71.5923 36.5868 71.5923C34.7045 71.5923 32.8221 71.5923 30.9398 71.5789C30.2314 71.5789 29.8401 71.7874 29.496 72.393C28.7471 73.7185 27.978 75.0374 27.2088 76.3562C26.3588 77.8163 25.5087 79.2764 24.6788 80.7499C24.1661 81.6583 23.5319 82.533 22.0004 82.3446C21.8789 82.3311 21.7575 82.3244 21.6361 82.3244C20.5094 82.3244 19.3422 82.93 18.4449 83.9931C17.3856 85.2514 16.9808 86.8528 17.3789 88.185C18.0401 90.3651 19.4029 91.6637 21.319 91.9328C23.5791 92.2558 25.6706 91.1927 26.5207 89.2885C26.8985 88.4407 27.1279 87.5122 27.0334 86.5769C26.9255 85.5541 26.4195 84.6054 25.7516 83.8383C25.6638 83.7441 25.5761 83.65 25.4817 83.5625C25.3265 83.4212 25.1646 83.253 25.313 83.0444C25.5694 82.6945 25.7718 82.2773 25.9944 81.8938C26.2306 81.4833 26.4735 81.0796 26.7096 80.6692C27.9712 78.516 29.1586 76.4773 30.3326 74.3712C30.7644 73.5907 31.2771 73.3081 32.1002 73.3081C34.5425 73.3417 36.9848 73.335 39.4811 73.3148H39.4879ZM25.3535 87.0883C25.3468 88.8781 23.9704 90.2372 22.1488 90.244H22.1353C21.292 90.244 20.4149 89.8402 19.774 89.1607C19.187 88.5349 18.8834 87.7477 18.9374 87.0008C19.0453 85.4869 20.3339 83.946 22.0948 84.0469C23.0596 84.0469 23.8895 84.3699 24.4967 84.9688C25.0499 85.5205 25.3535 86.2741 25.3535 87.0883Z" fill="white"/>
<path id="Vector_10" d="M17.851 2.68482C16.9065 4.58901 17.1629 6.66142 18.5122 8.08788C19.7738 9.42014 21.1367 9.9988 22.567 9.79694C22.7424 9.77002 22.8976 9.75657 23.0393 9.75657C23.5385 9.75657 23.8826 9.93824 24.2199 10.5169C26.1293 13.8543 27.8632 16.8149 29.5229 19.5601C29.9749 20.307 30.6226 20.3743 31.4187 20.3608C32.2755 20.3474 33.1323 20.3877 33.9892 20.3945C36.0065 20.4079 38.017 20.3945 40.0342 20.3676C40.3378 20.3676 40.6212 20.1791 40.7696 19.8898C40.8236 19.7889 40.9248 19.5265 40.7561 19.291C40.547 18.9949 39.9533 18.719 39.481 18.6989C37.0117 18.5979 35.0147 18.5912 33.2066 18.6989C31.8032 18.7729 30.7035 18.497 29.8872 16.8889C28.9156 14.9914 27.8092 13.1276 26.7297 11.3176C26.4666 10.8735 26.1967 10.4227 25.9336 9.97861C25.7244 9.62199 25.3601 9.23174 25.3804 8.78765C25.4074 8.29646 26.0348 7.83892 26.3047 7.45539C26.588 7.04495 26.8107 6.59413 26.9389 6.10967C27.2087 5.10711 27.0536 4.05745 26.696 3.09526C26.0146 1.2449 24.5843 0.249071 22.3241 0.0404843C20.489 -0.12773 18.7348 0.908472 17.851 2.69155V2.68482ZM21.9935 1.74955C21.9935 1.74955 22.0407 1.74955 22.0677 1.74955C22.9988 1.74955 23.8489 2.07925 24.4561 2.68482C25.0363 3.25675 25.3534 4.03054 25.3534 4.86488C25.3534 5.67904 24.9553 6.53357 24.2672 7.1997C23.6397 7.80528 22.8638 8.15516 22.1352 8.15516C22.115 8.15516 22.0947 8.15516 22.0745 8.15516C21.3391 8.13498 20.4755 7.6707 19.8143 6.93729C19.2004 6.2577 18.8833 5.48391 18.9373 4.81105C19.0385 3.55281 20.1854 1.74955 21.9935 1.74955Z" fill="white"/>
<path id="Vector_11" d="M16.6167 45.1287C14.6736 45.1287 12.7306 45.1287 10.7875 45.1153C10.3895 45.1153 9.7148 44.8663 9.54613 44.4222C8.76351 42.3633 6.95539 41.1387 4.88415 41.1387C4.39839 41.1387 3.89913 41.206 3.39987 41.3473C1.54452 41.8586 -0.0746888 44.1531 -0.000474832 46.1582C0.0669924 47.8942 1.49055 50.6058 4.35791 50.8951C4.70874 50.9288 5.06631 50.922 5.42389 50.8817C5.78146 50.8413 6.15253 50.7471 6.50336 50.626C6.85419 50.5049 7.20502 50.3299 7.52886 50.1281C7.85271 49.9262 8.16306 49.6705 8.43293 49.3879C8.70279 49.1053 8.95242 48.7622 9.14808 48.4056C9.35723 48.022 9.51915 47.6048 9.60685 47.1809C9.62035 47.1069 9.6136 47.0329 9.64059 46.9656C9.68107 46.8445 9.8295 46.8512 9.9307 46.8512C10.3153 46.8512 10.6998 46.8512 11.0844 46.8512H21.8589C22.1085 46.8512 22.3649 46.858 22.6213 46.8647C23.2285 46.8849 23.802 46.8983 24.3552 46.8176C24.8747 46.7369 25.5494 46.1851 25.1985 45.6199C24.9624 45.2431 24.3552 45.1489 23.9504 45.1489C21.5081 45.1287 19.059 45.122 16.6167 45.122V45.1287ZM7.32646 48.022C6.74624 48.6949 5.86242 49.112 4.85042 49.1793C4.79644 49.1793 4.74247 49.1793 4.6885 49.1793C4.04081 49.1793 3.39313 48.9102 2.85339 48.4056C2.17872 47.7798 1.78066 46.8849 1.78066 46.0034C1.78066 44.1262 2.97483 43.0092 4.96511 43.0025H4.9786C6.83395 43.0025 7.85271 43.9714 8.00788 45.8891C8.07535 46.6898 7.83921 47.4232 7.33321 48.0153L7.32646 48.022Z" fill="white"/>
</g>
</g>
</g>
<defs>
<clipPath id="clip0_509_238">
<rect width="109" height="92" fill="white"/>
</clipPath>
</defs>
</svg>
