<svg width="133" height="133" viewBox="0 0 133 133" fill="none" xmlns="http://www.w3.org/2000/svg">
<circle cx="66.5" cy="66.5" r="66.5" fill="white"/>
<g clip-path="url(#clip0_6_21)">
<path d="M47.4251 60.3227C46.5208 60.6531 45.7087 60.956 44.8921 61.2476C43.0745 61.8992 41.7045 61.193 41.1354 59.3113C39.6214 54.3018 42.1724 48.9575 46.9955 47.0484C47.8323 46.7181 48.6714 46.3924 49.5285 46.1213C50.0459 45.9573 50.2821 45.7158 50.2371 45.1326C50.1898 44.5403 50.1786 43.9366 50.3226 43.3443C50.777 41.4763 51.913 40.2348 53.6902 39.5832C58.8551 37.6924 64.0201 35.8016 69.1896 33.9291C69.6598 33.7582 69.9364 33.5418 70.1007 33.0247C70.8903 30.5256 73.2275 29.054 75.9225 28.9196C78.5118 28.792 80.5206 30.25 81.4587 32.8083C83.8612 39.36 86.2502 45.9185 88.6168 52.4862C88.8102 53.0193 89.0374 53.1605 89.5931 53.1696C91.3972 53.2015 92.7312 54.0581 93.4735 55.7507C93.7952 56.4865 94.0494 57.2519 94.3216 58.0082C94.911 59.6393 94.3824 60.8148 92.7852 61.4185C91.3432 61.9629 89.908 62.5302 88.4503 63.0291C87.8789 63.225 87.8317 63.4642 88.0431 63.9859C88.6055 65.38 89.1207 66.797 89.6403 68.2094C89.98 69.132 89.7663 69.7653 89.0509 70.025C88.3648 70.2756 87.8047 69.9476 87.4695 69.0728C86.9116 67.6194 86.3515 66.1683 85.8296 64.7012C85.6586 64.2182 85.4741 64.1385 84.995 64.3276C83.3236 64.9882 81.6296 65.5965 79.9425 66.2184C78.325 66.8152 77.1485 66.2913 76.5771 64.6625C76.1767 63.5189 75.5693 62.4322 75.5581 61.1679C75.5468 59.7737 76.0777 58.6279 77.1485 57.7713C77.4815 57.5048 77.5917 57.318 77.4297 56.8851C76.4062 54.1378 75.4119 51.3813 74.4243 48.6203C74.2826 48.2239 74.1274 48.085 73.7135 48.274C73.2478 48.4882 72.7529 48.6385 72.2692 48.8139C71.4549 49.1124 70.6428 49.2445 70.6271 50.5248C70.6136 51.5932 69.6283 52.1285 68.6587 52.4839C63.5455 54.3588 58.4345 56.2496 53.3235 58.1335C52.2864 58.5162 51.2539 58.9103 50.2101 59.2703C49.8614 59.391 49.7467 59.5755 49.7489 59.9446C49.7602 63.6191 49.7647 67.2936 49.7489 70.9681C49.7489 71.4443 49.9424 71.5263 50.3451 71.524C52.3787 71.5103 54.41 71.5012 56.4436 71.5308C56.9858 71.5377 57.0735 71.3121 57.0712 70.836C57.0555 67.6308 57.0622 64.4255 57.0645 61.2203C57.0645 60.9082 57.0465 60.5984 57.159 60.2931C57.3569 59.7669 57.7281 59.5004 58.2792 59.514C58.8304 59.5254 59.2151 59.8011 59.35 60.3501C59.422 60.6485 59.4355 60.9674 59.4355 61.2773C59.4423 64.3777 59.4648 67.4804 59.422 70.5809C59.4108 71.3304 59.5997 71.5673 60.3556 71.5354C64.1371 71.3736 66.4316 73.875 66.9783 76.4469C67.2685 77.8137 67.354 79.2284 67.5092 80.6249C67.9636 84.7368 68.409 88.8487 68.8522 92.9629C69.1334 95.5758 69.4303 98.1865 69.671 100.804C69.734 101.487 69.9297 101.727 70.6428 101.715C73.5762 101.672 76.5096 101.697 79.4431 101.699C79.7243 101.699 80.0122 101.699 80.2889 101.747C80.876 101.845 81.1955 102.248 81.2382 102.818C81.2787 103.36 80.9953 103.752 80.4891 103.975C80.1674 104.116 79.8322 104.087 79.5016 104.087C63.496 104.087 47.4904 104.087 31.4825 104.087C31.3026 104.087 31.1204 104.096 30.9426 104.078C30.2363 104.002 29.7391 103.503 29.7391 102.877C29.7391 102.248 30.2273 101.749 30.9449 101.711C31.586 101.674 32.2339 101.656 32.8728 101.706C33.4756 101.754 33.5949 101.51 33.5904 100.947C33.5656 97.5076 33.5769 94.0677 33.5791 90.6279C33.5791 88.4683 34.6724 87.3611 36.805 87.3588C39.7654 87.3543 42.7236 87.3748 45.684 87.3474C46.6783 87.3383 47.4679 87.68 48.154 88.3976C50.3878 90.7418 52.6306 93.0768 54.8914 95.3936C55.5865 96.1066 55.9105 96.9313 55.9037 97.9177C55.8947 98.961 55.9172 100.002 55.8947 101.045C55.8857 101.487 55.978 101.704 56.4819 101.702C59.9304 101.683 63.379 101.679 66.8276 101.706C67.4507 101.711 67.4147 101.378 67.3697 100.968C67.0368 97.9427 66.6971 94.9174 66.3664 91.8922C65.9817 88.3748 65.6061 84.8552 65.2214 81.3379C65.0729 79.9665 64.9447 78.5928 64.7535 77.2283C64.4948 75.3785 62.8683 73.9251 61.0125 73.9182C55.9937 73.8977 50.9772 73.8955 45.9584 73.9182C43.8304 73.9274 42.3074 75.5448 42.0577 77.9641C41.8935 79.5678 41.7293 81.1739 41.5628 82.7776C41.4638 83.7253 40.9802 84.1946 40.1996 84.108C39.473 84.026 39.1288 83.4656 39.23 82.5453C39.4325 80.7092 39.5494 78.8594 39.8486 77.0392C40.4043 73.6494 42.8113 71.6128 46.2104 71.5194C47.0202 71.4967 47.4251 71.0767 47.4251 70.2597C47.4251 67.2617 47.4251 64.2661 47.4251 61.2681C47.4251 60.9879 47.4251 60.71 47.4251 60.3227ZM52.5429 50.3334C52.5429 51.1148 52.5496 51.8962 52.5429 52.6775C52.5339 53.5295 52.1042 54.0444 51.4091 54.0626C50.6758 54.0831 50.2348 53.5706 50.2281 52.6593C50.2191 51.436 50.2123 50.2104 50.2326 48.9871C50.2393 48.5406 50.1696 48.3606 49.6837 48.5702C48.9773 48.8755 48.2305 49.085 47.5264 49.3971C44.1295 50.9052 42.3232 54.7825 43.3085 58.3955C43.4457 58.8944 43.5627 59.2247 44.242 58.9718C52.1132 56.0423 59.9934 53.1377 67.8759 50.2469C68.3798 50.0623 68.49 49.8619 68.2965 49.347C67.5497 47.356 66.8208 45.3581 66.1392 43.3443C65.9277 42.7201 65.6735 42.6472 65.0909 42.8682C61.4399 44.2441 57.7731 45.5837 54.1108 46.9323C53.067 47.3165 52.5451 48.0591 52.5451 49.1602C52.5451 49.5498 52.5451 49.9416 52.5451 50.3311L52.5429 50.3334ZM72.1433 34.8312C72.0983 35.28 72.2107 35.706 72.3615 36.1228C74.764 42.7315 77.1733 49.3379 79.5623 55.9511C79.7355 56.4295 79.9177 56.5093 80.3924 56.3247C82.2595 55.598 84.1379 54.8941 86.0298 54.2357C86.5944 54.0398 86.6237 53.8166 86.4324 53.2949C84.0299 46.7432 81.6544 40.1801 79.2676 33.6215C78.7277 32.1408 77.5602 31.1999 76.1587 31.2592C74.6515 31.323 72.8924 32.0724 72.33 33.6808C72.1995 34.0521 72.1095 34.4302 72.1455 34.8335L72.1433 34.8312ZM44.7594 101.695C47.4566 101.695 50.1561 101.688 52.8533 101.702C53.3235 101.704 53.5529 101.608 53.5327 101.057C53.4899 100.018 53.5102 98.9747 53.5259 97.9336C53.5304 97.5441 53.418 97.2479 53.1435 96.9632C50.9457 94.6988 48.7546 92.4298 46.5771 90.1449C46.2621 89.8146 45.9337 89.7007 45.4905 89.703C42.6133 89.7189 39.7339 89.7303 36.8567 89.6961C36.1301 89.687 35.9187 89.9672 35.9232 90.6552C35.9412 94.0905 35.9457 97.5258 35.9187 100.961C35.9142 101.553 36.0964 101.711 36.6655 101.704C39.3627 101.676 42.0622 101.692 44.7594 101.692V101.695ZM77.8684 61.152C78.0168 62.0131 78.433 62.8036 78.676 63.6487C78.7952 64.0633 78.9977 64.077 79.3463 63.9335C80.0347 63.6487 80.7366 63.4027 81.4339 63.143C84.824 61.8787 88.2096 60.6075 91.6042 59.3637C92.0968 59.1837 92.2498 58.9923 92.0023 58.4775C91.7459 57.9444 91.6019 57.3567 91.3747 56.8077C90.9428 55.7666 90.0452 55.2791 89.0014 55.6573C85.6743 56.8624 82.363 58.1176 79.0539 59.3728C78.2733 59.6689 77.9426 60.3273 77.8684 61.1588V61.152ZM52.5856 44.9617C52.9703 44.8251 53.3077 44.7112 53.6429 44.5859C57.2804 43.2441 60.918 41.9091 64.551 40.5537C65.4823 40.2051 66.5104 40.0798 67.147 40.8293C67.9298 41.7519 68.6092 41.4239 69.4123 41.0936C69.9117 40.8886 70.4111 40.6767 70.9285 40.5309C71.3379 40.4147 71.3852 40.2439 71.2412 39.8634C70.8385 38.7973 70.4606 37.7198 70.1052 36.6377C69.9702 36.2276 69.797 36.2185 69.4303 36.3529C64.4205 38.1959 59.4018 40.0115 54.3943 41.859C53.049 42.3556 52.4799 43.3603 52.5879 44.9572L52.5856 44.9617ZM73.34 45.6657C72.9913 44.7089 72.6494 43.7339 72.2692 42.7702C72.1883 42.5629 71.9633 42.6677 71.7923 42.7315C70.9532 43.0436 70.1187 43.3739 69.2683 43.6541C68.8634 43.7863 68.8229 43.9936 68.9556 44.3444C69.2481 45.1189 69.545 45.8912 69.8015 46.6771C69.9207 47.0416 70.0939 47.1077 70.4268 46.9778C71.2862 46.6452 72.1568 46.34 73.0161 46.0096C73.1601 45.955 73.4098 45.9664 73.3378 45.6634L73.34 45.6657Z" fill="#FF5F00"/>
<path d="M76.5254 72.6223C76.5592 72.2191 76.5907 71.4901 76.6942 70.7703C76.8111 69.9502 77.3758 69.4763 78.0371 69.572C78.7458 69.6745 79.1282 70.2964 79.0067 71.1553C78.2666 76.4267 81.0808 81.4658 85.9151 83.5206C86.0816 83.5912 86.2458 83.6618 86.4055 83.7439C87.0624 84.0765 87.3188 84.6688 87.0804 85.2861C86.8442 85.9035 86.1828 86.1768 85.4584 85.8989C83.4316 85.1198 81.6724 83.9261 80.208 82.3041C77.8189 79.657 76.6244 76.5224 76.5232 72.6223H76.5254Z" fill="#FF5F00"/>
<path d="M104.087 72.9047C104.029 73.9503 103.941 75.0871 103.657 76.201C103.408 77.1874 102.87 77.6636 102.159 77.4882C101.435 77.3082 101.158 76.6521 101.37 75.6634C102.355 71.0435 101.127 67.148 97.6375 63.9952C97.3901 63.7719 97.1111 63.5783 96.8479 63.3733C96.1573 62.8334 95.9931 62.1408 96.425 61.569C96.8479 61.0063 97.5003 60.9539 98.1977 61.4483C100.512 63.0931 102.164 65.2663 103.178 67.9339C103.774 69.5013 104.031 71.1369 104.087 72.9047Z" fill="#FF5F00"/>
<path d="M96.4317 72.2578C96.3867 70.6723 95.5094 68.9933 93.8155 67.7495C93.649 67.6265 93.469 67.5263 93.2981 67.4101C92.6502 66.9704 92.459 66.3394 92.7897 65.7471C93.1338 65.1343 93.8177 64.9862 94.5331 65.4099C96.5352 66.5923 97.8984 68.3145 98.4788 70.5834C99.2886 73.7499 98.5395 76.5542 96.3102 78.9303C95.6151 79.6706 94.911 79.7504 94.3733 79.2014C93.8649 78.682 93.9437 77.9871 94.6163 77.2923C95.8266 76.0417 96.4497 74.5541 96.4294 72.2624L96.4317 72.2578Z" fill="#FF5F00"/>
<path d="M81.8141 72.7703C81.8568 72.0436 81.9018 71.3169 82.1065 70.613C82.3225 69.8635 82.9074 69.4511 83.517 69.5992C84.1964 69.7632 84.5248 70.3692 84.3718 71.1711C83.7824 74.2624 84.7992 76.7933 87.204 78.224C88.1083 78.7616 89.0846 79.0327 90.1262 79.0896C91.0103 79.1398 91.4984 79.5999 91.4557 80.3494C91.4152 81.0511 90.918 81.4338 90.0475 81.4292C85.5483 81.411 81.7713 77.438 81.8141 72.768V72.7703Z" fill="#FF5F00"/>
<path d="M57.6201 84.8987C56.7226 84.8987 55.8228 84.9146 54.9252 84.8941C54.1401 84.8759 53.6519 84.418 53.6407 83.7482C53.6294 83.0443 54.1446 82.55 54.9567 82.5454C56.7271 82.5317 58.4975 82.5317 60.2679 82.5454C61.0417 82.5522 61.5321 83.0238 61.5434 83.7049C61.5546 84.4043 61.0957 84.8736 60.3129 84.8941C59.4153 84.9192 58.5177 84.9009 57.6179 84.9009L57.6201 84.8987Z" fill="#FF5F00"/>
<path d="M57.5932 89.7122C56.7203 89.7122 55.8475 89.7236 54.9769 89.7099C54.1603 89.6963 53.6429 89.2224 53.6429 88.5231C53.6429 87.8237 54.1513 87.3681 54.9882 87.3635C56.7338 87.3521 58.4772 87.3521 60.2229 87.3635C61.071 87.3681 61.5501 87.81 61.5479 88.5322C61.5456 89.2429 61.0417 89.6985 60.2116 89.7099C59.3388 89.7236 58.466 89.7122 57.5954 89.7122H57.5932Z" fill="#FF5F00"/>
<path d="M81.1055 46.0396C81.0335 46.6866 80.7478 47.1171 80.1382 47.2424C79.5263 47.3677 79.0674 47.0921 78.8379 46.5271C78.4487 45.568 78.1046 44.5908 77.7469 43.618C77.1665 42.0393 76.5839 40.4583 76.0102 38.8751C75.6953 38.0049 75.9 37.3533 76.5479 37.0891C77.2497 36.802 77.8459 37.1415 78.1855 38.0504C79.1011 40.5016 80.0077 42.9551 80.9143 45.4086C80.9952 45.625 81.047 45.8528 81.1032 46.0419L81.1055 46.0396Z" fill="#FF5F00"/>
<path d="M81.5464 49.4132C82.1785 49.4223 82.6847 49.9782 82.6622 50.6388C82.6397 51.279 82.156 51.7391 81.5172 51.7323C80.903 51.7255 80.3879 51.2197 80.3744 50.6092C80.3609 49.9896 80.9323 49.4041 81.5464 49.4109V49.4132Z" fill="#FF5F00"/>
<path d="M43.1083 98.9431C41.023 98.9295 39.3785 97.2255 39.3943 95.0932C39.41 92.9837 41.0994 91.2888 43.178 91.2957C45.2341 91.3025 46.9573 93.0475 46.9595 95.1251C46.9618 97.246 45.2364 98.9568 43.106 98.9431H43.1083ZM44.5795 95.157C44.593 94.362 43.9744 93.6899 43.2028 93.6626C42.4357 93.6353 41.7631 94.2777 41.7316 95.0659C41.7001 95.8883 42.3524 96.5945 43.151 96.6013C43.9159 96.6081 44.5683 95.952 44.5818 95.1593L44.5795 95.157Z" fill="#FF5F00"/>
</g>
<defs>
<clipPath id="clip0_6_21">
<rect width="74.3478" height="75.1739" fill="white" transform="translate(29.7391 28.9131)"/>
</clipPath>
</defs>
</svg>
