<svg width="80" height="92" viewBox="0 0 80 92" fill="none" xmlns="http://www.w3.org/2000/svg">
<g id="Layer_1" clip-path="url(#clip0_509_201)">
<g id="SqZyFi">
<g id="Group">
<path id="Vector" d="M58.2851 92C57.448 90.7325 56.6042 89.4718 55.7808 88.1975C55.0391 87.0328 54.3381 85.8406 53.5896 84.6759C53.2425 84.1346 53.0724 83.6276 53.7325 83.2508C54.3518 82.8945 54.8009 83.1343 55.1615 83.7373C56.2231 85.4844 57.3187 87.2177 58.496 89.1087C58.9724 88.1358 59.4011 87.2931 59.7958 86.4298C61.0207 83.7715 62.2388 81.1063 63.4161 78.4275C63.5386 78.1534 63.4909 77.6875 63.3344 77.4272C62.0959 75.3512 60.8233 73.3026 59.544 71.2541C59.2514 70.7882 59.299 70.3155 59.7618 70.1373C60.1156 70.0003 60.592 70.1579 61.0003 70.2469C61.1296 70.2743 61.218 70.5073 61.3065 70.6512C62.4906 72.5421 63.6951 74.4194 64.8451 76.3309C65.199 76.9202 65.6141 77.1188 66.281 77.112C68.513 77.0777 70.7451 77.0709 72.9703 77.112C74.413 77.1394 75.8557 77.2696 77.2983 77.3518C77.3596 77.2764 77.4208 77.1942 77.4821 77.1188C73.7869 71.165 70.0918 65.2043 66.3967 59.2505C66.3014 59.2505 66.2061 59.2505 66.1109 59.2505C65.8182 60.0795 65.5869 60.9359 65.2262 61.7376C64.709 62.8749 64.2395 64.0739 63.4977 65.0536C62.4702 66.3965 60.837 66.6637 59.2582 66.8624C58.0401 67.0199 56.7267 66.9035 55.6039 67.3077C54.5491 67.6914 53.5556 68.4793 52.773 69.3151C51.4936 70.6854 50.2551 72.042 48.3361 72.7545C49.214 74.1591 50.051 75.4951 50.888 76.8311C51.2078 77.3449 51.5141 77.8862 50.9765 78.4343C50.5137 78.9071 49.9013 78.7906 49.5134 78.1602C48.5403 76.5844 47.5875 75.0018 46.6076 73.4328C46.4579 73.1999 46.2742 72.9053 46.0428 72.823C44.4845 72.2475 42.9193 71.6994 41.3337 71.1856C40.4491 70.9047 39.5236 70.9458 38.6321 71.1719C37.5569 71.4391 36.5226 71.9187 35.4406 72.1927C35.1207 72.2749 34.8077 72.4188 34.5287 72.5901C33.9298 72.9601 33.4535 73.5013 33.052 74.07C32.7594 74.4879 32.494 74.9264 32.2286 75.3649C29.2071 80.339 26.1245 85.2651 23.0554 90.2049C22.6675 90.8284 22.2456 91.4245 21.8441 92.0342H20.9526C19.9455 89.9309 18.9315 87.8412 17.9448 85.731C16.9581 83.6139 16.0258 81.4695 15.0118 79.3592C14.8962 79.1194 14.4198 78.9276 14.1136 78.9344C9.8128 78.9619 5.50521 79.0441 1.20443 79.0646C0.796125 79.0646 0.244917 78.8317 0.0339607 78.5165C-0.11575 78.2904 0.095206 77.6944 0.299357 77.3655C4.30752 70.8773 8.3293 64.4027 12.3715 57.9419C12.739 57.3527 12.3783 57.1266 12.0244 56.8936C10.8948 56.1537 9.75155 55.4343 8.6015 54.7286C6.839 53.6461 5.83866 51.0083 6.24015 49.0283C6.5736 47.3771 6.72331 45.5821 6.41708 43.9514C6.1721 42.6497 5.18537 41.4575 4.42321 40.2791C3.31399 38.5663 2.59265 36.7301 3.3344 34.7638C3.85159 33.3866 4.77027 32.1534 5.55965 30.8859C6.43069 29.4882 6.87983 28.0768 6.53277 26.3709C6.24015 24.9389 6.11766 23.4248 6.22654 21.9723C6.39667 19.6497 8.01627 18.3068 9.91487 17.2517C10.4525 16.9502 10.9492 16.5666 11.4936 16.2857C13.1473 15.4361 13.9094 13.9768 14.3722 12.2571C14.6444 11.2431 15.0186 10.2428 15.461 9.29728C16.4545 7.18706 18.2306 6.28953 20.4831 6.1114C22.0483 5.98807 23.6883 6.07029 25.0969 5.24813C25.9203 4.76853 26.6689 4.11765 27.3358 3.43252C28.6968 2.04169 29.9149 0.506988 31.9904 0.123312C33.4875 -0.157594 34.8009 0.411069 36.1483 0.856407C37.2575 1.21953 38.3463 1.84985 39.4623 1.89781C40.6056 1.94577 41.776 1.45247 42.9261 1.14416C43.9945 0.856407 45.0357 0.472731 46.104 0.191825C47.9958 -0.301472 49.5474 0.404217 50.9016 1.68542C52.0653 2.78849 53.1268 4.02858 54.413 4.96037C55.216 5.53588 56.332 5.72087 57.346 5.92641C58.7138 6.20046 60.1428 6.20046 61.497 6.52933C63.4773 7.01578 64.396 8.61899 65.022 10.414C65.3759 11.4349 65.6753 12.4832 66.036 13.504C66.6485 15.2648 68.1456 16.0938 69.6223 16.9639C70.956 17.7587 72.317 18.5535 73.1541 19.9511C73.9639 21.3077 73.9639 22.7944 73.6781 24.2606C73.1473 26.9532 73.052 29.5156 75.0391 31.7355C75.4678 32.2151 75.7536 32.818 76.087 33.3729C77.6182 35.9216 76.9785 38.258 75.4406 40.5395C74.6103 41.7727 73.5556 42.9306 73.4127 44.4995C73.331 45.4176 73.4671 46.3563 73.5079 47.288C73.576 48.6446 73.821 50.0149 73.6849 51.3509C73.4671 53.4817 71.8203 54.5642 70.1599 55.5576C69.2071 56.1263 68.2817 56.7429 67.3426 57.3321C69.4521 60.7235 71.5141 64.0259 73.5624 67.3283C75.6175 70.6306 77.6794 73.933 79.7005 77.2627C79.9319 77.6464 80.034 78.263 79.8979 78.6604C79.8094 78.907 79.1561 79.0646 78.7478 79.0715C76.7267 79.1126 74.6988 79.1126 72.6777 79.0852C70.4593 79.0509 68.234 78.9893 66.0156 78.9002C65.3895 78.8728 65.0969 79.0852 64.8383 79.6744C63.1507 83.4495 61.4086 87.204 59.6665 90.9586C59.4896 91.3423 59.1969 91.6711 58.9588 92.0274H58.2442L58.2851 92ZM8.02307 50.3506C7.83934 51.4057 8.63553 52.5773 10.0306 53.4406C10.7519 53.8859 11.4664 54.3518 12.1878 54.7903C13.7597 55.7358 15.0799 56.8731 15.6855 58.7093C16.1483 60.1069 16.6382 61.4978 17.2167 62.8475C17.7475 64.0739 18.7614 64.7247 20.0952 64.8618C21.4086 64.9988 22.7288 65.0879 24.0353 65.2797C26.4443 65.636 28.0163 67.2597 29.5338 69C30.5613 70.1716 31.7386 71.2746 33.4603 70.9458C34.4742 70.7539 35.4406 70.2812 36.4205 69.9181C38.5028 69.137 40.5852 68.8013 42.7424 69.6988C43.8176 70.1442 44.9404 70.4525 46.0496 70.8224C47.0976 71.1719 48.1115 71.076 48.9622 70.3703C49.8536 69.6372 50.7723 68.8904 51.4868 67.9928C53.297 65.7045 55.7672 65.1838 58.4484 65.0262C61.4018 64.8549 62.6675 64.3 63.4365 61.3196C64.2599 58.12 65.7978 55.585 68.8669 54.1051C69.7992 53.6598 70.7247 53.0158 71.3916 52.2416C72.528 50.9261 71.8815 49.316 71.7522 47.8156C71.6229 46.2946 71.1262 44.7599 71.8339 43.28C72.3647 42.1769 72.9091 41.0602 73.5896 40.0462C75.5018 37.2097 75.6787 35.7641 73.6372 32.907C73.1064 32.1671 72.6573 31.3655 72.2082 30.5776C70.8948 28.2892 71.6774 25.8913 71.9564 23.5549C72.1469 21.9723 71.7999 20.65 70.4593 19.6976C69.8876 19.2934 69.3228 18.8618 68.7104 18.5329C66.5532 17.4024 64.8315 15.902 64.083 13.4698C63.7699 12.4626 63.4365 11.4623 63.0894 10.462C62.6675 9.24932 61.9189 8.35179 60.5784 8.1531C59.4215 7.98182 58.2578 7.83794 57.0942 7.72147C55.8012 7.59129 54.5015 7.41315 53.4875 6.54988C52.2898 5.52903 51.1942 4.39171 50.0714 3.29549C49.1731 2.41852 48.1728 1.70598 46.8662 1.98688C45.5665 2.26779 44.2667 2.63091 43.0146 3.08995C41.2861 3.72027 39.5848 4.05599 37.8019 3.37085C36.7948 2.98718 35.7808 2.63776 34.7601 2.28834C32.9023 1.64431 31.2691 1.82245 29.9013 3.43937C29.0779 4.41911 28.166 5.34404 27.1792 6.1525C25.4099 7.61184 23.2119 7.74887 21.0411 7.8996C18.6661 8.07088 17.5978 8.54363 16.8084 10.8731C16.5226 11.7158 16.2436 12.5585 15.9714 13.4012C15.3725 15.2717 14.3245 16.7858 12.5893 17.7656C11.9019 18.1561 11.235 18.5877 10.5477 18.9782C8.84648 19.9374 7.76448 21.2392 8.10473 23.3563C8.24764 24.2606 8.41776 25.165 8.42457 26.0762C8.43137 27.2547 8.55387 28.5359 8.15237 29.591C7.58074 31.112 6.63485 32.496 5.757 33.8799C4.78388 35.4146 4.52528 36.9219 5.54604 38.5183C6.036 39.2788 6.48513 40.0667 7.00232 40.8067C7.98905 42.2317 8.62192 43.7459 8.4586 45.5204C8.3293 46.9044 8.2 48.2883 8.00946 50.3506H8.02307ZM2.5178 77.1874C2.96013 77.2216 3.24594 77.2627 3.52494 77.2559C5.26703 77.2011 7.00912 77.1188 8.75802 77.0846C10.3368 77.0572 11.9087 77.0503 13.4875 77.0846C14.3926 77.1051 14.9778 76.8037 15.461 75.9747C16.5498 74.0905 17.7747 72.2955 18.8839 70.4251C19.2786 69.7605 19.789 69.7262 20.2857 70.014C20.837 70.3429 20.7417 70.9184 20.4287 71.4254C19.231 73.3506 18.0537 75.2895 16.8288 77.1942C16.4953 77.7149 16.509 78.1397 16.7607 78.6741C17.7747 80.8117 18.7478 82.9631 19.7413 85.1075C20.3334 86.3819 20.9254 87.6562 21.5991 89.095C25.0493 83.5317 28.4042 78.126 31.6502 72.8916C30.6838 72.1996 29.772 71.6583 28.9962 70.9663C27.9959 70.0825 27.1248 69.0411 26.1381 68.1367C24.7158 66.8418 22.858 66.9994 21.1432 66.8487C17.5093 66.5266 15.9986 65.314 14.9166 62.0596C14.5899 61.073 14.2633 60.0864 13.8754 58.9079C10.0646 65.0468 6.35584 71.0143 2.53141 77.1737L2.5178 77.1874Z" fill="white"/>
<path id="Vector_2" d="M40.0616 13.8193C52.6033 13.5315 62.0895 23.9593 62.5659 35.0037C63.1987 49.4874 52.1678 58.3805 41.7288 59.0862C27.343 60.0591 18.4828 48.5282 17.5642 38.861C16.9245 32.1124 18.8979 26.2202 23.2532 21.1982C26.7101 17.2107 32.5761 13.511 40.0616 13.8193ZM40.0616 15.6212C29.3301 15.121 18.1154 25.0212 19.3743 38.4499C20.3066 48.4118 28.5407 56.8184 38.9932 57.2911C51.1674 57.8392 61.1028 48.0349 60.7761 35.771C60.4903 24.9185 51.739 15.539 40.0616 15.6143V15.6212Z" fill="white"/>
</g>
</g>
<path id="Vector_3" d="M53.1402 35.9148C53.8888 35.216 54.2222 34.1061 53.9705 33.0647C53.8276 32.4755 53.5077 31.9685 53.0246 31.5505C52.555 31.1463 52.0378 30.9476 51.4934 30.9476C49.5336 30.9476 47.5669 30.9476 45.6071 30.9476H43.865C43.8854 30.8791 43.9126 30.8037 43.933 30.7352C44.0759 30.3036 44.2188 29.8719 44.3345 29.4335C44.5455 28.6524 44.6884 27.8028 44.7769 26.8299C44.8653 25.8707 44.7496 25.0897 44.4298 24.3772C44.1032 23.6509 43.6064 23.048 42.9531 22.5684C42.3883 22.1573 41.769 21.7531 40.9456 21.8216C39.9113 21.897 39.0674 22.7671 39.0198 23.8016C38.9926 24.3772 38.9994 24.9595 39.0062 25.535C39.0062 25.9256 39.0062 26.3229 39.0062 26.7135C39.0062 26.8779 38.9654 27.0629 38.8905 27.2068C38.5298 27.9741 38.1624 28.7346 37.8017 29.502C37.4342 30.2693 37.0667 31.0367 36.7061 31.804C36.3999 31.0367 35.6513 30.5365 34.685 30.5365H34.6782C33.3376 30.5365 31.997 30.5365 30.6564 30.5365H29.0436C28.3087 30.5365 27.7439 30.79 27.3696 31.2902C27.2403 31.4683 27.145 31.6533 27.0633 31.8314C27.0293 31.8999 26.9953 31.9753 26.9545 32.0438L26.9068 32.1329V44.3557C26.9068 44.5407 26.8932 44.7257 26.8796 44.9107C26.8456 45.4314 26.8116 45.9726 27.0089 46.5207C27.0293 46.5687 27.0497 46.6235 27.0702 46.6715C27.1178 46.7742 27.1722 46.877 27.2335 46.9798C27.3696 47.1922 27.5397 47.3703 27.737 47.5142C27.9276 47.6512 28.1522 47.754 28.3971 47.8225C28.6285 47.8842 28.8871 47.9184 29.1525 47.9116C31.0239 47.8773 32.9429 47.891 34.5965 47.9116C35.4812 47.9116 36.1277 47.6101 36.5428 46.9866L36.7401 47.0962C37.1484 47.3223 37.5499 47.5484 37.9514 47.7745C38.5707 48.124 39.1151 48.2815 39.7275 48.2815H39.7683C42.2658 48.2541 44.8109 48.261 47.2743 48.2678H48.7986C49.2818 48.261 49.6697 48.1993 50.0099 48.0417C51.0511 47.569 51.6908 46.6304 51.7248 45.5273C51.7384 45.1231 51.6772 44.7325 51.5343 44.3352C52.4257 43.7665 52.9361 42.8964 53.0041 41.807C53.0314 41.3343 52.9429 40.8547 52.7387 40.3888C53.8548 39.457 54.1882 37.7579 53.4941 36.4424C53.3988 36.2643 53.2831 36.093 53.1675 35.9217L53.1402 35.9148ZM29.0164 46.2535C28.6898 46.2535 28.6149 46.1371 28.5605 46.0069C28.5605 45.9932 28.54 45.9521 28.54 45.8425C28.54 43.9994 28.54 42.1564 28.54 40.3134V37.4838C28.54 35.8806 28.54 34.2774 28.5332 32.6741C28.5332 32.5371 28.5809 32.4069 28.6761 32.3179C28.7646 32.2288 28.8871 32.1809 29.03 32.1809C30.2957 32.1946 31.5683 32.1877 32.8408 32.1877H34.6986C35.0933 32.1877 35.2362 32.3247 35.2362 32.7221C35.2362 37.059 35.2362 41.3959 35.2362 45.726C35.2362 46.096 35.0933 46.2467 34.7326 46.2467H32.7047C31.4798 46.2467 30.2481 46.2467 29.0232 46.2467L29.0164 46.2535ZM48.6217 46.6167H46.1447C44.0759 46.6167 42.0072 46.603 39.9385 46.6304C39.4689 46.6441 39.0334 46.5139 38.5434 46.233C38.0399 45.9384 37.5295 45.6506 37.0123 45.3834C36.8626 45.308 36.8626 45.2943 36.8626 45.1779C36.8762 43.7596 36.8762 42.3346 36.8762 40.9163V38.2649C36.8762 36.7713 36.8762 35.2777 36.8762 33.743C36.9783 33.7087 37.0736 33.6676 37.1552 33.6265C37.196 33.6059 37.2437 33.5854 37.2913 33.5648C37.6248 33.4346 37.8629 33.1948 38.0331 32.8317C38.5366 31.7629 39.047 30.6941 39.5574 29.6321L40.2243 28.2345C40.3332 28.0015 40.4489 27.7686 40.5441 27.5356C40.6258 27.3438 40.6394 27.1382 40.6462 27.0081V26.3229C40.6598 25.5624 40.6666 24.7677 40.6462 23.9866C40.6462 23.829 40.7483 23.6372 40.898 23.5413C41.0341 23.4522 41.177 23.4454 41.3335 23.5207C42.4359 24.0551 43.028 24.8225 43.1641 25.8639C43.2049 26.2133 43.1913 26.6038 43.1164 27.1108C43.0144 27.7823 42.8783 28.577 42.6673 29.3581C42.5516 29.7829 42.3951 30.194 42.225 30.6324C42.1365 30.8585 42.048 31.0915 41.9664 31.3244C41.9596 31.345 41.946 31.3724 41.9324 31.3929C41.8643 31.5437 41.6738 31.9342 42.0276 32.2699C42.1569 32.4001 42.3679 32.5577 42.6197 32.5919C42.8238 32.6193 43.0212 32.6125 43.2117 32.6125H43.4158H45.539C47.4921 32.6125 49.4451 32.6125 51.3913 32.5988C51.7384 32.5919 52.3304 33.0578 52.3713 33.5237C52.4461 34.3459 52.2216 34.709 51.4322 35.0379C51.1872 35.1406 50.9218 35.4284 50.9014 35.7367C50.881 36.0382 51.0987 36.3602 51.3233 36.4972C51.7588 36.7644 52.0038 37.0659 52.1059 37.4495C52.3168 38.2511 52.0378 38.95 51.3505 39.3131C51.1396 39.4227 50.8469 39.6146 50.7721 39.9571C50.6904 40.334 50.9354 40.656 51.0171 40.7587C51.3369 41.1767 51.4186 41.6905 51.2416 42.177C51.0647 42.6703 50.6632 43.0197 50.1392 43.143C49.833 43.2115 49.6016 43.4102 49.5132 43.6843C49.4179 43.9652 49.4927 44.2803 49.7105 44.5407C50.1392 45.0545 50.1732 45.6643 49.7922 46.1645C49.6016 46.418 49.3294 46.5618 48.962 46.603C48.8395 46.6167 48.7238 46.6167 48.6013 46.6098L48.6217 46.6167Z" fill="white"/>
</g>
<defs>
<clipPath id="clip0_509_201">
<rect width="80" height="92" fill="white"/>
</clipPath>
</defs>
</svg>
