<svg width="230" height="27" viewBox="0 0 230 27" fill="none" xmlns="http://www.w3.org/2000/svg">
<path d="M0.349976 10.52V10.1699C0.509976 9.82989 0.789973 9.68987 1.15997 9.64987C1.74997 9.58987 2.33999 9.48988 2.92999 9.40988C5.04999 9.10988 7.16003 8.78997 9.28003 8.49997C9.65003 8.44997 9.86002 8.32995 10.02 7.97995C10.71 6.54995 11.43 5.12993 12.15 3.70993C12.67 2.66993 13.19 1.63005 13.71 0.590053C13.81 0.400053 13.93 0.239907 14.16 0.189907C14.53 0.0999068 14.82 0.220053 15 0.590053C15.53 1.63005 16.04 2.66993 16.56 3.70993C17.32 5.22993 18.08 6.75 18.84 8.27999C18.9 8.38999 18.97 8.43993 19.1 8.45993C20.31 8.62993 21.52 8.79994 22.73 8.96994C24.33 9.19994 25.93 9.43988 27.53 9.65988C27.91 9.70988 28.2 9.82991 28.36 10.1899V10.54C28.27 10.66 28.19 10.7798 28.09 10.8798C27.35 11.5998 26.6 12.32 25.85 13.04C24.52 14.32 23.2 15.6001 21.86 16.8701C21.75 16.9701 21.73 17.0599 21.76 17.1999C21.93 18.1499 22.09 19.1 22.26 20.05C22.58 21.91 22.9 23.7601 23.23 25.6101C23.28 25.9101 23.24 26.1801 22.98 26.3601C22.71 26.5401 22.43 26.4901 22.16 26.3401C21.64 26.0601 21.11 25.79 20.58 25.51C18.56 24.46 16.54 23.4201 14.53 22.3701C14.4 22.3001 14.3 22.3001 14.18 22.3701C11.62 23.7001 9.07001 25.0301 6.51001 26.3601C6.25001 26.5001 5.97998 26.5301 5.72998 26.3601C5.46998 26.1801 5.41997 25.9299 5.46997 25.6399C5.64997 24.5999 5.83001 23.55 6.01001 22.51C6.32001 20.73 6.63 18.9599 6.94 17.1899C6.96 17.0599 6.93002 16.9698 6.83002 16.8798C6.07002 16.1598 5.30999 15.4299 4.54999 14.6999C3.56999 13.7599 2.59 12.8298 1.63 11.8798C1.19 11.4498 0.700017 11.06 0.330017 10.55L0.349976 10.52Z" fill="#FF6000"/>
<path d="M50.67 10.52V10.1699C50.83 9.82989 51.11 9.68987 51.48 9.64987C52.07 9.58987 52.66 9.48988 53.25 9.40988C55.37 9.10988 57.48 8.78997 59.6 8.49997C59.97 8.44997 60.18 8.32995 60.34 7.97995C61.03 6.54995 61.75 5.12993 62.47 3.70993C62.99 2.66993 63.51 1.63005 64.03 0.590053C64.13 0.400053 64.25 0.239907 64.48 0.189907C64.85 0.0999068 65.14 0.220053 65.32 0.590053C65.85 1.63005 66.36 2.66993 66.88 3.70993C67.64 5.22993 68.4 6.75 69.16 8.27999C69.22 8.38999 69.29 8.43993 69.42 8.45993C70.63 8.62993 71.84 8.79994 73.05 8.96994C74.65 9.19994 76.25 9.43988 77.85 9.65988C78.23 9.70988 78.52 9.82991 78.68 10.1899V10.54C78.59 10.66 78.51 10.7798 78.41 10.8798C77.67 11.5998 76.92 12.32 76.17 13.04C74.84 14.32 73.52 15.6001 72.18 16.8701C72.07 16.9701 72.05 17.0599 72.08 17.1999C72.25 18.1499 72.41 19.1 72.58 20.05C72.9 21.91 73.22 23.7601 73.55 25.6101C73.6 25.9101 73.56 26.1801 73.3 26.3601C73.03 26.5401 72.75 26.4901 72.48 26.3401C71.96 26.0601 71.43 25.79 70.9 25.51C68.88 24.46 66.86 23.4201 64.85 22.3701C64.72 22.3001 64.62 22.3001 64.5 22.3701C61.94 23.7001 59.39 25.0301 56.83 26.3601C56.57 26.5001 56.3 26.5301 56.05 26.3601C55.79 26.1801 55.74 25.9299 55.79 25.6399C55.97 24.5999 56.15 23.55 56.33 22.51C56.64 20.73 56.95 18.9599 57.26 17.1899C57.28 17.0599 57.25 16.9698 57.15 16.8798C56.39 16.1598 55.63 15.4299 54.87 14.6999C53.89 13.7599 52.91 12.8298 51.95 11.8798C51.51 11.4498 51.02 11.06 50.65 10.55L50.67 10.52Z" fill="#FF6000"/>
<path d="M100.99 10.52V10.1699C101.15 9.82989 101.43 9.68987 101.8 9.64987C102.39 9.58987 102.98 9.48988 103.57 9.40988C105.69 9.10988 107.8 8.78997 109.92 8.49997C110.29 8.44997 110.5 8.32995 110.66 7.97995C111.35 6.54995 112.07 5.12993 112.79 3.70993C113.31 2.66993 113.83 1.63005 114.35 0.590053C114.45 0.400053 114.57 0.239907 114.8 0.189907C115.17 0.0999068 115.46 0.220053 115.64 0.590053C116.17 1.63005 116.68 2.66993 117.2 3.70993C117.96 5.22993 118.72 6.75 119.48 8.27999C119.54 8.38999 119.61 8.43993 119.74 8.45993C120.95 8.62993 122.16 8.79994 123.37 8.96994C124.97 9.19994 126.57 9.43988 128.17 9.65988C128.55 9.70988 128.84 9.82991 129 10.1899V10.54C128.91 10.66 128.83 10.7798 128.73 10.8798C127.99 11.5998 127.24 12.32 126.49 13.04C125.16 14.32 123.84 15.6001 122.5 16.8701C122.39 16.9701 122.37 17.0599 122.4 17.1999C122.57 18.1499 122.73 19.1 122.9 20.05C123.22 21.91 123.54 23.7601 123.87 25.6101C123.92 25.9101 123.88 26.1801 123.62 26.3601C123.35 26.5401 123.07 26.4901 122.8 26.3401C122.28 26.0601 121.75 25.79 121.22 25.51C119.2 24.46 117.18 23.4201 115.17 22.3701C115.04 22.3001 114.94 22.3001 114.82 22.3701C112.26 23.7001 109.71 25.0301 107.15 26.3601C106.89 26.5001 106.62 26.5301 106.37 26.3601C106.11 26.1801 106.06 25.9299 106.11 25.6399C106.29 24.5999 106.47 23.55 106.65 22.51C106.96 20.73 107.27 18.9599 107.58 17.1899C107.6 17.0599 107.57 16.9698 107.47 16.8798C106.71 16.1598 105.95 15.4299 105.19 14.6999C104.21 13.7599 103.23 12.8298 102.27 11.8798C101.83 11.4498 101.34 11.06 100.97 10.55L100.99 10.52Z" fill="#FF6000"/>
<path d="M151.3 10.52V10.1699C151.46 9.82989 151.74 9.68987 152.11 9.64987C152.7 9.58987 153.29 9.48988 153.88 9.40988C156 9.10988 158.11 8.78997 160.23 8.49997C160.6 8.44997 160.81 8.32995 160.97 7.97995C161.66 6.54995 162.38 5.12993 163.1 3.70993C163.62 2.66993 164.14 1.63005 164.66 0.590053C164.76 0.400053 164.88 0.239907 165.11 0.189907C165.48 0.0999068 165.77 0.220053 165.95 0.590053C166.48 1.63005 166.99 2.66993 167.51 3.70993C168.27 5.22993 169.03 6.75 169.79 8.27999C169.85 8.38999 169.92 8.43993 170.05 8.45993C171.26 8.62993 172.47 8.79994 173.68 8.96994C175.28 9.19994 176.88 9.43988 178.48 9.65988C178.86 9.70988 179.15 9.82991 179.31 10.1899V10.54C179.22 10.66 179.14 10.7798 179.04 10.8798C178.3 11.5998 177.55 12.32 176.8 13.04C175.47 14.32 174.15 15.6001 172.81 16.8701C172.7 16.9701 172.68 17.0599 172.71 17.1999C172.88 18.1499 173.04 19.1 173.21 20.05C173.53 21.91 173.85 23.7601 174.18 25.6101C174.23 25.9101 174.19 26.1801 173.93 26.3601C173.66 26.5401 173.38 26.4901 173.11 26.3401C172.59 26.0601 172.06 25.79 171.53 25.51C169.51 24.46 167.49 23.4201 165.48 22.3701C165.35 22.3001 165.25 22.3001 165.13 22.3701C162.57 23.7001 160.02 25.0301 157.46 26.3601C157.2 26.5001 156.93 26.5301 156.68 26.3601C156.42 26.1801 156.37 25.9299 156.42 25.6399C156.6 24.5999 156.78 23.55 156.96 22.51C157.27 20.73 157.58 18.9599 157.89 17.1899C157.91 17.0599 157.88 16.9698 157.78 16.8798C157.02 16.1598 156.26 15.4299 155.5 14.6999C154.52 13.7599 153.54 12.8298 152.58 11.8798C152.14 11.4498 151.65 11.06 151.28 10.55L151.3 10.52Z" fill="#FF6000"/>
<path d="M201.62 10.52V10.1699C201.78 9.82989 202.06 9.68987 202.43 9.64987C203.02 9.58987 203.61 9.48988 204.2 9.40988C206.32 9.10988 208.43 8.78997 210.55 8.49997C210.92 8.44997 211.13 8.32995 211.29 7.97995C211.98 6.54995 212.7 5.12993 213.42 3.70993C213.94 2.66993 214.46 1.63005 214.98 0.590053C215.08 0.400053 215.2 0.239907 215.43 0.189907C215.8 0.0999068 216.09 0.220053 216.27 0.590053C216.8 1.63005 217.31 2.66993 217.83 3.70993C218.59 5.22993 219.35 6.75 220.11 8.27999C220.17 8.38999 220.24 8.43993 220.37 8.45993C221.58 8.62993 222.79 8.79994 224 8.96994C225.6 9.19994 227.2 9.43988 228.8 9.65988C229.18 9.70988 229.47 9.82991 229.63 10.1899V10.54C229.54 10.66 229.46 10.7798 229.36 10.8798C228.62 11.5998 227.87 12.32 227.12 13.04C225.79 14.32 224.47 15.6001 223.13 16.8701C223.02 16.9701 223 17.0599 223.03 17.1999C223.2 18.1499 223.36 19.1 223.53 20.05C223.85 21.91 224.17 23.7601 224.5 25.6101C224.55 25.9101 224.51 26.1801 224.25 26.3601C223.98 26.5401 223.7 26.4901 223.43 26.3401C222.91 26.0601 222.38 25.79 221.85 25.51C219.83 24.46 217.81 23.4201 215.8 22.3701C215.67 22.3001 215.57 22.3001 215.45 22.3701C212.89 23.7001 210.34 25.0301 207.78 26.3601C207.52 26.5001 207.25 26.5301 207 26.3601C206.74 26.1801 206.69 25.9299 206.74 25.6399C206.92 24.5999 207.1 23.55 207.28 22.51C207.59 20.73 207.9 18.9599 208.21 17.1899C208.23 17.0599 208.2 16.9698 208.1 16.8798C207.34 16.1598 206.58 15.4299 205.82 14.6999C204.84 13.7599 203.86 12.8298 202.9 11.8798C202.46 11.4498 201.97 11.06 201.6 10.55L201.62 10.52Z" fill="#FF6000"/>
</svg>
