<svg width="133" height="133" viewBox="0 0 133 133" fill="none" xmlns="http://www.w3.org/2000/svg">
<circle cx="66.5" cy="66.5" r="66.5" fill="white"/>
<g clip-path="url(#clip0_306_1009)">
<path d="M60.23 83.4415C60.23 83.8169 60.23 84.0672 60.23 84.3217C60.2091 87.1918 60.2886 90.0703 60.1463 92.9362C59.9243 97.45 56.4862 101.225 52.1729 102.118C49.4634 102.681 46.9885 102.272 44.6601 100.812C42.1894 99.2605 40.6609 97.0578 40.129 94.2044C39.9783 93.3951 39.9573 92.5524 39.9573 91.7264C39.949 75.5612 39.949 59.3918 39.9573 43.2266C39.9573 42.7093 39.8987 42.4674 39.2664 42.2713C37.5662 41.7457 36.4899 40.4733 36.3978 38.6128C36.3392 37.3946 36.3182 36.164 36.4062 34.95C36.5276 33.223 38.098 31.4 40.1919 31.4C46.7079 31.3916 53.224 31.3833 59.7359 31.4125C60.2761 31.4125 60.8372 31.6044 61.3565 31.8004C62.885 32.3803 63.6011 33.636 63.7309 35.1461C63.844 36.4393 63.7435 37.7617 63.6137 39.0591C63.4336 40.8738 62.2024 41.8041 60.5734 42.3214C60.4855 42.3506 60.3933 42.3756 60.2719 42.4132V51.2571C64.1455 48.9168 68.3416 48.3411 72.6968 48.9502C77.0813 49.5634 80.7958 51.5908 83.7565 54.8614C90.2433 62.0242 89.4602 72.0403 85.2766 77.9057C86.2105 78.8318 87.136 79.7704 88.0908 80.6799C88.2708 80.8509 88.5891 80.9844 88.8278 80.9594C90.2223 80.8259 91.2734 81.3932 92.2324 82.3527C96.0893 86.2323 99.9545 90.1036 103.862 93.9332C104.98 95.0262 105.265 97.0495 104.435 98.1967C104.05 98.7348 103.548 99.1937 103.07 99.6568C102.304 100.403 101.575 101.209 100.717 101.839C99.4436 102.773 97.7895 102.573 96.6839 101.476C92.5674 97.3832 88.4509 93.2825 84.347 89.1817C83.5429 88.3766 83.3042 87.3754 83.388 86.2615C83.4047 86.0571 83.3377 85.7818 83.1995 85.64C82.4374 84.839 81.6375 84.0798 80.867 83.2913C80.5069 82.92 80.2179 82.92 79.7573 83.1912C77.4331 84.572 74.9581 85.5357 72.2403 85.8778C68.3165 86.3742 64.6145 85.7359 61.0969 83.9671C60.8372 83.8378 60.5943 83.6668 60.23 83.4415ZM51.5028 72.0278C51.5531 72.007 51.5992 71.9819 51.6494 71.9611C51.6075 71.8943 51.5657 71.8276 51.5238 71.7608C51.3772 70.8639 51.1511 69.9754 51.0924 69.0743C50.8998 65.8663 51.327 62.7709 52.6503 59.7923C53.827 57.1475 55.5858 54.9782 57.709 53.0759C58.0608 52.7589 58.1697 52.5002 58.1655 52.0831C58.1571 49.4257 58.1613 46.7684 58.1613 44.111V42.4716H42.0344V49.2213C42.851 49.2213 43.6174 49.2213 44.3879 49.2213C45.305 49.2255 45.5982 49.4674 45.5982 50.2142C45.5982 50.9526 45.2841 51.2237 44.4089 51.2279C43.6048 51.2279 42.8008 51.2279 42.0386 51.2279V56.2673C44.011 56.2673 45.9332 56.2673 47.8553 56.2673C48.8101 56.2673 49.2038 56.5676 49.2038 57.2977C49.2038 58.0319 48.8395 58.303 47.8344 58.303C46.5111 58.303 45.192 58.303 43.8687 58.303C43.2531 58.303 42.6375 58.303 42.0219 58.303V63.4467C42.9139 63.4467 43.7723 63.4467 44.635 63.4467C45.3595 63.4467 45.6903 63.7387 45.7029 64.3561C45.7112 64.8734 45.2213 65.3114 44.6224 65.3114C43.764 65.3114 42.9055 65.3114 42.0303 65.3114V72.0278H51.5028ZM41.9884 74.097C41.9884 80.1542 42.0009 86.1364 41.98 92.1186C41.9716 94.6341 42.8678 96.7116 44.7858 98.351C46.9969 100.241 49.476 100.783 52.2943 99.9738C55.858 98.9518 58.2199 95.6853 58.1697 91.9684C58.132 89.2902 58.111 86.6078 58.1864 83.9254C58.2199 82.6989 58.0021 81.8104 56.9678 80.9385C54.8027 79.1113 53.358 76.7001 52.3069 74.0886H41.9884V74.097ZM86.4199 67.4181C86.7842 58.7244 79.1794 50.064 68.4505 50.7899C60.2468 51.3447 53.6427 58.0611 53.1109 66.2542C52.4534 76.3997 60.8958 84.4385 70.4941 84.0172C78.815 83.6501 86.6335 76.6459 86.4199 67.4223V67.4181ZM49.966 40.3565C52.9225 40.3565 55.879 40.3607 58.8355 40.3565C59.2668 40.3565 59.7024 40.3565 60.1295 40.3023C60.9335 40.198 61.6119 39.3845 61.6078 38.5794C61.6078 37.5991 61.5617 36.6145 61.6161 35.6342C61.7166 33.8571 60.6069 33.4357 59.4385 33.4274C53.0942 33.3815 46.7456 33.4024 40.4012 33.4149C39.5093 33.4149 38.6592 33.9196 38.5754 34.7623C38.4288 36.1807 38.4414 37.6324 38.5628 39.055C38.6257 39.8184 39.5344 40.3607 40.2295 40.3607C43.475 40.3607 46.7205 40.3607 49.966 40.3607V40.3565ZM103.003 96.4404C102.802 96.0775 102.689 95.702 102.442 95.4559C98.426 91.4302 94.3975 87.4171 90.3647 83.4123C89.724 82.7782 88.9953 82.7991 88.3588 83.4248C87.5547 84.2133 86.7591 85.0142 85.9634 85.811C85.2306 86.5452 85.2013 87.1585 85.9257 87.8885C89.9627 91.9267 94.008 95.9523 98.0617 99.978C98.6354 100.55 99.2887 100.545 99.8624 99.9822C100.738 99.127 101.609 98.2718 102.455 97.3874C102.681 97.1496 102.794 96.8117 103.003 96.4446V96.4404ZM84.6694 84.1549C85.352 83.4665 86.0053 82.8116 86.5665 82.2442C85.7247 81.3807 84.8621 80.4963 84.1166 79.7371C83.455 80.3586 82.7766 80.9886 82.1275 81.5976C82.965 82.4403 83.8068 83.2913 84.6694 84.1549Z" fill="#FF5F00"/>
<path d="M84.2551 67.2428C84.4394 75.7822 77.4459 81.4473 70.5865 81.8437C61.9221 82.3443 54.8407 75.0981 55.2595 66.6254C55.5987 59.7213 61.474 52.375 70.7959 52.9382C77.7181 53.3595 84.3933 59.2833 84.2509 67.2386L84.2551 67.2428ZM82.2367 67.4264C82.4502 60.7225 76.6796 54.6194 69.1166 54.9614C62.6215 55.2535 57.5125 60.5097 57.2989 66.9633C57.0644 74.0343 62.9439 80.079 70.1635 79.8246C76.4953 79.5993 82.312 74.4765 82.2408 67.4264H82.2367Z" fill="#FF5F00"/>
<path d="M69.7071 74.66C67.1023 74.6516 65.2848 72.8536 64.9331 70.7594C64.5813 68.6653 65.088 66.7463 66.2061 64.9608C67.0604 63.6009 67.877 62.2159 68.7355 60.8643C69.4223 59.7838 70.1886 59.813 70.8503 60.8935C71.8009 62.4411 72.8771 63.9221 73.7063 65.5323C74.8914 67.8226 75.3311 70.2255 73.8571 72.5991C73.0572 73.8882 71.378 74.6808 69.6987 74.66H69.7071ZM69.8076 63.0293C69.4767 63.555 69.2003 63.9805 68.9407 64.4143C68.1995 65.67 67.3033 66.8381 66.9851 68.3148C66.6249 69.9668 67.0144 71.4394 68.0948 72.1403C69.9123 73.3167 72.1862 72.2362 72.5631 70.7052C72.94 69.1784 72.6384 67.735 71.847 66.3917C71.2063 65.3112 70.5446 64.2433 69.8034 63.0252L69.8076 63.0293Z" fill="#FF5F00"/>
</g>
<defs>
<clipPath id="clip0_306_1009">
<rect width="68.5652" height="71.0435" fill="white" transform="translate(36.3478 31.3914)"/>
</clipPath>
</defs>
</svg>
