<svg width="93" height="92" viewBox="0 0 93 92" fill="none" xmlns="http://www.w3.org/2000/svg">
<g id="Layer_1" clip-path="url(#clip0_509_226)">
<g id="xHt8iG">
<g id="Group">
<path id="Vector" d="M74.9937 28.5655C73.6524 27.2371 72.3111 25.9088 70.9698 24.5804C69.1856 22.8135 67.4014 21.0466 65.6235 19.2734C65.0541 18.7032 64.7124 18.6593 64.3518 18.7784C63.9785 18.8974 63.8077 19.1668 63.6432 19.8937C62.8649 23.3837 59.8217 25.6394 56.2406 25.3637C52.9822 25.1193 50.2363 22.3749 49.9959 19.123C49.7302 15.6016 51.9889 12.6129 55.4814 11.8547C56.2533 11.6855 56.538 11.5038 56.6582 11.1028C56.7847 10.6893 56.6455 10.3697 56.1014 9.8434C54.2793 8.0514 52.4634 6.24686 50.6413 4.44859C49.3569 3.17665 48.0725 1.9047 46.7881 0.632751C45.934 -0.213125 45.6113 -0.213125 44.7572 0.626485C43.6183 1.74805 42.4858 2.86962 41.3533 3.99746C39.9866 5.35086 38.62 6.70426 37.2534 8.0514C37.2028 8.10152 37.1522 8.15792 37.1079 8.21431C36.9054 8.44614 36.627 8.75943 36.1525 8.88474L35.621 9.02259L35.4059 8.52133C33.4572 3.90347 30.3697 1.83577 25.9788 2.19919C22.3344 2.49994 19.1836 5.23808 18.3105 8.85341C17.8802 10.658 18.0258 12.45 18.7597 14.1793C19.8226 16.6981 21.746 18.3523 24.8273 19.3861L25.9914 19.7746L24.9981 20.4889C24.8209 20.6142 24.6627 20.7207 24.5236 20.8147C24.2958 20.9714 24.125 21.0779 24.0047 21.2032C21.5182 23.6468 19.0444 26.0968 16.5706 28.5529C15.7291 29.3925 15.7291 29.7058 16.5706 30.5517L19.5253 33.4841C21.0374 34.9879 22.5495 36.4854 24.0617 37.9892C24.1123 38.0393 24.1629 38.0831 24.2135 38.127C24.454 38.3338 24.783 38.622 24.8968 39.1295L25.0107 39.6496L24.1376 39.9879C20.3984 41.3852 18.3801 43.9855 18.1333 47.7136C17.8866 51.4354 19.5316 54.2488 23.0177 56.0658C24.0807 56.6235 23.7896 57.4255 23.6504 57.814L23.6188 57.8954C22.7077 60.4707 21.7966 63.0521 20.8919 65.6336L20.0314 68.071C19.3987 69.8693 19.443 71.63 20.158 73.3154C20.8539 74.9571 21.5625 76.5924 22.2648 78.2278C23.1126 80.1952 23.9605 82.1564 24.7956 84.1301C24.9475 84.4935 25.112 84.8569 25.2765 85.2204C26.1116 87.075 26.9721 88.9923 26.738 91.2731C26.719 91.436 26.776 91.5864 26.9088 91.7179C27.086 91.8997 27.3644 92.0124 27.6301 91.9999C28.4906 91.9498 28.5348 91.3859 28.5475 91.1979C28.693 89.337 28.5159 87.9585 27.9781 86.7242C26.7886 83.986 25.6118 81.2479 24.4287 78.5098C23.5935 76.5736 22.7647 74.6438 21.9232 72.7077C21.3601 71.4044 21.3095 70.0698 21.7713 68.7477C22.2838 67.2878 22.7963 65.8216 23.3151 64.3617C24.0364 62.3128 24.764 60.2576 25.4726 58.2025C25.6877 57.5759 26.0547 56.9242 27.1619 56.9556C27.6997 56.9618 28.3071 56.8804 29.022 56.6924C32.2108 55.8591 34.2481 53.8666 35.4312 50.4267L35.7729 49.4429L36.4942 50.2011C36.7156 50.4329 36.9181 50.6585 37.1142 50.8715C37.5191 51.3164 37.8671 51.7049 38.2594 52.0307C39.1831 52.8139 39.297 53.7412 39.2907 54.4555C39.2654 58.002 39.2654 61.611 39.2717 65.101V68.5535V68.7916C39.2717 68.9921 39.2717 69.1801 39.2844 69.3555C39.3476 69.8755 39.7462 70.2452 40.2081 70.2139C40.7712 70.1763 41.0432 69.9194 41.1382 69.3492C41.1635 69.1738 41.1635 68.9733 41.1571 68.754C41.1571 68.66 41.1571 68.566 41.1571 68.472V63.6787C41.1571 58.403 41.1571 53.1335 41.1571 47.8577C41.1571 46.473 41.4988 45.3326 42.2074 44.3802C43.2387 42.9955 44.8521 42.2185 46.5224 42.2185C47.0665 42.2185 47.617 42.3 48.1548 42.4692C50.3629 43.1647 51.8497 45.2136 51.856 47.5695V50.4455C51.8813 55.3077 51.894 60.3328 51.8434 65.2765C51.8117 68.2465 52.4255 70.8342 53.7098 73.1901C54.4374 74.5247 54.8803 76.0034 55.0258 77.5949C55.2536 80.1138 54.6652 82.5825 53.2606 84.9447C52.1218 86.8683 51.6536 88.773 51.8434 90.7781C51.894 91.3483 52.1091 92.0062 52.8241 92.0062C53.1024 91.9999 53.3365 91.8934 53.4947 91.7179C53.6719 91.5237 53.7478 91.2355 53.7162 90.8971C53.5517 89.1114 53.9882 87.382 55.0891 85.4585C56.1204 83.6602 56.7278 81.7679 56.886 79.8381C57.1011 77.1689 56.5759 74.5999 55.3105 72.2001C54.6968 71.0347 54.0325 69.6562 53.9123 68.0522L53.8743 67.5134L54.4058 67.3943C54.9815 67.269 55.3169 67.5885 55.4624 67.7264C57.0441 69.0485 58.822 69.8254 60.9479 70.145C62.5549 70.3831 63.9089 70.0823 64.8643 69.2678C65.807 68.4658 66.3068 67.2126 66.3068 65.6399V64.0923C66.3068 62.081 66.3195 60.0697 66.2942 58.0583C66.2878 57.2375 66.6105 56.7739 67.3887 56.5044C71.109 55.2074 73.431 52.0558 73.4436 48.2838C73.4563 44.4867 71.2102 41.3915 67.4457 39.9942C67.0218 39.9127 66.756 39.6746 66.6548 39.2924L66.5662 38.9541L66.9964 38.4967C67.1483 38.34 67.3001 38.1709 67.4646 38.0079L70.4004 35.0944C71.9188 33.5906 73.4373 32.0805 74.9558 30.5768C75.8162 29.7184 75.8226 29.38 75.0064 28.5655H74.9937ZM64.4404 59.23C64.4277 59.4243 64.415 59.6185 64.415 59.8002C64.4214 61.7739 64.4214 63.7539 64.415 65.7276C64.415 66.6738 64.1746 67.3442 63.6938 67.7891C63.2825 68.165 62.7068 68.353 61.9475 68.353C61.8147 68.353 61.6818 68.353 61.5363 68.3342C57.3415 68.0084 53.9249 64.5747 53.7604 60.5083C53.6845 58.7162 53.6972 56.8992 53.7098 55.1385C53.7162 54.2049 53.7225 53.265 53.7162 52.3314C53.7162 51.5044 54.2097 51.072 54.6146 50.7211C54.7728 50.5833 54.9183 50.458 55.0385 50.3076L55.7661 49.4241L56.1331 50.5019C57.1707 53.5658 59.0498 55.527 61.8969 56.5044C61.9728 56.5295 62.0488 56.5608 62.1184 56.5922C62.2576 56.6486 62.4916 56.6736 62.7194 56.6924C63.2192 56.7363 63.9089 56.7927 64.2316 57.413C64.5226 57.9769 64.4783 58.6411 64.4404 59.2238V59.23ZM72.1086 30.771C70.3687 32.469 68.6415 34.1858 66.9205 35.8964C65.7121 37.0994 64.5036 38.2962 63.2952 39.4929C62.6372 40.1446 62.5043 40.4641 62.7068 40.9341C62.9029 41.3915 63.1876 41.4917 64.1683 41.4478C66.1992 41.3539 68.0784 42.0306 69.4703 43.3401C70.8116 44.6058 71.5582 46.3414 71.5645 48.2337C71.5772 50.1134 70.8369 51.874 69.4829 53.1836C68.1796 54.443 66.4713 55.126 64.6555 55.126C64.5859 55.126 64.5163 55.126 64.4467 55.126C62.5676 55.0696 60.7707 54.2362 59.5117 52.8327C58.2336 51.4041 57.6262 49.5808 57.797 47.6885C57.8793 46.8113 57.6642 46.5294 57.2656 46.3414C56.8733 46.1534 56.5127 46.166 55.9306 46.8051C55.7534 47.0056 55.5826 47.2061 55.3548 47.4818L53.9439 49.1735L53.8047 47.6635C53.5706 45.1321 52.7355 43.3464 51.1727 42.0494C49.5277 40.6772 47.6296 40.1258 45.5417 40.4077C41.5874 40.9466 39.5754 43.6471 39.2148 48.9041L39.1199 50.2763L37.3103 48.4905C36.6903 47.8765 36.1019 47.3001 35.5198 46.7173C34.9947 46.191 34.6973 46.166 34.3557 46.2913C33.9381 46.4479 33.6723 46.6985 33.7419 47.4191C33.9317 49.3803 33.4129 51.1222 32.2108 52.5946C30.2115 55.0445 26.6747 55.8089 23.8023 54.3991C20.9235 52.9894 19.4177 49.8251 20.1326 46.6985C20.8349 43.6597 23.6251 41.4353 26.7696 41.4165C27.0101 41.4165 27.2631 41.4228 27.5099 41.4353C27.6617 41.4416 27.8136 41.4478 27.9591 41.4541C28.383 41.4666 28.6171 41.31 28.8006 40.9466C28.9904 40.5706 28.9398 40.2511 28.6487 39.9378C28.2185 39.4741 27.7503 39.0167 27.3011 38.5781L24.9475 36.2473C23.1063 34.4114 21.2019 32.5191 19.3038 30.677C18.9875 30.37 18.6901 30.0191 18.6901 29.5492C18.6901 29.073 19.0064 28.7033 19.2848 28.4339C21.3031 26.479 23.3341 24.4677 25.2954 22.519C26.2825 21.5416 27.2695 20.5641 28.2565 19.5866C28.9208 18.935 29.041 18.628 28.8132 18.1706C28.5855 17.7007 28.2565 17.5816 27.3454 17.6443C25.4346 17.7758 23.6188 17.1555 22.2142 15.9024C20.816 14.6555 20.0124 12.9324 19.9428 11.0527C19.8796 9.22936 20.5439 7.50001 21.8219 6.17794C23.1126 4.83707 24.8589 4.09144 26.7443 4.07265C28.674 4.03505 30.4836 4.75561 31.7932 6.05889C33.0903 7.34963 33.7926 9.11031 33.7609 11.0214C33.7609 11.2595 33.7546 11.46 33.7293 11.6667C33.647 12.4186 33.9507 12.6567 34.2607 12.7883C34.5771 12.9262 34.9441 12.9763 35.5072 12.4186C36.4815 11.4537 37.4622 10.4888 38.4365 9.52385C40.4612 7.52508 42.5554 5.46364 44.58 3.40221C44.89 3.08892 45.2697 2.76937 45.7695 2.76937C46.2883 2.76937 46.6679 3.11399 46.9843 3.43354C48.4458 4.92479 49.92 6.36591 51.4764 7.89475C52.0648 8.4712 52.6595 9.05392 53.2543 9.6429L53.8617 10.2381L53.1088 10.6392C50.7172 11.9111 49.1987 13.6467 48.4774 15.9525C47.1614 20.138 49.1987 24.6619 53.229 26.479C57.2782 28.3023 62.0488 26.8424 64.3391 23.0955C64.5796 22.7007 64.8769 22.2746 65.3831 22.2183C65.9145 22.1619 66.3068 22.5629 66.5852 22.8511C68.0657 24.3737 70.0397 26.3787 72.1213 28.3211C72.425 28.6093 72.7793 28.9978 72.7856 29.5179C72.7856 30.0504 72.4313 30.4452 72.096 30.771H72.1086Z" fill="white"/>
<path id="Vector_2" d="M0 30.3701C0 30.627 0.0632696 30.8213 0.202463 30.9654C0.423906 31.1847 0.847813 31.31 1.39826 31.31C2.37894 31.31 3.35962 31.31 4.3403 31.31H5.61834H6.88373C7.86441 31.31 8.85142 31.31 9.83842 31.31C11.2746 31.31 11.281 30.6458 11.2873 30.3952C11.2873 30.1383 11.224 29.9441 11.0848 29.7999C10.8634 29.5806 10.4395 29.4553 9.88904 29.4553C8.44017 29.4553 6.99762 29.4553 5.54875 29.4553C4.09987 29.4553 2.7459 29.4553 1.34764 29.4553C0.0126541 29.4616 0 30.1446 0 30.3701Z" fill="white"/>
<path id="Vector_3" d="M81.7124 30.3638C81.7124 30.6207 81.782 30.8337 81.9338 30.9903C82.1363 31.1971 82.4843 31.3099 82.9018 31.3162C85.8755 31.3287 88.8555 31.3287 91.8292 31.3162C92.1708 31.3162 92.9744 31.2222 92.9997 30.4139C92.9997 30.157 92.9301 29.9502 92.7782 29.7999C92.5758 29.5931 92.2278 29.474 91.7976 29.474C90.7663 29.4615 89.7413 29.4678 88.71 29.474H87.3877H86.0021C85.5592 29.474 85.1163 29.474 84.6734 29.474C84.0723 29.474 83.4776 29.474 82.8765 29.4803C82.4463 29.4803 81.725 29.6056 81.7061 30.3826L81.7124 30.3638Z" fill="white"/>
<path id="Vector_4" d="M12.1098 47.3627C11.939 47.3627 11.7492 47.4066 11.5657 47.5068C11.0405 47.7825 10.5154 48.0895 10.0029 48.384C9.76881 48.5219 9.53472 48.6597 9.29429 48.7976L7.63663 49.7437C6.26368 50.5269 4.89705 51.3101 3.53043 52.0934C2.89773 52.4568 2.90406 52.8452 2.99897 53.1711C3.08754 53.4969 3.2647 53.8039 3.93536 53.8728C3.95434 53.8728 3.97964 53.8603 3.99863 53.854C4.11251 53.8227 4.24538 53.7914 4.32763 53.7475L5.46648 53.1021C7.7948 51.7863 10.199 50.4204 12.5463 49.0482C12.7804 48.9103 12.9323 48.7224 12.9892 48.4968C13.0462 48.2712 13.0019 48.0206 12.8627 47.795C12.6855 47.5068 12.4135 47.3564 12.1035 47.3564L12.1098 47.3627Z" fill="white"/>
<path id="Vector_5" d="M81.7187 47.6635C81.3834 47.4756 81.086 47.3816 80.8329 47.3816C80.757 47.3816 80.6811 47.3941 80.6115 47.4067C80.409 47.463 80.2508 47.6009 80.118 47.8265C80.0041 48.0207 79.6624 48.6159 80.8139 49.2801C82.9588 50.5145 85.11 51.7426 87.2548 52.9706L88.2671 53.5534C88.5708 53.7288 88.8049 53.8604 89.1276 53.8792C89.5705 53.8541 89.8488 53.6348 89.9817 53.2087C90.0893 52.8641 90.1082 52.4631 89.4249 52.0746C86.8562 50.6022 84.2874 49.1235 81.7124 47.6698L81.7187 47.6635Z" fill="white"/>
<path id="Vector_6" d="M2.99279 7.61926C2.91054 7.92628 2.90421 8.32729 3.54956 8.69696L4.03041 8.97266C6.46629 10.3699 8.89584 11.7672 11.3444 13.1456C11.8252 13.4151 12.4832 13.6093 12.8628 12.9514C13.2868 12.2246 12.5971 11.7233 12.2744 11.5416C10.3257 10.42 8.37703 9.31101 6.422 8.20197L4.5682 7.14932C4.3341 7.01774 4.13164 6.89869 3.69508 6.91749C3.36608 6.94882 3.10035 7.21198 2.99279 7.61926Z" fill="white"/>
<path id="Vector_7" d="M83.4143 10.0063C82.4526 10.5514 81.4972 11.0965 80.5419 11.6605C80.061 11.9424 79.9218 12.2682 80.061 12.7507C80.1749 13.1329 80.4217 13.3522 80.7886 13.4086C81.1429 13.4211 81.3454 13.3271 81.5858 13.1893L83.4839 12.1053C85.4516 10.99 87.4129 9.86845 89.3743 8.74061C89.7413 8.52758 90.2917 8.07018 89.9058 7.38721C89.7666 7.14285 89.5768 6.99247 89.3427 6.94861C89.0769 6.89222 88.7479 6.9674 88.3936 7.16791C87.4572 7.68797 86.5272 8.22682 85.5971 8.75941L83.4017 10.0126L83.4143 10.0063Z" fill="white"/>
</g>
</g>
</g>
<defs>
<clipPath id="clip0_509_226">
<rect width="93" height="92" fill="white"/>
</clipPath>
</defs>
</svg>
