<svg width="133" height="133" viewBox="0 0 133 133" fill="none" xmlns="http://www.w3.org/2000/svg">
<circle cx="66.5" cy="66.5" r="66.5" fill="white"/>
<g clip-path="url(#clip0_306_961)">
<path d="M94.9914 76.5098V72.4909C94.9914 69.0076 94.9914 65.5261 94.9914 62.0428C94.9914 61.4682 94.868 61.0715 94.616 60.8291C94.3623 60.5851 93.9509 60.4766 93.3579 60.4952C93.1539 60.502 92.9448 60.5427 92.7254 60.5851C92.6191 60.6054 92.5128 60.6257 92.4048 60.6427C89.7223 61.0681 87.3843 63.7209 87.302 66.4346C87.2746 67.3177 87.2797 68.2195 87.2849 69.0907C87.2866 69.528 87.29 69.967 87.2883 70.4043C87.2849 71.7383 87.2797 73.0723 87.2729 74.4063L87.2643 76.5115L87.1889 76.5861C86.8375 76.9336 86.4878 77.2794 86.1365 77.6269C85.0737 78.6761 83.975 79.7592 82.9123 80.8406C82.6654 81.0915 82.5078 81.4034 82.2866 81.6729C82.0158 82.0051 81.757 81.344 81.6456 81.183C81.3782 80.7932 81.0679 80.4118 80.6771 80.1372C80.1526 79.7677 79.5304 79.5422 78.8962 79.4388C77.842 79.2659 76.8376 79.4643 76.2719 79.9575C75.0052 81.0627 73.7831 82.2644 72.6021 83.4255L72.2901 83.7323C70.9926 85.007 69.6779 86.3257 68.4077 87.5987C67.8507 88.158 67.2902 88.7191 66.7262 89.2835C66.6285 89.3802 66.4708 89.3835 66.3697 89.292C66.2771 89.2073 66.1914 89.131 66.1109 89.0581C65.9497 88.914 65.8126 88.7903 65.6772 88.6598C64.9076 87.9106 64.1362 87.1631 63.3649 86.4156C61.3046 84.4171 59.174 82.3526 57.0965 80.3016C56.4315 79.6439 55.1836 79.2998 53.9906 79.4439C52.8885 79.5778 52.0143 80.0897 51.5292 80.8847C51.3749 81.1389 51.1761 81.4017 50.8744 81.4356C50.5642 81.4695 50.2951 81.2339 50.1219 81.0525C49.4466 80.3524 48.7404 79.6575 48.0582 78.9863C47.4291 78.3676 46.7795 77.7285 46.1538 77.0844C45.8967 76.82 45.7219 76.3708 45.7185 75.9674C45.7082 74.8199 45.7116 73.6537 45.7133 72.5248C45.7185 70.7145 45.7219 68.8432 45.6722 67.0058C45.6499 66.199 45.4391 65.2938 45.0431 64.3141C44.1587 62.1258 42.364 60.8766 39.5563 60.4935C39.0216 60.4206 38.6273 60.4918 38.3805 60.7037C38.1319 60.919 38.0051 61.3021 38.0034 61.8462V62.7123C38 64.1192 37.9982 65.5752 38.012 67.0041C38.0137 67.2448 38.0737 67.4855 38.1714 67.6465C38.4439 68.0974 38.905 68.2551 39.4038 68.0652C39.9352 67.8635 40.2266 67.4245 40.2283 66.8278C40.2283 65.9956 40.2283 65.1633 40.2283 64.3311V63.309C40.2283 63.2276 40.266 63.153 40.3311 63.1039L40.7442 62.8005L40.9002 62.9496C41.0716 63.1123 41.2464 63.2734 41.4213 63.4344C41.8121 63.7937 42.2149 64.165 42.5851 64.5616C43.4302 65.4667 43.4473 66.6499 43.4627 67.5991C43.485 69.0517 43.4833 70.5298 43.4816 71.9587C43.4799 73.552 43.4782 75.1996 43.509 76.8183C43.5176 77.2845 43.7593 77.8658 44.0678 78.1726C48.0599 82.1271 52.1514 86.1172 56.1058 89.9768L58.1507 91.9719C58.2792 92.0973 58.4369 92.2515 58.5878 92.3041C58.85 92.3956 59.0746 92.4244 59.2186 92.3871C59.6762 92.2668 59.9813 92.0058 60.0773 91.6566C60.187 91.2549 60.0122 90.7887 59.5974 90.3751C57.8696 88.653 56.1006 86.9105 54.3917 85.2273L53.5484 84.3968C52.7068 83.5662 52.6588 82.8187 53.401 82.0407C53.6667 81.7627 54.0266 81.6051 54.4157 81.5966C54.8905 81.5898 55.3722 81.7932 55.7681 82.1763C56.812 83.1831 57.8541 84.1934 58.898 85.2019C60.6327 86.8817 62.4273 88.6191 64.1997 90.3175C64.995 91.0803 65.3824 92.0142 65.3841 93.1719C65.3875 96.4145 65.3858 99.6588 65.3841 102.901C65.3841 103.062 65.367 103.22 65.3515 103.361C65.3447 103.418 65.3395 103.476 65.3344 103.53C65.3224 103.662 65.211 103.762 65.079 103.762H51.4401C51.2978 103.762 51.183 103.649 51.183 103.508C51.183 103.154 51.1847 102.803 51.1881 102.454C51.1949 101.566 51.2001 100.725 51.1675 99.8724C51.1487 99.3757 51.0373 98.952 50.8538 98.6808C47.6622 93.9364 44.5186 89.3208 41.0339 84.2103C40.5762 83.5391 40.1203 82.7051 40.2094 81.5983C40.2865 80.6406 40.2643 79.6524 40.242 78.6947C40.2368 78.4591 40.2317 78.2218 40.2266 77.9862C40.2197 77.6218 40.0689 77.2743 39.81 77.037C39.5769 76.8234 39.2855 76.7115 38.9838 76.7285C38.3651 76.7607 38.0102 77.2048 38.0085 77.9472C38.0085 78.332 38.0068 78.7168 38.0051 79.1015C38 80.4135 37.9965 81.7695 38.0222 83.1018C38.0291 83.4679 38.1405 83.8527 38.3119 84.1086C40.1528 86.8529 42.0349 89.6361 43.8553 92.3261C45.0363 94.0703 46.2155 95.8162 47.3931 97.5637C47.5234 97.757 47.6691 97.9553 47.8114 98.1485C48.2587 98.757 48.7198 99.3842 48.8912 100.096C49.0763 100.867 49.0352 101.695 48.9941 102.495C48.9769 102.839 48.9581 103.196 48.9581 103.545C48.9581 103.686 48.8432 103.8 48.701 103.8C48.5278 103.8 48.3633 103.798 48.2039 103.796C48.0599 103.796 47.9176 103.793 47.7805 103.793C47.6091 103.793 47.4428 103.795 47.2783 103.803C46.3801 103.846 46.2087 104.488 46.2241 105.018C46.2413 105.641 46.6458 105.996 47.3297 105.996C60.0499 105.998 72.7701 105.998 85.4902 105.996C85.8605 105.996 86.2187 105.847 86.4741 105.586C86.6781 105.378 86.7861 105.127 86.7775 104.878C86.7604 104.337 86.1467 103.823 85.492 103.8C85.2331 103.791 84.9743 103.793 84.6983 103.795C84.5681 103.795 84.4361 103.796 84.3007 103.796C84.1653 103.796 84.0436 103.683 84.0436 103.542C84.0436 103.229 84.0436 102.92 84.0436 102.617C84.0419 101.739 84.0384 100.908 84.0556 100.072C84.0607 99.8571 84.1516 99.6198 84.335 99.3469C85.4028 97.7587 86.4741 96.1704 87.5437 94.5839C89.8457 91.1684 92.2249 87.6377 94.5509 84.1544C94.8011 83.7781 94.964 83.2764 94.9743 82.8441C95.0103 81.2983 95.0051 79.7236 95 78.2015C94.9982 77.637 94.9965 77.0709 94.9965 76.5064L94.9914 76.5098ZM91.5564 84.6748C88.2876 89.4107 85.0137 94.2856 82.1255 98.5858C81.9524 98.8435 81.841 99.2215 81.829 99.5961C81.7998 100.522 81.805 101.435 81.8101 102.401C81.8118 102.771 81.8136 103.144 81.8136 103.522C81.8136 103.662 81.6987 103.776 81.5564 103.776H67.8661C67.7238 103.776 67.609 103.662 67.609 103.522V100.654C67.609 99.9554 67.609 99.2571 67.6055 98.5604C67.5987 96.6111 67.5918 94.5958 67.6484 92.6143C67.6655 91.9752 67.9844 91.2176 68.4197 90.7718C70.6172 88.5326 72.8866 86.2918 75.0824 84.1256C75.7354 83.4815 76.3885 82.8357 77.0416 82.1899C77.4169 81.8186 77.878 81.6152 78.3408 81.6152C78.7591 81.6152 79.1602 81.7847 79.4704 82.0915C79.8732 82.4899 80.3857 83.3204 79.2939 84.4019C78.2277 85.4596 77.1598 86.5139 76.092 87.5699C75.1629 88.4869 74.2356 89.4039 73.3083 90.3226C72.8369 90.7887 72.4101 91.4837 73.0495 92.1481C73.2586 92.3668 73.502 92.4787 73.7694 92.4821H73.7814C74.1396 92.4821 74.5253 92.2905 74.8938 91.9261L77.1135 89.7344C81.0079 85.8901 85.0343 81.9136 88.9681 77.9777C89.2578 77.6879 89.4823 77.1353 89.4892 76.6912C89.5303 74.1809 89.5286 71.6265 89.5252 69.1551C89.5252 68.3703 89.5252 67.5855 89.5252 66.8007C89.5252 65.0548 90.6668 63.987 91.6592 63.253C91.8049 63.1445 91.978 63.0869 92.1117 63.0462C92.2112 63.0174 92.302 63.0276 92.3963 63.0378C92.434 63.0412 92.4768 63.0462 92.5265 63.0496C92.662 63.0564 92.7699 63.1683 92.7699 63.3039V64.2056C92.7699 65.7057 92.7665 67.2075 92.7631 68.7076C92.7528 72.6367 92.7425 76.698 92.8042 80.6915C92.8265 82.1678 92.4426 83.3967 91.5598 84.6765L91.5564 84.6748Z" fill="#FF5F00"/>
<path d="M52.5422 46.9317C51.9063 47.186 51.656 47.5555 51.68 48.2064C51.7212 49.3878 51.7126 50.5896 51.704 51.7507C51.7006 52.2354 51.6972 52.7202 51.6972 53.205V53.444L51.6937 53.583C51.6972 54.2644 51.6338 54.8136 51.668 55.4763C51.752 57.1391 51.8377 58.8562 52.0777 60.519C52.5542 63.8209 54.0523 66.9669 56.5309 69.8671C59.0214 72.7825 62.1171 74.8911 65.7303 76.1353C66.116 76.2675 66.5874 76.2828 66.8788 76.1709C71.0543 74.5776 74.2716 72.3435 76.7176 69.3433C79.6384 65.76 81.1313 61.5903 81.2873 56.5916C81.3353 55.017 81.325 53.4118 81.3148 51.8608C81.3079 50.7811 81.2993 49.6641 81.313 48.564C81.3233 47.686 81.0028 47.2182 80.1715 46.8927C76.6953 45.535 73.1746 44.1247 69.7687 42.7619L67.1685 41.7212C66.6439 41.511 66.1486 41.5432 65.4561 41.8297C64.2905 42.3128 63.0924 42.7687 61.9337 43.2111C61.2052 43.4891 60.451 43.7773 59.7122 44.0671C58.0187 44.7349 56.3012 45.4231 54.6402 46.0893C53.9409 46.3706 53.2416 46.6503 52.5422 46.93V46.9317ZM65.3138 44.2553C66.0817 43.9468 66.7245 43.9434 67.4633 44.2417C70.5281 45.4825 73.6597 46.7063 76.6885 47.8894L78.2431 48.4962C78.6939 48.6725 79.1087 48.9403 79.095 49.7048C79.0762 50.7303 79.083 51.7761 79.0882 52.7863C79.095 54.022 79.1019 55.2983 79.0659 56.5561C78.9356 61.0513 77.4786 64.9837 74.7344 68.2466C72.6038 70.779 69.9487 72.6351 66.8445 73.7606C66.7279 73.8029 66.6045 73.8216 66.4743 73.8216C66.0286 73.8216 65.5109 73.6063 65.0104 73.3758C60.0379 71.096 56.5926 67.2873 54.7705 62.0581C53.922 59.6207 53.9221 57.1171 53.9238 54.6966C53.9238 54.4034 53.9238 54.1084 53.9238 53.8152C53.9238 53.4169 53.9238 53.0185 53.9255 52.6202C53.9289 51.5998 53.9323 50.5438 53.9118 49.5064C53.9015 48.981 54.1037 48.6861 54.606 48.4894C58.5381 46.9554 62.0399 45.5706 65.3155 44.2553H65.3138Z" fill="#FF5F00"/>
<path d="M48.3153 37.0818C48.5381 37.3039 48.7627 37.5259 48.9855 37.748C50.0071 38.7667 51.063 39.8193 52.148 40.799C52.3965 41.0245 52.9227 41.1635 53.2484 41.0906C53.7626 40.977 54.0437 40.5939 54.0232 40.0329C53.9837 39.938 53.9495 39.843 53.9152 39.7481C53.8415 39.5396 53.7712 39.343 53.6546 39.2227C52.4102 37.9294 51.1864 36.6683 49.8785 35.4512C49.6626 35.2495 49.3403 35.1326 49.0112 35.1326C48.9958 35.1326 48.9803 35.1326 48.9649 35.1326C48.6598 35.1427 48.3838 35.2546 48.2107 35.4411C47.7719 35.9106 47.8131 36.5835 48.3136 37.0802L48.3153 37.0818Z" fill="#FF5F00"/>
<path d="M65.3875 34.4157C65.391 35.1089 65.7218 35.5479 66.2977 35.6191C66.7074 35.67 66.997 35.5073 67.1685 35.3615C67.4204 35.1479 67.5833 34.8293 67.5918 34.5309C67.6415 32.7647 67.6415 30.9222 67.5918 29.0509C67.585 28.7899 67.4547 28.5322 67.2216 28.3271C66.9885 28.1203 66.6817 28 66.404 28C66.3783 28 66.3526 28 66.3268 28.0034C65.7578 28.0509 65.3875 28.5119 65.3841 29.178C65.3824 29.7866 65.3824 30.3934 65.3841 31.0019V31.7969V32.6037C65.3841 33.2088 65.3841 33.8122 65.3841 34.4174L65.3875 34.4157Z" fill="#FF5F00"/>
<path d="M41.0185 52.6694C40.8334 52.8542 40.7425 53.1373 40.7459 53.5068C40.7528 54.2238 41.1333 54.5594 41.9424 54.5611C42.5354 54.5628 43.1285 54.5611 43.7216 54.5611H44.5066H45.2437C45.8522 54.5611 46.4607 54.5611 47.0709 54.5611C47.4977 54.5611 47.8937 54.4051 48.1559 54.1356C48.3513 53.9356 48.4524 53.6949 48.4439 53.4441C48.4267 52.8644 47.8028 52.3711 47.0846 52.366C45.386 52.3559 43.6616 52.3559 41.9578 52.366C41.5327 52.3677 41.2173 52.4694 41.0202 52.6694H41.0185Z" fill="#FF5F00"/>
<path d="M84.5544 53.5119C84.5613 54.2255 84.9435 54.5594 85.756 54.5628C86.3473 54.5645 86.937 54.5628 87.5283 54.5628H88.3202H89.0607C89.6675 54.5628 90.276 54.5628 90.8845 54.5628C91.313 54.5628 91.709 54.4069 91.9678 54.139C92.1632 53.939 92.2609 53.6966 92.2523 53.4424C92.2318 52.8644 91.6061 52.3728 90.8879 52.3677C89.1327 52.3576 87.4084 52.3576 85.7611 52.3677C85.3395 52.3694 85.0275 52.4728 84.8287 52.6711C84.6435 52.8576 84.551 53.1407 84.5544 53.5136V53.5119Z" fill="#FF5F00"/>
<path d="M79.5476 41.0313C80.079 41.3771 80.5023 41.1483 81.0148 40.6652C82.1581 39.5871 83.3014 38.4549 84.5116 37.2022C84.659 37.0497 84.7635 36.8226 84.8852 36.5615C84.8887 36.553 84.8938 36.5446 84.8972 36.5361C84.9881 36.3412 84.9795 36.114 84.8767 35.9242C84.8767 35.9242 84.8767 35.9225 84.8767 35.9208C84.7361 35.6598 84.6024 35.414 84.4344 35.3241C84.2047 35.1987 83.9871 35.1377 83.7865 35.1377C83.5225 35.1377 83.2843 35.2462 83.0752 35.4614C82.6312 35.9208 82.1701 36.3751 81.7228 36.8158C81.2377 37.2955 80.7354 37.7921 80.2555 38.2904L80.0961 38.4566C79.7121 38.8515 79.3162 39.2583 79.1208 39.7143C78.9082 40.2075 79.0762 40.7262 79.5493 41.033L79.5476 41.0313Z" fill="#FF5F00"/>
<path d="M38.9719 73.5115C38.9719 73.5115 38.9873 73.5115 38.9942 73.5115C39.6215 73.5115 40.206 73.0063 40.2283 72.4385C40.2369 72.2148 40.1134 71.9486 39.8958 71.7266C39.6472 71.4723 39.3147 71.3147 39.0267 71.3147H39.0216C38.4354 71.3181 38.0068 71.774 38.0051 72.3978H38.0068C38.0034 73.0623 38.3839 73.4996 38.9719 73.5115Z" fill="#FF5F00"/>
<path d="M63.6787 60.1767L63.4987 59.9564C63.3804 59.8123 63.2758 59.6784 63.1764 59.553C62.9759 59.2987 62.801 59.0784 62.6125 58.8834C62.3382 58.5987 62.0434 58.302 61.7109 58.0885C61.3664 57.8647 61.0887 57.7817 60.8624 57.7817C60.5059 57.7817 60.2796 57.9902 60.1237 58.1834C59.7534 58.6444 59.8443 59.2733 60.3551 59.7835C60.6704 60.0988 60.9893 60.4124 61.3064 60.7259C61.8463 61.2582 62.4051 61.8108 62.945 62.3616C63.4044 62.8312 63.8312 62.8651 64.2872 62.4718C65.0568 61.8074 65.859 61.0649 66.8137 60.131C68.6495 58.3376 70.559 56.4477 72.489 54.5171C72.873 54.1323 73.0752 53.7424 73.0718 53.3899C73.0701 53.1356 72.9587 52.9017 72.7444 52.6949C72.0776 52.0542 71.3834 52.4729 70.9189 52.9373C69.27 54.5832 67.6228 56.2307 65.9035 57.9495L63.6769 60.1751L63.6787 60.1767Z" fill="#FF5F00"/>
</g>
<defs>
<clipPath id="clip0_306_961">
<rect width="57" height="78" fill="white" transform="translate(38 28)"/>
</clipPath>
</defs>
</svg>
