<svg width="1366" height="333" viewBox="0 0 1366 333" fill="none" xmlns="http://www.w3.org/2000/svg">
<mask id="mask0_271_1808" style="mask-type:alpha" maskUnits="userSpaceOnUse" x="0" y="0" width="1366" height="327">
<g clip-path="url(#clip0_271_1808)">
<path d="M1366 327V93.8762H1354.33V100.894H1347.08V109.833H1346.93V100.894H1329.35V109.833H1323.71V114.309H1315.66V81.7464H1295.53V107.927H1285.86V112.389H1280.22V104.085H1268.94V91.9557H1260.89V68.9667H1240.75V88.129H1230.27V93.8762H1219.82V81.0966H1206.92V72.7934H1195.65V81.7464H1186.78V93.2409H1178.73V89.3997H1170.97V51.7251H1161.32V41.5013H1121.85V12.7652H1113.8V19.7976H1090.43V37.6747H1058.21V96.7498H1042.91V117.501H1034.06V111.118H1026.81V51.7251L1018.74 45.3425H1013.92V37.6747H991.37V45.3425H982.901V49.4868L978.475 52.9958V81.0966H968.002V75.9992H959.952V58.4253H940.227L927.733 48.5338H923.707V63.8549H912.433V70.8873H893.091V95.147H868.94V89.3997H859.269V45.9778H838.323V33.848H832.695V50.4543H827.851V45.9778H809.728V72.4757L801.277 79.1905V65.7754H762.61V83.6525H749.734V77.9053H710.265V91.3203H696.569V58.743H676.425V84.9377H666.772V89.3997H661.126V81.0966H649.852V68.9667H641.801V45.9778H621.657V65.1401H618.579V5.11186H608.926V0H589.584V4.47648H576.707V46.6132H567.036V70.2519H559.641V66.4108L549.314 74.3819V39.5952H505.821V90.6849H488.9V100.259H482.325V107.277H470.232V98.9881H467.973V55.5517H457.501V49.8045H448.631V28.7361H416.411V94.3961L413.06 97.0675V104.085H404.336V87.4936H395.484V69.6021H384.192V60.0282H368.091V32.5628H324.598V92.591H317.349V42.7865H302.05V51.0897L290.776 60.0282V81.7464H255.333V100.894H245.661V60.0282H235.189V11.2923H202.168L183.518 26.0791V83.0171H168.346V60.6636H142.556V70.2519H129.679V83.0171H116.784V42.1512H83.7631V67.696L73.6911 75.667V107.277H64.4388V95.147H51.5437V120.056H30.6166V131.551H18.523V108.562H0V327H1366Z" fill="#023C70"/>
</g>
</mask>
<g mask="url(#mask0_271_1808)">
<rect y="-15.84" width="1366" height="343" fill="#023C70" fill-opacity="0.3"/>
</g>
<rect y="281.16" width="1366" height="51" fill="#959595"/>
<path d="M0 301.66H1366" stroke="white" stroke-dasharray="4 4"/>
<g clip-path="url(#clip1_271_1808)">
<path d="M1033.71 275.69H1228.56C1228.56 236.19 1209.53 244.48 1209.09 258.95C1208.31 254.63 1204.74 253.36 1202.58 253.78C1201.13 254.06 1199.97 257.32 1200.26 262.52C1198.38 257.74 1193.26 250.84 1187.89 250.13C1173.63 248.25 1168.42 259.11 1167.85 266.8C1166.74 266.02 1165.42 265.57 1164 265.57C1162.58 265.57 1161.35 265.99 1160.27 266.72C1159.03 262.21 1155.19 258.93 1150.64 258.93C1145.54 258.93 1141.33 263.07 1140.68 268.43C1139.32 267 1137.21 266.08 1134.82 266.08C1131.44 266.08 1128.58 267.94 1127.69 270.48C1126.49 270.09 1125.04 269.87 1123.47 269.87C1122.86 269.87 1122.27 269.9 1121.7 269.97C1121.92 269.32 1122.04 268.62 1122.04 267.89C1122.04 264.54 1119.54 261.82 1116.46 261.82C1114.03 261.82 1111.96 263.51 1111.2 265.86C1110.66 264.82 1109.85 264.16 1108.95 264.16C1107.74 264.16 1106.7 265.34 1106.25 267.02C1105.53 266.62 1104.71 266.39 1103.85 266.39C1100.92 266.39 1098.55 268.97 1098.55 272.15C1098.55 272.17 1098.55 272.18 1098.55 272.19C1095.8 269.55 1091.68 267.87 1087.06 267.87C1084.62 267.87 1082.31 268.34 1080.27 269.18C1080.69 266.07 1079.77 263.19 1077.66 261.87C1075.56 260.55 1072.82 261.11 1070.56 263.04C1067.59 255.92 1061.01 250.97 1053.36 250.97C1047.9 250.97 1033.71 256.74 1033.71 275.68V275.69Z" fill="#22742A"/>
<path d="M1173.4 128.29H1041.61V133.29H1173.4V128.29Z" fill="#D7DDE2"/>
<path d="M1173.4 132.97H1041.61V275.64H1173.4V132.97Z" fill="#ECF2F7"/>
<path d="M1173.4 271.15H1120.15V275.65H1173.4V271.15Z" fill="#D7DDE2"/>
<path d="M1062.02 271.15H1041.61V275.65H1062.02V271.15Z" fill="#D7DDE2"/>
<path d="M1220.66 132.97H1173.4V275.64H1220.66V132.97Z" fill="#ECF2F7"/>
<path d="M1220.66 271.15H1173.4V275.65H1220.66V271.15Z" fill="#A9B2BD"/>
<path d="M1101.19 98.49H1062.02V275.64H1101.19V98.49Z" fill="#61BFFF"/>
<path d="M1072.44 98.49H1062.02V275.64H1072.44V98.49Z" fill="#8DD1FF"/>
<path d="M1086.82 98.49H1081.61V275.64H1086.82V98.49Z" fill="#8DD1FF"/>
<path d="M1101.19 94.16H1062.02V98.49H1101.19V94.16Z" fill="#339CED"/>
<path d="M1120.15 94.16H1101.19V275.65H1120.15V94.16Z" fill="#339CED"/>
<path d="M1120.15 94.16H1101.19V98.49H1120.15V94.16Z" fill="#1260B3"/>
<path d="M1120.15 123.15H1101.19V125.52H1120.15V123.15Z" fill="#61BFFF"/>
<path d="M1120.15 164.97H1062.02V167.34H1120.15V164.97Z" fill="#61BFFF"/>
<path d="M1120.15 206.8H1062.02V209.17H1120.15V206.8Z" fill="#61BFFF"/>
<path d="M1120.15 248.62H1062.02V250.99H1120.15V248.62Z" fill="#61BFFF"/>
<path d="M1101.19 162.89L1120.15 134.54V98.49H1101.19V162.89Z" fill="#339CED"/>
<path d="M1220.66 128.29H1173.4V132.97H1220.66V128.29Z" fill="#D7DDE2"/>
<path d="M1166.8 246.96H1126.75V271.15H1166.8V246.96Z" fill="#339CED"/>
<path d="M1166.8 251.29H1126.75V252.46H1166.8V251.29Z" fill="#61BFFF"/>
<path d="M1139.77 271.14V246.95H1138.6V271.14H1139.77Z" fill="#61BFFF"/>
<path d="M1154.94 271.14V246.95H1153.77V271.14H1154.94Z" fill="#61BFFF"/>
<path d="M1143.32 141.45H1126.75V145.29H1143.32V141.45Z" fill="#F8792F"/>
<path d="M1143.32 151.54H1126.75V155.38H1143.32V151.54Z" fill="#F8792F"/>
<path d="M1143.32 161.64H1126.75V165.48H1143.32V161.64Z" fill="#F8792F"/>
<path d="M1143.32 171.73H1126.75V175.57H1143.32V171.73Z" fill="#F8792F"/>
<path d="M1143.32 181.82H1126.75V185.66H1143.32V181.82Z" fill="#F8792F"/>
<path d="M1143.32 191.91H1126.75V195.75H1143.32V191.91Z" fill="#F8792F"/>
<path d="M1143.32 202H1126.75V205.84H1143.32V202Z" fill="#F8792F"/>
<path d="M1143.32 212.1H1126.75V215.94H1143.32V212.1Z" fill="#F8792F"/>
<path d="M1143.32 222.19H1126.75V226.03H1143.32V222.19Z" fill="#F8792F"/>
<path d="M1143.32 232.28H1126.75V236.12H1143.32V232.28Z" fill="#F8792F"/>
<path d="M1166.8 141.45H1150.23V145.29H1166.8V141.45Z" fill="#F8792F"/>
<path d="M1166.8 151.54H1150.23V155.38H1166.8V151.54Z" fill="#F8792F"/>
<path d="M1166.8 161.64H1150.23V165.48H1166.8V161.64Z" fill="#F8792F"/>
<path d="M1166.8 171.73H1150.23V175.57H1166.8V171.73Z" fill="#F8792F"/>
<path d="M1166.8 181.82H1150.23V185.66H1166.8V181.82Z" fill="#F8792F"/>
<path d="M1166.8 191.91H1150.23V195.75H1166.8V191.91Z" fill="#F8792F"/>
<path d="M1166.8 202H1150.23V205.84H1166.8V202Z" fill="#F8792F"/>
<path d="M1166.8 212.1H1150.23V215.94H1166.8V212.1Z" fill="#F8792F"/>
<path d="M1166.8 222.19H1150.23V226.03H1166.8V222.19Z" fill="#F8792F"/>
<path d="M1166.8 232.28H1150.23V236.12H1166.8V232.28Z" fill="#F8792F"/>
<path d="M1060.09 141.45H1043.52V145.29H1060.09V141.45Z" fill="#F8792F"/>
<path d="M1060.09 151.54H1043.52V155.38H1060.09V151.54Z" fill="#F8792F"/>
<path d="M1060.09 161.64H1043.52V165.48H1060.09V161.64Z" fill="#F8792F"/>
<path d="M1060.09 171.73H1043.52V175.57H1060.09V171.73Z" fill="#F8792F"/>
<path d="M1060.09 181.82H1043.52V185.66H1060.09V181.82Z" fill="#F8792F"/>
<path d="M1060.09 191.91H1043.52V195.75H1060.09V191.91Z" fill="#F8792F"/>
<path d="M1060.09 202H1043.52V205.84H1060.09V202Z" fill="#F8792F"/>
<path d="M1060.09 212.1H1043.52V215.94H1060.09V212.1Z" fill="#F8792F"/>
<path d="M1060.09 222.19H1043.52V226.03H1060.09V222.19Z" fill="#F8792F"/>
<path d="M1060.09 232.28H1043.52V236.12H1060.09V232.28Z" fill="#F8792F"/>
<path d="M1060.09 246.96H1043.52V271.15H1060.09V246.96Z" fill="#339CED"/>
<path d="M1047.45 246.96H1043.52V271.15H1047.45V246.96Z" fill="#339CED"/>
<path d="M1187.79 139.6H1180.68V264.29H1187.79V139.6Z" fill="#339CED"/>
<path d="M1187.79 149.06H1180.68V151.75H1187.79V149.06Z" fill="#61BFFF"/>
<path d="M1187.79 174.91H1180.68V177.6H1187.79V174.91Z" fill="#61BFFF"/>
<path d="M1187.79 200.77H1180.68V203.46H1187.79V200.77Z" fill="#61BFFF"/>
<path d="M1187.79 226.62H1180.68V229.31H1187.79V226.62Z" fill="#61BFFF"/>
<path d="M1187.79 252.48H1180.68V255.17H1187.79V252.48Z" fill="#61BFFF"/>
<path d="M1200.7 139.6H1193.59V264.29H1200.7V139.6Z" fill="#339CED"/>
<path d="M1200.7 149.06H1193.59V151.75H1200.7V149.06Z" fill="#61BFFF"/>
<path d="M1200.7 174.91H1193.59V177.6H1200.7V174.91Z" fill="#61BFFF"/>
<path d="M1200.7 200.77H1193.59V203.46H1200.7V200.77Z" fill="#61BFFF"/>
<path d="M1200.7 226.62H1193.59V229.31H1200.7V226.62Z" fill="#61BFFF"/>
<path d="M1200.7 252.48H1193.59V255.17H1200.7V252.48Z" fill="#61BFFF"/>
<path d="M1213.39 139.6H1206.28V264.29H1213.39V139.6Z" fill="#339CED"/>
<path d="M1213.39 149.06H1206.28V151.75H1213.39V149.06Z" fill="#61BFFF"/>
<path d="M1213.39 174.91H1206.28V177.6H1213.39V174.91Z" fill="#61BFFF"/>
<path d="M1213.39 200.77H1206.28V203.46H1213.39V200.77Z" fill="#61BFFF"/>
<path d="M1213.39 226.62H1206.28V229.31H1213.39V226.62Z" fill="#61BFFF"/>
<path d="M1213.39 252.48H1206.28V255.17H1213.39V252.48Z" fill="#61BFFF"/>
<path d="M1180.3 264.47H1178.47V275.69H1180.3V264.47Z" fill="#582514"/>
<path d="M1182.88 251.81C1182.88 260.78 1181.32 268.04 1179.39 268.04C1177.46 268.04 1175.9 260.77 1175.9 251.81C1175.9 242.85 1177.46 235.58 1179.39 235.58C1181.32 235.58 1182.88 242.85 1182.88 251.81Z" fill="#22742A"/>
<path d="M1050.17 264.47H1048.34V275.69H1050.17V264.47Z" fill="#582514"/>
<path d="M1049.26 268.04C1051.19 268.04 1052.75 260.774 1052.75 251.81C1052.75 242.846 1051.19 235.58 1049.26 235.58C1047.33 235.58 1045.77 242.846 1045.77 251.81C1045.77 260.774 1047.33 268.04 1049.26 268.04Z" fill="#22742A"/>
<path d="M1196.49 264.47H1194.66V275.69H1196.49V264.47Z" fill="#582514"/>
<path d="M1199.06 251.81C1199.06 260.78 1197.5 268.04 1195.57 268.04C1193.64 268.04 1192.08 260.77 1192.08 251.81C1192.08 242.85 1193.64 235.58 1195.57 235.58C1197.5 235.58 1199.06 242.85 1199.06 251.81Z" fill="#22742A"/>
<path d="M1212.67 264.47H1210.84V275.69H1212.67V264.47Z" fill="#582514"/>
<path d="M1215.24 251.81C1215.24 260.78 1213.68 268.04 1211.75 268.04C1209.82 268.04 1208.26 260.77 1208.26 251.81C1208.26 242.85 1209.82 235.58 1211.75 235.58C1213.68 235.58 1215.24 242.85 1215.24 251.81Z" fill="#22742A"/>
<path d="M1230.19 281.85H1032.08C1030.38 281.85 1029 280.47 1029 278.77C1029 277.07 1030.38 275.69 1032.08 275.69H1230.19C1231.89 275.69 1233.27 277.07 1233.27 278.77C1233.27 280.47 1231.89 281.85 1230.19 281.85Z" fill="#288A32"/>
<path d="M1204.66 270.08C1201.56 270.08 1199.05 272.59 1199.05 275.69H1210.26C1210.26 272.59 1207.75 270.08 1204.65 270.08H1204.66Z" fill="#288A32"/>
<path d="M1212.27 272.54C1210.53 272.54 1209.13 273.95 1209.13 275.68H1215.42C1215.42 273.94 1214.01 272.54 1212.28 272.54H1212.27Z" fill="#288A32"/>
<path d="M1218.29 274.11C1217.42 274.11 1216.72 274.81 1216.72 275.68H1219.86C1219.86 274.81 1219.16 274.11 1218.29 274.11Z" fill="#288A32"/>
<path d="M1223.58 272.75C1221.96 272.75 1220.65 274.06 1220.65 275.68H1226.51C1226.51 274.06 1225.2 272.75 1223.58 272.75Z" fill="#288A32"/>
<path d="M1045.13 271.96C1043.27 271.96 1041.76 273.63 1041.76 275.68H1048.49C1048.49 273.62 1046.98 271.96 1045.12 271.96H1045.13Z" fill="#288A32"/>
<path d="M1049.26 273.45C1048.03 273.45 1047.03 274.45 1047.03 275.68H1051.48C1051.48 274.45 1050.48 273.45 1049.25 273.45H1049.26Z" fill="#288A32"/>
<path d="M1053.87 271.53C1052.28 271.53 1050.99 273.39 1050.99 275.68H1056.76C1056.76 273.39 1055.47 271.53 1053.88 271.53H1053.87Z" fill="#288A32"/>
<path d="M1120.77 271.11C1118.21 271.11 1116.13 273.19 1116.13 275.75H1125.41C1125.41 273.19 1123.33 271.11 1120.77 271.11Z" fill="#288A32"/>
<path d="M1127.2 273.43C1125.92 273.43 1124.88 274.47 1124.88 275.75H1129.52C1129.52 274.47 1128.48 273.43 1127.2 273.43Z" fill="#288A32"/>
</g>
<path d="M300.536 148.182H133.186V281.16H300.536V148.182Z" fill="#D18B5E"/>
<path d="M199.161 152.126H168.467V156.071H199.161V152.126Z" fill="#FAD2AE"/>
<path d="M232.341 152.126H201.646V156.071H232.341V152.126Z" fill="#FAD2AE"/>
<path d="M265.507 152.126H234.812V156.071H265.507V152.126Z" fill="#FAD2AE"/>
<path d="M171.071 148.182H133.186V281.16H171.071V148.182Z" fill="#F1B187"/>
<path d="M300.537 148.182H262.638V281.16H300.537V148.182Z" fill="#F1B187"/>
<path d="M171.071 265.407H133.186V281.16H171.071V265.407Z" fill="#A7A7A7"/>
<path d="M300.537 265.407H262.638V281.16H300.537V265.407Z" fill="#A7A7A7"/>
<path d="M196.61 173.073H185.255V188.195H196.61V173.073Z" fill="#616161"/>
<path d="M182.241 170.023C182.241 170.023 182.241 170.062 182.241 170.075C182.241 171.798 183.642 173.205 185.387 173.205H196.703C198.448 173.205 199.849 171.798 199.849 170.075C199.849 170.062 199.849 170.036 199.849 170.023H182.254H182.241Z" fill="#FAD2AE"/>
<path d="M182.241 187.774V187.827C182.241 189.549 183.642 190.956 185.374 190.956H196.689C198.434 190.956 199.836 189.549 199.836 187.827V187.774H182.241Z" fill="#FAD2AE"/>
<path d="M191.561 172.153H190.278V188.063H191.561V172.153Z" fill="#FAD2AE"/>
<path d="M192.896 168.458C192.896 169.484 192.063 170.312 191.045 170.312C190.027 170.312 189.181 169.484 189.181 168.458C189.181 167.432 190.014 166.617 191.045 166.617C192.076 166.617 192.896 167.445 192.896 168.458Z" fill="#FAD2AE"/>
<path d="M222.849 173.073H211.494V188.195H222.849V173.073Z" fill="#616161"/>
<path d="M208.48 170.023C208.48 170.023 208.48 170.062 208.48 170.075C208.48 171.798 209.895 173.205 211.627 173.205H222.942C224.687 173.205 226.088 171.798 226.088 170.075C226.088 170.062 226.088 170.036 226.088 170.023H208.494H208.48Z" fill="#FAD2AE"/>
<path d="M208.48 187.774V187.827C208.48 189.549 209.882 190.956 211.627 190.956H222.942C224.687 190.956 226.088 189.549 226.088 187.827V187.774H208.48Z" fill="#FAD2AE"/>
<path d="M217.813 172.153H216.531V188.063H217.813V172.153Z" fill="#FAD2AE"/>
<path d="M219.135 168.458C219.135 169.484 218.302 170.312 217.271 170.312C216.24 170.312 215.42 169.484 215.42 168.458C215.42 167.432 216.253 166.617 217.271 166.617C218.289 166.617 219.135 167.445 219.135 168.458Z" fill="#FAD2AE"/>
<path d="M196.61 202.869H185.255V218.004H196.61V202.869Z" fill="#43403D"/>
<path d="M182.241 199.819C182.241 199.819 182.241 199.858 182.241 199.871C182.241 201.594 183.642 203.001 185.387 203.001H196.703C198.448 203.001 199.849 201.594 199.849 199.871C199.849 199.858 199.849 199.832 199.849 199.819H182.254H182.241Z" fill="#FAD2AE"/>
<path d="M182.241 217.57V217.623C182.241 219.359 183.642 220.752 185.374 220.752H196.689C198.434 220.752 199.836 219.345 199.836 217.623V217.57H182.241Z" fill="#FAD2AE"/>
<path d="M191.561 201.949H190.278V217.86H191.561V201.949Z" fill="#FAD2AE"/>
<path d="M192.896 198.254C192.896 199.28 192.063 200.108 191.045 200.108C190.027 200.108 189.181 199.28 189.181 198.254C189.181 197.228 190.014 196.4 191.045 196.4C192.076 196.4 192.896 197.228 192.896 198.254Z" fill="#FAD2AE"/>
<path d="M222.849 202.869H211.494V218.004H222.849V202.869Z" fill="#43403D"/>
<path d="M208.48 199.819C208.48 199.819 208.48 199.858 208.48 199.871C208.48 201.594 209.895 203.001 211.627 203.001H222.942C224.687 203.001 226.088 201.594 226.088 199.871C226.088 199.858 226.088 199.832 226.088 199.819H208.494H208.48Z" fill="#FAD2AE"/>
<path d="M208.48 217.57V217.623C208.48 219.359 209.882 220.752 211.627 220.752H222.942C224.687 220.752 226.088 219.345 226.088 217.623V217.57H208.48Z" fill="#FAD2AE"/>
<path d="M217.813 201.949H216.531V217.86H217.813V201.949Z" fill="#FAD2AE"/>
<path d="M219.135 198.254C219.135 199.28 218.302 200.108 217.271 200.108C216.24 200.108 215.42 199.28 215.42 198.254C215.42 197.228 216.253 196.4 217.271 196.4C218.289 196.4 219.135 197.228 219.135 198.254Z" fill="#FAD2AE"/>
<path d="M248.243 173.073H236.888V188.195H248.243V173.073Z" fill="#616161"/>
<path d="M233.874 170.023C233.874 170.023 233.874 170.062 233.874 170.075C233.874 171.798 235.288 173.205 237.02 173.205H248.335C250.067 173.205 251.482 171.798 251.482 170.075C251.482 170.062 251.482 170.036 251.482 170.023H233.887H233.874Z" fill="#FAD2AE"/>
<path d="M233.874 187.774V187.827C233.874 189.549 235.275 190.956 237.02 190.956H248.335C250.067 190.956 251.482 189.549 251.482 187.827V187.774H233.874Z" fill="#FAD2AE"/>
<path d="M243.207 172.153H241.924V188.063H243.207V172.153Z" fill="#FAD2AE"/>
<path d="M244.528 168.458C244.528 169.484 243.696 170.312 242.678 170.312C241.66 170.312 240.814 169.484 240.814 168.458C240.814 167.432 241.647 166.617 242.678 166.617C243.709 166.617 244.528 167.445 244.528 168.458Z" fill="#FAD2AE"/>
<path d="M248.243 202.869H236.888V218.004H248.243V202.869Z" fill="#43403D"/>
<path d="M233.874 199.819C233.874 199.819 233.874 199.858 233.874 199.871C233.874 201.594 235.288 203.001 237.02 203.001H248.335C250.067 203.001 251.482 201.594 251.482 199.871C251.482 199.858 251.482 199.832 251.482 199.819H233.887H233.874Z" fill="#FAD2AE"/>
<path d="M233.874 217.57V217.623C233.874 219.359 235.275 220.752 237.02 220.752H248.335C250.067 220.752 251.482 219.345 251.482 217.623V217.57H233.874Z" fill="#FAD2AE"/>
<path d="M243.207 201.949H241.924V217.86H243.207V201.949Z" fill="#FAD2AE"/>
<path d="M244.528 198.254C244.528 199.28 243.696 200.108 242.678 200.108C241.66 200.108 240.814 199.28 240.814 198.254C240.814 197.228 241.647 196.4 242.678 196.4C243.709 196.4 244.528 197.228 244.528 198.254Z" fill="#FAD2AE"/>
<path d="M196.61 202.869H185.255V218.004H196.61V202.869Z" fill="#616161"/>
<path d="M182.241 199.819C182.241 199.819 182.241 199.858 182.241 199.871C182.241 201.594 183.642 203.001 185.387 203.001H196.703C198.448 203.001 199.849 201.594 199.849 199.871C199.849 199.858 199.849 199.832 199.849 199.819H182.254H182.241Z" fill="#FAD2AE"/>
<path d="M182.241 217.57V217.623C182.241 219.359 183.642 220.752 185.374 220.752H196.689C198.434 220.752 199.836 219.345 199.836 217.623V217.57H182.241Z" fill="#FAD2AE"/>
<path d="M191.561 201.949H190.278V217.86H191.561V201.949Z" fill="#FAD2AE"/>
<path d="M192.896 198.254C192.896 199.28 192.063 200.108 191.045 200.108C190.027 200.108 189.181 199.28 189.181 198.254C189.181 197.228 190.014 196.4 191.045 196.4C192.076 196.4 192.896 197.228 192.896 198.254Z" fill="#FAD2AE"/>
<path d="M222.849 202.869H211.494V218.004H222.849V202.869Z" fill="#616161"/>
<path d="M208.48 199.819C208.48 199.819 208.48 199.858 208.48 199.871C208.48 201.594 209.895 203.001 211.627 203.001H222.942C224.687 203.001 226.088 201.594 226.088 199.871C226.088 199.858 226.088 199.832 226.088 199.819H208.494H208.48Z" fill="#FAD2AE"/>
<path d="M208.48 217.57V217.623C208.48 219.359 209.882 220.752 211.627 220.752H222.942C224.687 220.752 226.088 219.345 226.088 217.623V217.57H208.48Z" fill="#FAD2AE"/>
<path d="M217.813 201.949H216.531V217.86H217.813V201.949Z" fill="#FAD2AE"/>
<path d="M219.135 198.254C219.135 199.28 218.302 200.108 217.271 200.108C216.24 200.108 215.42 199.28 215.42 198.254C215.42 197.228 216.253 196.4 217.271 196.4C218.289 196.4 219.135 197.228 219.135 198.254Z" fill="#FAD2AE"/>
<path d="M248.243 202.869H236.888V218.004H248.243V202.869Z" fill="#616161"/>
<path d="M233.874 199.819C233.874 199.819 233.874 199.858 233.874 199.871C233.874 201.594 235.288 203.001 237.02 203.001H248.335C250.067 203.001 251.482 201.594 251.482 199.871C251.482 199.858 251.482 199.832 251.482 199.819H233.887H233.874Z" fill="#FAD2AE"/>
<path d="M233.874 217.57V217.623C233.874 219.359 235.275 220.752 237.02 220.752H248.335C250.067 220.752 251.482 219.345 251.482 217.623V217.57H233.874Z" fill="#FAD2AE"/>
<path d="M243.207 201.949H241.924V217.86H243.207V201.949Z" fill="#FAD2AE"/>
<path d="M244.528 198.254C244.528 199.28 243.696 200.108 242.678 200.108C241.66 200.108 240.814 199.28 240.814 198.254C240.814 197.228 241.647 196.4 242.678 196.4C243.709 196.4 244.528 197.228 244.528 198.254Z" fill="#FAD2AE"/>
<path d="M287.145 173.073H275.804V188.195H287.145V173.073Z" fill="#43403D"/>
<path d="M272.79 187.774V187.827C272.79 189.549 274.191 190.956 275.936 190.956H287.251C288.996 190.956 290.398 189.549 290.398 187.827V187.774H272.803H272.79Z" fill="#FAD2AE"/>
<path d="M282.109 172.153H280.827V188.063H282.109V172.153Z" fill="#FAD2AE"/>
<path d="M283.444 168.458C283.444 169.484 282.612 170.312 281.594 170.312C280.576 170.312 279.73 169.484 279.73 168.458C279.73 167.432 280.563 166.617 281.594 166.617C282.625 166.617 283.444 167.445 283.444 168.458Z" fill="#F5F5F5"/>
<path d="M272.79 170.023C272.79 170.023 272.79 170.062 272.79 170.075C272.79 171.798 274.204 173.205 275.936 173.205H287.251C288.996 173.205 290.398 171.798 290.398 170.075V170.023H272.803H272.79Z" fill="#F5F5F5"/>
<path d="M287.145 202.869H275.804V218.004H287.145V202.869Z" fill="#43403D"/>
<path d="M272.79 217.57V217.623C272.79 219.359 274.191 220.752 275.936 220.752H287.251C288.996 220.752 290.398 219.345 290.398 217.623V217.57H272.803H272.79Z" fill="#FAD2AE"/>
<path d="M282.109 201.949H280.827V217.86H282.109V201.949Z" fill="#FAD2AE"/>
<path d="M283.444 198.254C283.444 199.28 282.612 200.108 281.594 200.108C280.576 200.108 279.73 199.28 279.73 198.254C279.73 197.228 280.563 196.4 281.594 196.4C282.625 196.4 283.444 197.228 283.444 198.254Z" fill="#F5F5F5"/>
<path d="M272.79 199.819C272.79 199.819 272.79 199.858 272.79 199.871C272.79 201.594 274.204 203.001 275.936 203.001H287.251C288.996 203.001 290.398 201.594 290.398 199.871V199.819H272.803H272.79Z" fill="#F5F5F5"/>
<path d="M287.145 233.402H275.804V248.524H287.145V233.402Z" fill="#43403D"/>
<path d="M272.79 248.103V248.169C272.79 249.891 274.191 251.298 275.936 251.298H287.251C288.996 251.298 290.398 249.891 290.398 248.169V248.103H272.803H272.79Z" fill="#FAD2AE"/>
<path d="M282.109 232.482H280.827V248.392H282.109V232.482Z" fill="#FAD2AE"/>
<path d="M283.444 228.787C283.444 229.799 282.612 230.628 281.594 230.628C280.576 230.628 279.73 229.799 279.73 228.787C279.73 227.774 280.563 226.946 281.594 226.946C282.625 226.946 283.444 227.774 283.444 228.787Z" fill="#F5F5F5"/>
<path d="M272.79 230.351C272.79 230.351 272.79 230.391 272.79 230.417C272.79 232.153 274.204 233.547 275.936 233.547H287.251C288.996 233.547 290.398 232.153 290.398 230.417V230.351H272.803H272.79Z" fill="#F5F5F5"/>
<path d="M157.693 173.073H146.338V188.195H157.693V173.073Z" fill="#43403D"/>
<path d="M143.325 187.774V187.827C143.325 189.549 144.726 190.956 146.471 190.956H157.786C159.518 190.956 160.932 189.549 160.932 187.827V187.774H143.325Z" fill="#FAD2AE"/>
<path d="M152.657 172.153H151.375V188.063H152.657V172.153Z" fill="#FAD2AE"/>
<path d="M153.979 168.458C153.979 169.484 153.146 170.312 152.129 170.312C151.111 170.312 150.265 169.484 150.265 168.458C150.265 167.432 151.097 166.617 152.129 166.617C153.16 166.617 153.979 167.445 153.979 168.458Z" fill="#F5F5F5"/>
<path d="M143.325 170.023C143.325 170.023 143.325 170.062 143.325 170.075C143.325 171.798 144.739 173.205 146.471 173.205H157.786C159.518 173.205 160.932 171.798 160.932 170.075C160.932 170.062 160.932 170.036 160.932 170.023H143.338H143.325Z" fill="#F5F5F5"/>
<path d="M157.693 202.869H146.338V218.004H157.693V202.869Z" fill="#43403D"/>
<path d="M143.325 217.57V217.623C143.325 219.359 144.726 220.752 146.471 220.752H157.786C159.518 220.752 160.932 219.345 160.932 217.623V217.57H143.325Z" fill="#FAD2AE"/>
<path d="M152.657 201.949H151.375V217.86H152.657V201.949Z" fill="#FAD2AE"/>
<path d="M153.979 198.254C153.979 199.28 153.146 200.108 152.129 200.108C151.111 200.108 150.265 199.28 150.265 198.254C150.265 197.228 151.097 196.4 152.129 196.4C153.16 196.4 153.979 197.228 153.979 198.254Z" fill="#F5F5F5"/>
<path d="M143.325 199.819C143.325 199.819 143.325 199.858 143.325 199.871C143.325 201.594 144.739 203.001 146.471 203.001H157.786C159.518 203.001 160.932 201.594 160.932 199.871C160.932 199.858 160.932 199.832 160.932 199.819H143.338H143.325Z" fill="#F5F5F5"/>
<path d="M157.693 233.402H146.338V248.524H157.693V233.402Z" fill="#43403D"/>
<path d="M143.325 248.103V248.169C143.325 249.891 144.726 251.298 146.471 251.298H157.786C159.518 251.298 160.932 249.891 160.932 248.169V248.103H143.325Z" fill="#FAD2AE"/>
<path d="M152.657 232.482H151.375V248.392H152.657V232.482Z" fill="#FAD2AE"/>
<path d="M153.979 228.787C153.979 229.799 153.146 230.628 152.129 230.628C151.111 230.628 150.265 229.799 150.265 228.787C150.265 227.774 151.097 226.946 152.129 226.946C153.16 226.946 153.979 227.774 153.979 228.787Z" fill="#F5F5F5"/>
<path d="M143.325 230.351C143.325 230.351 143.325 230.391 143.325 230.417C143.325 232.153 144.739 233.547 146.471 233.547H157.786C159.518 233.547 160.932 232.153 160.932 230.417C160.932 230.404 160.932 230.378 160.932 230.351H143.338H143.325Z" fill="#F5F5F5"/>
<path d="M167.475 152.126H136.781V156.071H167.475V152.126Z" fill="#F5F5F5"/>
<path d="M296.928 152.126H266.234V156.071H296.928V152.126Z" fill="#F5F5F5"/>
<path d="M262.413 229.944H171.058V281.173H262.413V229.944Z" fill="#F5F5F5"/>
<path d="M130 141.252L304 141.16V144.539C304 146.643 302.282 148.432 300.18 148.432H133.833C131.718 148.432 130 146.735 130 144.645V141.252Z" fill="#C4C4C4"/>
<path d="M133.833 148.432H300.18C302.057 148.432 303.603 147.103 303.934 145.328H130.066C130.396 147.09 131.943 148.432 133.82 148.432H133.833Z" fill="#D18B5E"/>
<path d="M130 143.382H304V141.16L130 141.252V143.382Z" fill="#90432C"/>
<path d="M168.56 229.878L265.269 229.812V232.232C265.269 233.731 264.039 235.019 262.533 235.019H171.296C169.789 235.019 168.56 233.796 168.56 232.297V229.878Z" fill="#F5F5F5"/>
<path d="M171.296 235.006H262.546C263.881 235.006 264.991 234.046 265.229 232.784H168.612C168.85 234.046 169.961 235.006 171.296 235.006Z" fill="#C7C7C7"/>
<path d="M168.56 231.403H265.282V229.812L168.56 229.878V231.403Z" fill="#747474"/>
<path d="M260.444 234.875H172.79V265.407H260.444V234.875Z" fill="#C4C4C4"/>
<path d="M189.379 242.514H178.024V257.636H189.379V242.514Z" fill="#43403D"/>
<path d="M175.01 239.464C175.01 239.464 175.01 239.503 175.01 239.516C175.01 241.239 176.425 242.646 178.156 242.646H189.472C191.203 242.646 192.618 241.239 192.618 239.516C192.618 239.503 192.618 239.477 192.618 239.464H175.023H175.01Z" fill="#FAD2AE"/>
<path d="M175.01 257.228C175.01 257.228 175.01 257.268 175.01 257.281C175.01 259.004 176.425 260.411 178.156 260.411H189.472C191.203 260.411 192.618 259.004 192.618 257.281C192.618 257.268 192.618 257.242 192.618 257.228H175.023H175.01Z" fill="#FAD2AE"/>
<path d="M184.343 241.594H183.061V257.505H184.343V241.594Z" fill="#FAD2AE"/>
<path d="M185.665 237.899C185.665 238.925 184.832 239.74 183.814 239.74C182.796 239.74 181.963 238.911 181.963 237.899C181.963 236.887 182.796 236.058 183.814 236.058C184.832 236.058 185.665 236.887 185.665 237.899Z" fill="#FAD2AE"/>
<path d="M254.733 242.514H243.378V257.636H254.733V242.514Z" fill="#43403D"/>
<path d="M240.364 239.464C240.364 239.464 240.364 239.503 240.364 239.516C240.364 241.239 241.779 242.646 243.51 242.646H254.826C256.571 242.646 257.972 241.239 257.972 239.516C257.972 239.503 257.972 239.477 257.972 239.464H240.364Z" fill="#FAD2AE"/>
<path d="M240.364 257.228C240.364 257.228 240.364 257.268 240.364 257.281C240.364 259.004 241.779 260.411 243.51 260.411H254.826C256.571 260.411 257.972 259.004 257.972 257.281C257.972 257.268 257.972 257.242 257.972 257.228H240.364Z" fill="#FAD2AE"/>
<path d="M249.697 241.594H248.415V257.505H249.697V241.594Z" fill="#FAD2AE"/>
<path d="M251.032 237.899C251.032 238.925 250.199 239.74 249.168 239.74C248.137 239.74 247.317 238.911 247.317 237.899C247.317 236.887 248.15 236.058 249.168 236.058C250.186 236.058 251.032 236.887 251.032 237.899Z" fill="#FAD2AE"/>
<path d="M237.655 265.407H195.817V270.575H237.655V265.407Z" fill="#C4C4C4"/>
<path opacity="0.64" d="M237.655 270.575H195.817V275.743H237.655V270.575Z" fill="#C4C4C4"/>
<path opacity="0.32" d="M237.655 275.743H195.817V280.91H237.655V275.743Z" fill="#C4C4C4"/>
<path d="M174.045 260.976C174.045 263.698 173.094 265.907 171.944 265.907C170.794 265.907 169.842 263.698 169.842 260.976C169.842 258.254 170.78 256.058 171.944 256.058C173.107 256.058 174.045 258.254 174.045 260.976Z" fill="#F5F5F5"/>
<path d="M173.675 255.059C173.675 256.006 172.895 256.781 171.944 256.781C170.992 256.781 170.212 256.006 170.212 255.059C170.212 254.112 170.992 253.336 171.944 253.336C172.895 253.336 173.675 254.112 173.675 255.059Z" fill="#F5F5F5"/>
<path d="M179.743 260.976C179.743 263.698 178.804 265.907 177.641 265.907C176.478 265.907 175.539 263.698 175.539 260.976C175.539 258.254 176.478 256.058 177.641 256.058C178.804 256.058 179.743 258.254 179.743 260.976Z" fill="#F5F5F5"/>
<path d="M177.641 256.781C178.597 256.781 179.373 256.01 179.373 255.059C179.373 254.107 178.597 253.336 177.641 253.336C176.684 253.336 175.909 254.107 175.909 255.059C175.909 256.01 176.684 256.781 177.641 256.781Z" fill="#F5F5F5"/>
<path d="M185.427 260.976C185.427 263.698 184.488 265.907 183.325 265.907C182.162 265.907 181.223 263.698 181.223 260.976C181.223 258.254 182.162 256.058 183.325 256.058C184.488 256.058 185.427 258.254 185.427 260.976Z" fill="#F5F5F5"/>
<path d="M185.057 255.059C185.057 256.006 184.277 256.781 183.325 256.781C182.373 256.781 181.593 256.006 181.593 255.059C181.593 254.112 182.373 253.336 183.325 253.336C184.277 253.336 185.057 254.112 185.057 255.059Z" fill="#F5F5F5"/>
<path d="M191.124 260.976C191.124 263.698 190.185 265.907 189.022 265.907C187.859 265.907 186.92 263.698 186.92 260.976C186.92 258.254 187.859 256.058 189.022 256.058C190.185 256.058 191.124 258.254 191.124 260.976Z" fill="#F5F5F5"/>
<path d="M189.022 256.781C189.979 256.781 190.754 256.01 190.754 255.059C190.754 254.107 189.979 253.336 189.022 253.336C188.066 253.336 187.291 254.107 187.291 255.059C187.291 256.01 188.066 256.781 189.022 256.781Z" fill="#F5F5F5"/>
<path d="M196.821 260.976C196.821 263.698 195.883 265.907 194.719 265.907C193.556 265.907 192.618 263.698 192.618 260.976C192.618 258.254 193.556 256.058 194.719 256.058C195.883 256.058 196.821 258.254 196.821 260.976Z" fill="#F5F5F5"/>
<path d="M196.451 255.059C196.451 256.006 195.671 256.781 194.719 256.781C193.768 256.781 192.988 256.006 192.988 255.059C192.988 254.112 193.768 253.336 194.719 253.336C195.671 253.336 196.451 254.112 196.451 255.059Z" fill="#F5F5F5"/>
<path d="M240.893 260.976C240.893 263.698 239.955 265.907 238.791 265.907C237.628 265.907 236.689 263.698 236.689 260.976C236.689 258.254 237.628 256.058 238.791 256.058C239.955 256.058 240.893 258.254 240.893 260.976Z" fill="#F5F5F5"/>
<path d="M240.51 255.059C240.51 256.006 239.743 256.781 238.778 256.781C237.813 256.781 237.046 256.006 237.046 255.059C237.046 254.112 237.826 253.336 238.778 253.336C239.73 253.336 240.51 254.112 240.51 255.059Z" fill="#F5F5F5"/>
<path d="M246.577 260.976C246.577 263.698 245.639 265.907 244.475 265.907C243.312 265.907 242.374 263.698 242.374 260.976C242.374 258.254 243.312 256.058 244.475 256.058C245.639 256.058 246.577 258.254 246.577 260.976Z" fill="#F5F5F5"/>
<path d="M246.207 255.059C246.207 256.006 245.427 256.781 244.475 256.781C243.524 256.781 242.744 256.006 242.744 255.059C242.744 254.112 243.51 253.336 244.475 253.336C245.44 253.336 246.207 254.112 246.207 255.059Z" fill="#F5F5F5"/>
<path d="M252.274 260.976C252.274 263.698 251.336 265.907 250.173 265.907C249.009 265.907 248.071 263.698 248.071 260.976C248.071 258.254 249.009 256.058 250.173 256.058C251.336 256.058 252.274 258.254 252.274 260.976Z" fill="#F5F5F5"/>
<path d="M251.904 255.059C251.904 256.006 251.124 256.781 250.173 256.781C249.221 256.781 248.441 256.006 248.441 255.059C248.441 254.112 249.221 253.336 250.173 253.336C251.124 253.336 251.904 254.112 251.904 255.059Z" fill="#F5F5F5"/>
<path d="M257.958 260.976C257.958 263.698 257.02 265.907 255.857 265.907C254.693 265.907 253.755 263.698 253.755 260.976C253.755 258.254 254.693 256.058 255.857 256.058C257.02 256.058 257.958 258.254 257.958 260.976Z" fill="#F5F5F5"/>
<path d="M255.857 256.781C256.813 256.781 257.588 256.01 257.588 255.059C257.588 254.107 256.813 253.336 255.857 253.336C254.9 253.336 254.125 254.107 254.125 255.059C254.125 256.01 254.9 256.781 255.857 256.781Z" fill="#F5F5F5"/>
<path d="M263.656 260.976C263.656 263.698 262.717 265.907 261.554 265.907C260.391 265.907 259.452 263.698 259.452 260.976C259.452 258.254 260.391 256.058 261.554 256.058C262.717 256.058 263.656 258.254 263.656 260.976Z" fill="#F5F5F5"/>
<path d="M263.286 255.059C263.286 256.006 262.519 256.781 261.554 256.781C260.589 256.781 259.822 256.006 259.822 255.059C259.822 254.112 260.602 253.336 261.554 253.336C262.506 253.336 263.286 254.112 263.286 255.059Z" fill="#F5F5F5"/>
<path d="M263.524 252.35C263.524 253.021 262.969 253.586 262.295 253.586H237.298C236.61 253.586 236.055 253.034 236.055 252.35C236.055 251.666 236.61 251.114 237.298 251.114H262.295C262.969 251.114 263.524 251.666 263.524 252.35Z" fill="#F5F5F5"/>
<path d="M198.434 252.35C198.434 253.021 197.879 253.586 197.205 253.586H170.952C170.265 253.586 169.723 253.034 169.723 252.35C169.723 251.666 170.278 251.114 170.952 251.114H197.205C197.892 251.114 198.434 251.666 198.434 252.35Z" fill="#F5F5F5"/>
<path d="M224.647 245.565C223.828 243.422 221.752 241.896 219.307 241.896H213.927C211.495 241.896 209.406 243.422 208.586 245.565H224.647Z" fill="#494949"/>
<path d="M224.581 246.893H208.666V265.355H224.581V246.893Z" fill="#616161"/>
<path d="M224.568 246.893H216.583V265.355H224.568V246.893Z" fill="#545454"/>
<path d="M206.114 265.407V247.117C206.114 243.093 209.406 239.819 213.451 239.819H219.783C223.828 239.819 227.119 243.093 227.119 247.117V265.407H230.067V247.117C230.067 241.476 225.454 236.887 219.783 236.887H213.451C207.767 236.887 203.167 241.476 203.167 247.117V265.407H206.114Z" fill="#F5F5F5"/>
<path d="M206.709 265.407V247.117C206.709 243.409 209.723 240.424 213.451 240.424H219.783C223.51 240.424 226.524 243.422 226.524 247.117V265.407H228.6V247.117C228.6 242.278 224.647 238.346 219.796 238.346H213.464C208.599 238.346 204.647 242.278 204.647 247.117V265.407H206.722H206.709Z" fill="#D6D6D6"/>
<path d="M218.897 256.387C218.897 256.808 218.553 257.15 218.13 257.15C217.707 257.15 217.364 256.808 217.364 256.387C217.364 255.966 217.707 255.624 218.13 255.624C218.553 255.624 218.897 255.966 218.897 256.387Z" fill="#80776D"/>
<path d="M217.271 241.896H215.962V245.565H217.271V241.896Z" fill="#545454"/>
<path d="M172.975 232.416H171.098V251.627H172.975V232.416Z" fill="#F5F5F5"/>
<path d="M195.817 232.416H193.939V251.627H195.817V232.416Z" fill="#F5F5F5"/>
<path d="M239.624 232.416H237.747V251.627H239.624V232.416Z" fill="#F5F5F5"/>
<path d="M262.281 232.416H260.404V251.627H262.281V232.416Z" fill="#F5F5F5"/>
<g clip-path="url(#clip2_271_1808)">
<path d="M608.214 279.151H604.797C604.506 279.151 604.274 278.92 604.274 278.632C604.274 278.343 604.506 278.112 604.797 278.112H608.214C608.505 278.112 608.737 278.343 608.737 278.632C608.737 278.92 608.505 279.151 608.214 279.151Z" fill="black"/>
<path d="M608.947 279.948H604.053C603.763 279.948 603.53 279.717 603.53 279.428C603.53 279.14 603.763 278.909 604.053 278.909H608.947C609.237 278.909 609.47 279.14 609.47 279.428C609.47 279.717 609.237 279.948 608.947 279.948Z" fill="black"/>
<path d="M607.006 217.649H606.134C606.134 216.344 606.762 215.132 607.889 214.254C608.866 213.492 610.179 213.042 611.388 213.042V213.908C610.365 213.908 609.249 214.289 608.424 214.947C607.506 215.663 607.006 216.621 607.006 217.66V217.649Z" fill="#676766"/>
<path d="M609.912 214.554C609.726 215.709 612.724 215.928 615.735 215.674C618.745 215.42 621.023 215.028 621 213.111C620.977 211.206 618.269 210.987 615.27 211.241C612.259 211.495 610.156 213.007 609.912 214.554Z" fill="#8E8E8E"/>
<path d="M620.593 214.3C619.815 215.224 617.978 215.49 615.723 215.674C613.48 215.859 611.248 215.79 610.33 215.259C611.202 214.231 612.899 213.4 615.061 213.215C617.583 213.007 619.908 213.123 620.593 214.3Z" fill="#FAAE21"/>
<path d="M617.467 213.146C617.188 214.058 616.281 214.728 615.212 214.739C614.305 214.739 613.503 214.289 613.108 213.596C613.701 213.411 614.363 213.284 615.072 213.227C615.909 213.157 616.734 213.123 617.478 213.146H617.467Z" fill="white"/>
<path d="M605.995 217.649H606.866C606.866 216.344 606.239 215.132 605.111 214.254C604.135 213.492 602.822 213.042 601.613 213.042V213.908C602.636 213.908 603.751 214.289 604.577 214.947C605.495 215.663 605.995 216.621 605.995 217.66V217.649Z" fill="#676766"/>
<path d="M603.089 214.554C603.275 215.709 600.276 215.928 597.266 215.674C594.255 215.42 591.977 215.028 592 213.123C592.023 211.206 594.732 210.998 597.73 211.241C600.729 211.483 602.845 213.007 603.089 214.554Z" fill="#8E8E8E"/>
<path d="M592.396 214.3C593.174 215.224 595.011 215.49 597.266 215.674C599.509 215.859 601.741 215.79 602.659 215.259C601.787 214.231 600.09 213.4 597.928 213.215C595.406 213.007 593.081 213.123 592.396 214.3Z" fill="#FAAE21"/>
<path d="M595.534 213.146C595.813 214.058 596.719 214.728 597.789 214.739C598.695 214.739 599.497 214.289 599.892 213.596C599.3 213.411 598.637 213.284 597.928 213.227C597.091 213.157 596.266 213.123 595.522 213.146H595.534Z" fill="white"/>
<path d="M607.541 278.412H605.46L605.902 217.706H607.099L607.541 278.412Z" fill="black"/>
<path d="M610.853 281.16C610.771 280.375 610.341 279.763 609.818 279.763H603.181C602.658 279.763 602.228 280.363 602.147 281.16H610.853Z" fill="black"/>
<path d="M607.192 217.487H605.82C605.679 217.487 605.564 217.601 605.564 217.741V217.983C605.564 218.124 605.679 218.237 605.82 218.237H607.192C607.333 218.237 607.447 218.124 607.447 217.983V217.741C607.447 217.601 607.333 217.487 607.192 217.487Z" fill="#676766"/>
</g>
<g clip-path="url(#clip3_271_1808)">
<path d="M53.2142 279.151H49.797C49.5064 279.151 49.2739 278.92 49.2739 278.632C49.2739 278.343 49.5064 278.112 49.797 278.112H53.2142C53.5048 278.112 53.7373 278.343 53.7373 278.632C53.7373 278.92 53.5048 279.151 53.2142 279.151Z" fill="black"/>
<path d="M53.9467 279.948H49.0533C48.7627 279.948 48.5303 279.717 48.5303 279.428C48.5303 279.14 48.7627 278.909 49.0533 278.909H53.9467C54.2373 278.909 54.4698 279.14 54.4698 279.428C54.4698 279.717 54.2373 279.948 53.9467 279.948Z" fill="black"/>
<path d="M52.006 217.649H51.1343C51.1343 216.344 51.7619 215.132 52.8894 214.254C53.8657 213.492 55.1792 213.042 56.388 213.042V213.908C55.3651 213.908 54.2493 214.289 53.4241 214.947C52.5058 215.663 52.006 216.621 52.006 217.66V217.649Z" fill="#676766"/>
<path d="M54.9115 214.554C54.7256 215.709 57.7244 215.928 60.7348 215.674C63.7452 215.42 66.0234 215.028 66.0001 213.111C65.9769 211.206 63.2687 210.987 60.2699 211.241C57.2594 211.495 55.1556 213.007 54.9115 214.554Z" fill="#8E8E8E"/>
<path d="M65.5934 214.3C64.8146 215.224 62.9782 215.49 60.7233 215.674C58.48 215.859 56.2483 215.79 55.3301 215.259C56.2018 214.231 57.8988 213.4 60.0607 213.215C62.583 213.007 64.9076 213.123 65.5934 214.3Z" fill="#FAAE21"/>
<path d="M62.4666 213.146C62.1877 214.058 61.2811 214.728 60.2117 214.739C59.3051 214.739 58.5031 214.289 58.1079 213.596C58.7007 213.411 59.3632 213.284 60.0722 213.227C60.9091 213.157 61.7344 213.123 62.4783 213.146H62.4666Z" fill="white"/>
<path d="M50.9948 217.649H51.8665C51.8665 216.344 51.2388 215.132 50.1114 214.254C49.135 213.492 47.8216 213.042 46.6128 213.042V213.908C47.6356 213.908 48.7515 214.289 49.5767 214.947C50.495 215.663 50.9948 216.621 50.9948 217.66V217.649Z" fill="#676766"/>
<path d="M48.0888 214.554C48.2747 215.709 45.2759 215.928 42.2655 215.674C39.2551 215.42 36.9769 215.028 37.0002 213.123C37.0234 211.206 39.7316 210.998 42.7304 211.241C45.7292 211.483 47.8447 213.007 48.0888 214.554Z" fill="#8E8E8E"/>
<path d="M37.3955 214.3C38.1743 215.224 40.0107 215.49 42.2656 215.674C44.5089 215.859 46.7406 215.79 47.6588 215.259C46.7871 214.231 45.0901 213.4 42.9282 213.215C40.4059 213.007 38.0813 213.123 37.3955 214.3Z" fill="#FAAE21"/>
<path d="M40.5336 213.146C40.8126 214.058 41.7192 214.728 42.7885 214.739C43.6951 214.739 44.4971 214.289 44.8923 213.596C44.2995 213.411 43.637 213.284 42.928 213.227C42.0911 213.157 41.2659 213.123 40.522 213.146H40.5336Z" fill="white"/>
<path d="M52.5405 278.412H50.46L50.9016 217.706H52.0988L52.5405 278.412Z" fill="black"/>
<path d="M55.8528 281.16C55.7714 280.375 55.3414 279.763 54.8183 279.763H48.1814C47.6584 279.763 47.2283 280.363 47.147 281.16H55.8528Z" fill="black"/>
<path d="M52.1917 217.487H50.8202C50.6789 217.487 50.5645 217.601 50.5645 217.741V217.983C50.5645 218.124 50.6789 218.237 50.8202 218.237H52.1917C52.3329 218.237 52.4474 218.124 52.4474 217.983V217.741C52.4474 217.601 52.3329 217.487 52.1917 217.487Z" fill="#676766"/>
</g>
<g clip-path="url(#clip4_271_1808)">
<path d="M924.214 279.151H920.797C920.506 279.151 920.274 278.92 920.274 278.632C920.274 278.343 920.506 278.112 920.797 278.112H924.214C924.505 278.112 924.737 278.343 924.737 278.632C924.737 278.92 924.505 279.151 924.214 279.151Z" fill="black"/>
<path d="M924.947 279.948H920.053C919.763 279.948 919.53 279.717 919.53 279.428C919.53 279.14 919.763 278.909 920.053 278.909H924.947C925.237 278.909 925.47 279.14 925.47 279.428C925.47 279.717 925.237 279.948 924.947 279.948Z" fill="black"/>
<path d="M923.006 217.649H922.134C922.134 216.344 922.762 215.132 923.889 214.254C924.866 213.492 926.179 213.042 927.388 213.042V213.908C926.365 213.908 925.249 214.289 924.424 214.947C923.506 215.663 923.006 216.621 923.006 217.66V217.649Z" fill="#676766"/>
<path d="M925.912 214.554C925.726 215.709 928.724 215.928 931.735 215.674C934.745 215.42 937.023 215.028 937 213.111C936.977 211.206 934.269 210.987 931.27 211.241C928.259 211.495 926.156 213.007 925.912 214.554Z" fill="#8E8E8E"/>
<path d="M936.593 214.3C935.815 215.224 933.978 215.49 931.723 215.674C929.48 215.859 927.248 215.79 926.33 215.259C927.202 214.231 928.899 213.4 931.061 213.215C933.583 213.007 935.908 213.123 936.593 214.3Z" fill="#FAAE21"/>
<path d="M933.467 213.146C933.188 214.058 932.281 214.728 931.212 214.739C930.305 214.739 929.503 214.289 929.108 213.596C929.701 213.411 930.363 213.284 931.072 213.227C931.909 213.157 932.734 213.123 933.478 213.146H933.467Z" fill="white"/>
<path d="M921.995 217.649H922.866C922.866 216.344 922.239 215.132 921.111 214.254C920.135 213.492 918.822 213.042 917.613 213.042V213.908C918.636 213.908 919.751 214.289 920.577 214.947C921.495 215.663 921.995 216.621 921.995 217.66V217.649Z" fill="#676766"/>
<path d="M919.089 214.554C919.275 215.709 916.276 215.928 913.266 215.674C910.255 215.42 907.977 215.028 908 213.123C908.023 211.206 910.732 210.998 913.73 211.241C916.729 211.483 918.845 213.007 919.089 214.554Z" fill="#8E8E8E"/>
<path d="M908.396 214.3C909.174 215.224 911.011 215.49 913.266 215.674C915.509 215.859 917.741 215.79 918.659 215.259C917.787 214.231 916.09 213.4 913.928 213.215C911.406 213.007 909.081 213.123 908.396 214.3Z" fill="#FAAE21"/>
<path d="M911.534 213.146C911.813 214.058 912.719 214.728 913.789 214.739C914.695 214.739 915.497 214.289 915.892 213.596C915.3 213.411 914.637 213.284 913.928 213.227C913.091 213.157 912.266 213.123 911.522 213.146H911.534Z" fill="white"/>
<path d="M923.541 278.412H921.46L921.902 217.706H923.099L923.541 278.412Z" fill="black"/>
<path d="M926.853 281.16C926.771 280.375 926.341 279.763 925.818 279.763H919.181C918.658 279.763 918.228 280.363 918.147 281.16H926.853Z" fill="black"/>
<path d="M923.192 217.487H921.82C921.679 217.487 921.564 217.601 921.564 217.741V217.983C921.564 218.124 921.679 218.237 921.82 218.237H923.192C923.333 218.237 923.447 218.124 923.447 217.983V217.741C923.447 217.601 923.333 217.487 923.192 217.487Z" fill="#676766"/>
</g>
<g clip-path="url(#clip5_271_1808)">
<path d="M1310.21 279.151H1306.8C1306.51 279.151 1306.27 278.92 1306.27 278.632C1306.27 278.343 1306.51 278.112 1306.8 278.112H1310.21C1310.5 278.112 1310.74 278.343 1310.74 278.632C1310.74 278.92 1310.5 279.151 1310.21 279.151Z" fill="black"/>
<path d="M1310.95 279.948H1306.05C1305.76 279.948 1305.53 279.717 1305.53 279.428C1305.53 279.14 1305.76 278.909 1306.05 278.909H1310.95C1311.24 278.909 1311.47 279.14 1311.47 279.428C1311.47 279.717 1311.24 279.948 1310.95 279.948Z" fill="black"/>
<path d="M1309.01 217.649H1308.13C1308.13 216.344 1308.76 215.132 1309.89 214.254C1310.87 213.492 1312.18 213.042 1313.39 213.042V213.908C1312.37 213.908 1311.25 214.289 1310.42 214.947C1309.51 215.663 1309.01 216.621 1309.01 217.66V217.649Z" fill="#676766"/>
<path d="M1311.91 214.554C1311.73 215.709 1314.72 215.928 1317.73 215.674C1320.75 215.42 1323.02 215.028 1323 213.111C1322.98 211.206 1320.27 210.987 1317.27 211.241C1314.26 211.495 1312.16 213.007 1311.91 214.554Z" fill="#8E8E8E"/>
<path d="M1322.59 214.3C1321.81 215.224 1319.98 215.49 1317.72 215.674C1315.48 215.859 1313.25 215.79 1312.33 215.259C1313.2 214.231 1314.9 213.4 1317.06 213.215C1319.58 213.007 1321.91 213.123 1322.59 214.3Z" fill="#FAAE21"/>
<path d="M1319.47 213.146C1319.19 214.058 1318.28 214.728 1317.21 214.739C1316.31 214.739 1315.5 214.289 1315.11 213.596C1315.7 213.411 1316.36 213.284 1317.07 213.227C1317.91 213.157 1318.73 213.123 1319.48 213.146H1319.47Z" fill="white"/>
<path d="M1307.99 217.649H1308.87C1308.87 216.344 1308.24 215.132 1307.11 214.254C1306.14 213.492 1304.82 213.042 1303.61 213.042V213.908C1304.64 213.908 1305.75 214.289 1306.58 214.947C1307.49 215.663 1307.99 216.621 1307.99 217.66V217.649Z" fill="#676766"/>
<path d="M1305.09 214.554C1305.27 215.709 1302.28 215.928 1299.27 215.674C1296.26 215.42 1293.98 215.028 1294 213.123C1294.02 211.206 1296.73 210.998 1299.73 211.241C1302.73 211.483 1304.84 213.007 1305.09 214.554Z" fill="#8E8E8E"/>
<path d="M1294.4 214.3C1295.17 215.224 1297.01 215.49 1299.27 215.674C1301.51 215.859 1303.74 215.79 1304.66 215.259C1303.79 214.231 1302.09 213.4 1299.93 213.215C1297.41 213.007 1295.08 213.123 1294.4 214.3Z" fill="#FAAE21"/>
<path d="M1297.53 213.146C1297.81 214.058 1298.72 214.728 1299.79 214.739C1300.7 214.739 1301.5 214.289 1301.89 213.596C1301.3 213.411 1300.64 213.284 1299.93 213.227C1299.09 213.157 1298.27 213.123 1297.52 213.146H1297.53Z" fill="white"/>
<path d="M1309.54 278.412H1307.46L1307.9 217.706H1309.1L1309.54 278.412Z" fill="black"/>
<path d="M1312.85 281.16C1312.77 280.375 1312.34 279.763 1311.82 279.763H1305.18C1304.66 279.763 1304.23 280.363 1304.15 281.16H1312.85Z" fill="black"/>
<path d="M1309.19 217.487H1307.82C1307.68 217.487 1307.56 217.601 1307.56 217.741V217.983C1307.56 218.124 1307.68 218.237 1307.82 218.237H1309.19C1309.33 218.237 1309.45 218.124 1309.45 217.983V217.741C1309.45 217.601 1309.33 217.487 1309.19 217.487Z" fill="#676766"/>
</g>
<defs>
<clipPath id="clip0_271_1808">
<rect width="1366" height="327" fill="white"/>
</clipPath>
<clipPath id="clip1_271_1808">
<rect width="204.28" height="187.69" fill="white" transform="translate(1029 94.16)"/>
</clipPath>
<clipPath id="clip2_271_1808">
<rect width="29" height="70" fill="white" transform="translate(592 211.16)"/>
</clipPath>
<clipPath id="clip3_271_1808">
<rect width="29" height="70" fill="white" transform="translate(37 211.16)"/>
</clipPath>
<clipPath id="clip4_271_1808">
<rect width="29" height="70" fill="white" transform="translate(908 211.16)"/>
</clipPath>
<clipPath id="clip5_271_1808">
<rect width="29" height="70" fill="white" transform="translate(1294 211.16)"/>
</clipPath>
</defs>
</svg>
