<svg width="1388" height="333" viewBox="0 0 1388 333" fill="none" xmlns="http://www.w3.org/2000/svg">
<mask id="mask0_271_1808" style="mask-type:alpha" maskUnits="userSpaceOnUse" x="0" y="0" width="1388" height="327">
<g clip-path="url(#clip0_271_1808)">
<path d="M1388 327V93.8762H1376.14V100.894H1368.77V109.833H1368.62V100.894H1350.76V109.833H1345.03V114.309H1336.85V81.7464H1316.4V107.927H1306.57V112.389H1300.83V104.085H1289.38V91.9557H1281.2V68.9667H1260.73V88.129H1250.09V93.8762H1239.47V81.0966H1226.36V72.7934H1214.91V81.7464H1205.89V93.2409H1197.71V89.3997H1189.83V51.7251H1180.02V41.5013H1139.92V12.7652H1131.74V19.7976H1107.99V37.6747H1075.26V96.7498H1059.71V117.501H1050.72V111.118H1043.35V51.7251L1035.15 45.3425H1030.25V37.6747H1007.34V45.3425H998.731V49.4868L994.234 52.9958V81.0966H983.592V75.9992H975.412V58.4253H955.37L942.674 48.5338H938.584V63.8549H927.128V70.8873H907.474V95.147H882.935V89.3997H873.108V45.9778H851.825V33.848H846.106V50.4543H841.184V45.9778H822.769V72.4757L814.182 79.1905V65.7754H774.893V83.6525H761.808V77.9053H721.704V91.3203H707.787V58.743H687.319V84.9377H677.511V89.3997H671.773V81.0966H660.318V68.9667H652.138V45.9778H631.67V65.1401H628.542V5.11186H618.733V0H599.079V4.47648H585.995V46.6132H576.168V70.2519H568.654V66.4108L558.161 74.3819V39.5952H513.967V90.6849H496.774V100.259H490.094V107.277H477.805V98.9881H475.51V55.5517H464.869V49.8045H455.856V28.7361H423.118V94.3961L419.713 97.0675V104.085H410.848V87.4936H401.854V69.6021H390.38V60.0282H374.02V32.5628H329.826V92.591H322.46V42.7865H306.915V51.0897L295.459 60.0282V81.7464H259.445V100.894H249.618V60.0282H238.977V11.2923H205.424L186.473 26.0791V83.0171H171.057V60.6636H144.852V70.2519H131.767V83.0171H118.665V42.1512H85.1122V67.696L74.878 75.667V107.277H65.4766V95.147H52.3739V120.056H31.1097V131.551H18.8213V108.562H0V327H1388Z" fill="#023C70"/>
</g>
</mask>
<g mask="url(#mask0_271_1808)">
<rect x="11" y="-15.84" width="1366" height="343" fill="#023C70" fill-opacity="0.3"/>
</g>
<rect x="11" y="281.16" width="1366" height="51" fill="#959595"/>
<path d="M11 301.66H1377" stroke="white" stroke-dasharray="4 4"/>
<g clip-path="url(#clip1_271_1808)">
<path d="M1044.71 275.69H1239.56C1239.56 236.19 1220.53 244.48 1220.09 258.95C1219.31 254.63 1215.74 253.36 1213.58 253.78C1212.13 254.06 1210.97 257.32 1211.26 262.52C1209.38 257.74 1204.26 250.84 1198.89 250.13C1184.63 248.25 1179.42 259.11 1178.85 266.8C1177.74 266.02 1176.42 265.57 1175 265.57C1173.58 265.57 1172.35 265.99 1171.27 266.72C1170.03 262.21 1166.19 258.93 1161.64 258.93C1156.54 258.93 1152.33 263.07 1151.68 268.43C1150.32 267 1148.21 266.08 1145.82 266.08C1142.44 266.08 1139.58 267.94 1138.69 270.48C1137.49 270.09 1136.04 269.87 1134.47 269.87C1133.86 269.87 1133.27 269.9 1132.7 269.97C1132.92 269.32 1133.04 268.62 1133.04 267.89C1133.04 264.54 1130.54 261.82 1127.46 261.82C1125.03 261.82 1122.96 263.51 1122.2 265.86C1121.66 264.82 1120.85 264.16 1119.95 264.16C1118.74 264.16 1117.7 265.34 1117.25 267.02C1116.53 266.62 1115.71 266.39 1114.85 266.39C1111.92 266.39 1109.55 268.97 1109.55 272.15C1109.55 272.17 1109.55 272.18 1109.55 272.19C1106.8 269.55 1102.68 267.87 1098.06 267.87C1095.62 267.87 1093.31 268.34 1091.27 269.18C1091.69 266.07 1090.77 263.19 1088.66 261.87C1086.56 260.55 1083.82 261.11 1081.56 263.04C1078.59 255.92 1072.01 250.97 1064.36 250.97C1058.9 250.97 1044.71 256.74 1044.71 275.68V275.69Z" fill="#22742A"/>
<path d="M1184.4 128.29H1052.61V133.29H1184.4V128.29Z" fill="#D7DDE2"/>
<path d="M1184.4 132.97H1052.61V275.64H1184.4V132.97Z" fill="#ECF2F7"/>
<path d="M1184.4 271.15H1131.15V275.65H1184.4V271.15Z" fill="#D7DDE2"/>
<path d="M1073.02 271.15H1052.61V275.65H1073.02V271.15Z" fill="#D7DDE2"/>
<path d="M1231.66 132.97H1184.4V275.64H1231.66V132.97Z" fill="#ECF2F7"/>
<path d="M1231.66 271.15H1184.4V275.65H1231.66V271.15Z" fill="#A9B2BD"/>
<path d="M1112.19 98.49H1073.02V275.64H1112.19V98.49Z" fill="#61BFFF"/>
<path d="M1083.44 98.49H1073.02V275.64H1083.44V98.49Z" fill="#8DD1FF"/>
<path d="M1097.82 98.49H1092.61V275.64H1097.82V98.49Z" fill="#8DD1FF"/>
<path d="M1112.19 94.16H1073.02V98.49H1112.19V94.16Z" fill="#339CED"/>
<path d="M1131.15 94.16H1112.19V275.65H1131.15V94.16Z" fill="#339CED"/>
<path d="M1131.15 94.16H1112.19V98.49H1131.15V94.16Z" fill="#1260B3"/>
<path d="M1131.15 123.15H1112.19V125.52H1131.15V123.15Z" fill="#61BFFF"/>
<path d="M1131.15 164.97H1073.02V167.34H1131.15V164.97Z" fill="#61BFFF"/>
<path d="M1131.15 206.8H1073.02V209.17H1131.15V206.8Z" fill="#61BFFF"/>
<path d="M1131.15 248.62H1073.02V250.99H1131.15V248.62Z" fill="#61BFFF"/>
<path d="M1112.19 162.89L1131.15 134.54V98.49H1112.19V162.89Z" fill="#339CED"/>
<path d="M1231.66 128.29H1184.4V132.97H1231.66V128.29Z" fill="#D7DDE2"/>
<path d="M1177.8 246.96H1137.75V271.15H1177.8V246.96Z" fill="#339CED"/>
<path d="M1177.8 251.29H1137.75V252.46H1177.8V251.29Z" fill="#61BFFF"/>
<path d="M1150.77 271.14V246.95H1149.6V271.14H1150.77Z" fill="#61BFFF"/>
<path d="M1165.94 271.14V246.95H1164.77V271.14H1165.94Z" fill="#61BFFF"/>
<path d="M1154.32 141.45H1137.75V145.29H1154.32V141.45Z" fill="#F8792F"/>
<path d="M1154.32 151.54H1137.75V155.38H1154.32V151.54Z" fill="#F8792F"/>
<path d="M1154.32 161.64H1137.75V165.48H1154.32V161.64Z" fill="#F8792F"/>
<path d="M1154.32 171.73H1137.75V175.57H1154.32V171.73Z" fill="#F8792F"/>
<path d="M1154.32 181.82H1137.75V185.66H1154.32V181.82Z" fill="#F8792F"/>
<path d="M1154.32 191.91H1137.75V195.75H1154.32V191.91Z" fill="#F8792F"/>
<path d="M1154.32 202H1137.75V205.84H1154.32V202Z" fill="#F8792F"/>
<path d="M1154.32 212.1H1137.75V215.94H1154.32V212.1Z" fill="#F8792F"/>
<path d="M1154.32 222.19H1137.75V226.03H1154.32V222.19Z" fill="#F8792F"/>
<path d="M1154.32 232.28H1137.75V236.12H1154.32V232.28Z" fill="#F8792F"/>
<path d="M1177.8 141.45H1161.23V145.29H1177.8V141.45Z" fill="#F8792F"/>
<path d="M1177.8 151.54H1161.23V155.38H1177.8V151.54Z" fill="#F8792F"/>
<path d="M1177.8 161.64H1161.23V165.48H1177.8V161.64Z" fill="#F8792F"/>
<path d="M1177.8 171.73H1161.23V175.57H1177.8V171.73Z" fill="#F8792F"/>
<path d="M1177.8 181.82H1161.23V185.66H1177.8V181.82Z" fill="#F8792F"/>
<path d="M1177.8 191.91H1161.23V195.75H1177.8V191.91Z" fill="#F8792F"/>
<path d="M1177.8 202H1161.23V205.84H1177.8V202Z" fill="#F8792F"/>
<path d="M1177.8 212.1H1161.23V215.94H1177.8V212.1Z" fill="#F8792F"/>
<path d="M1177.8 222.19H1161.23V226.03H1177.8V222.19Z" fill="#F8792F"/>
<path d="M1177.8 232.28H1161.23V236.12H1177.8V232.28Z" fill="#F8792F"/>
<path d="M1071.09 141.45H1054.52V145.29H1071.09V141.45Z" fill="#F8792F"/>
<path d="M1071.09 151.54H1054.52V155.38H1071.09V151.54Z" fill="#F8792F"/>
<path d="M1071.09 161.64H1054.52V165.48H1071.09V161.64Z" fill="#F8792F"/>
<path d="M1071.09 171.73H1054.52V175.57H1071.09V171.73Z" fill="#F8792F"/>
<path d="M1071.09 181.82H1054.52V185.66H1071.09V181.82Z" fill="#F8792F"/>
<path d="M1071.09 191.91H1054.52V195.75H1071.09V191.91Z" fill="#F8792F"/>
<path d="M1071.09 202H1054.52V205.84H1071.09V202Z" fill="#F8792F"/>
<path d="M1071.09 212.1H1054.52V215.94H1071.09V212.1Z" fill="#F8792F"/>
<path d="M1071.09 222.19H1054.52V226.03H1071.09V222.19Z" fill="#F8792F"/>
<path d="M1071.09 232.28H1054.52V236.12H1071.09V232.28Z" fill="#F8792F"/>
<path d="M1071.09 246.96H1054.52V271.15H1071.09V246.96Z" fill="#339CED"/>
<path d="M1058.45 246.96H1054.52V271.15H1058.45V246.96Z" fill="#339CED"/>
<path d="M1198.79 139.6H1191.68V264.29H1198.79V139.6Z" fill="#339CED"/>
<path d="M1198.79 149.06H1191.68V151.75H1198.79V149.06Z" fill="#61BFFF"/>
<path d="M1198.79 174.91H1191.68V177.6H1198.79V174.91Z" fill="#61BFFF"/>
<path d="M1198.79 200.77H1191.68V203.46H1198.79V200.77Z" fill="#61BFFF"/>
<path d="M1198.79 226.62H1191.68V229.31H1198.79V226.62Z" fill="#61BFFF"/>
<path d="M1198.79 252.48H1191.68V255.17H1198.79V252.48Z" fill="#61BFFF"/>
<path d="M1211.7 139.6H1204.59V264.29H1211.7V139.6Z" fill="#339CED"/>
<path d="M1211.7 149.06H1204.59V151.75H1211.7V149.06Z" fill="#61BFFF"/>
<path d="M1211.7 174.91H1204.59V177.6H1211.7V174.91Z" fill="#61BFFF"/>
<path d="M1211.7 200.77H1204.59V203.46H1211.7V200.77Z" fill="#61BFFF"/>
<path d="M1211.7 226.62H1204.59V229.31H1211.7V226.62Z" fill="#61BFFF"/>
<path d="M1211.7 252.48H1204.59V255.17H1211.7V252.48Z" fill="#61BFFF"/>
<path d="M1224.39 139.6H1217.28V264.29H1224.39V139.6Z" fill="#339CED"/>
<path d="M1224.39 149.06H1217.28V151.75H1224.39V149.06Z" fill="#61BFFF"/>
<path d="M1224.39 174.91H1217.28V177.6H1224.39V174.91Z" fill="#61BFFF"/>
<path d="M1224.39 200.77H1217.28V203.46H1224.39V200.77Z" fill="#61BFFF"/>
<path d="M1224.39 226.62H1217.28V229.31H1224.39V226.62Z" fill="#61BFFF"/>
<path d="M1224.39 252.48H1217.28V255.17H1224.39V252.48Z" fill="#61BFFF"/>
<path d="M1191.3 264.47H1189.47V275.69H1191.3V264.47Z" fill="#582514"/>
<path d="M1193.88 251.81C1193.88 260.78 1192.32 268.04 1190.39 268.04C1188.46 268.04 1186.9 260.77 1186.9 251.81C1186.9 242.85 1188.46 235.58 1190.39 235.58C1192.32 235.58 1193.88 242.85 1193.88 251.81Z" fill="#22742A"/>
<path d="M1061.17 264.47H1059.34V275.69H1061.17V264.47Z" fill="#582514"/>
<path d="M1060.26 268.04C1062.19 268.04 1063.75 260.774 1063.75 251.81C1063.75 242.846 1062.19 235.58 1060.26 235.58C1058.33 235.58 1056.77 242.846 1056.77 251.81C1056.77 260.774 1058.33 268.04 1060.26 268.04Z" fill="#22742A"/>
<path d="M1207.49 264.47H1205.66V275.69H1207.49V264.47Z" fill="#582514"/>
<path d="M1210.06 251.81C1210.06 260.78 1208.5 268.04 1206.57 268.04C1204.64 268.04 1203.08 260.77 1203.08 251.81C1203.08 242.85 1204.64 235.58 1206.57 235.58C1208.5 235.58 1210.06 242.85 1210.06 251.81Z" fill="#22742A"/>
<path d="M1223.67 264.47H1221.84V275.69H1223.67V264.47Z" fill="#582514"/>
<path d="M1226.24 251.81C1226.24 260.78 1224.68 268.04 1222.75 268.04C1220.82 268.04 1219.26 260.77 1219.26 251.81C1219.26 242.85 1220.82 235.58 1222.75 235.58C1224.68 235.58 1226.24 242.85 1226.24 251.81Z" fill="#22742A"/>
<path d="M1241.19 281.85H1043.08C1041.38 281.85 1040 280.47 1040 278.77C1040 277.07 1041.38 275.69 1043.08 275.69H1241.19C1242.89 275.69 1244.27 277.07 1244.27 278.77C1244.27 280.47 1242.89 281.85 1241.19 281.85Z" fill="#288A32"/>
<path d="M1215.66 270.08C1212.56 270.08 1210.05 272.59 1210.05 275.69H1221.26C1221.26 272.59 1218.75 270.08 1215.65 270.08H1215.66Z" fill="#288A32"/>
<path d="M1223.27 272.54C1221.53 272.54 1220.13 273.95 1220.13 275.68H1226.42C1226.42 273.94 1225.01 272.54 1223.28 272.54H1223.27Z" fill="#288A32"/>
<path d="M1229.29 274.11C1228.42 274.11 1227.72 274.81 1227.72 275.68H1230.86C1230.86 274.81 1230.16 274.11 1229.29 274.11Z" fill="#288A32"/>
<path d="M1234.58 272.75C1232.96 272.75 1231.65 274.06 1231.65 275.68H1237.51C1237.51 274.06 1236.2 272.75 1234.58 272.75Z" fill="#288A32"/>
<path d="M1056.13 271.96C1054.27 271.96 1052.76 273.63 1052.76 275.68H1059.49C1059.49 273.62 1057.98 271.96 1056.12 271.96H1056.13Z" fill="#288A32"/>
<path d="M1060.26 273.45C1059.03 273.45 1058.03 274.45 1058.03 275.68H1062.48C1062.48 274.45 1061.48 273.45 1060.25 273.45H1060.26Z" fill="#288A32"/>
<path d="M1064.87 271.53C1063.28 271.53 1061.99 273.39 1061.99 275.68H1067.76C1067.76 273.39 1066.47 271.53 1064.88 271.53H1064.87Z" fill="#288A32"/>
<path d="M1131.77 271.11C1129.21 271.11 1127.13 273.19 1127.13 275.75H1136.41C1136.41 273.19 1134.33 271.11 1131.77 271.11Z" fill="#288A32"/>
<path d="M1138.2 273.43C1136.92 273.43 1135.88 274.47 1135.88 275.75H1140.52C1140.52 274.47 1139.48 273.43 1138.2 273.43Z" fill="#288A32"/>
</g>
<path d="M311.536 148.182H144.186V281.16H311.536V148.182Z" fill="#D18B5E"/>
<path d="M210.161 152.126H179.467V156.071H210.161V152.126Z" fill="#FAD2AE"/>
<path d="M243.341 152.126H212.646V156.071H243.341V152.126Z" fill="#FAD2AE"/>
<path d="M276.507 152.126H245.812V156.071H276.507V152.126Z" fill="#FAD2AE"/>
<path d="M182.071 148.182H144.186V281.16H182.071V148.182Z" fill="#F1B187"/>
<path d="M311.537 148.182H273.638V281.16H311.537V148.182Z" fill="#F1B187"/>
<path d="M182.071 265.407H144.186V281.16H182.071V265.407Z" fill="#A7A7A7"/>
<path d="M311.537 265.407H273.638V281.16H311.537V265.407Z" fill="#A7A7A7"/>
<path d="M207.61 173.073H196.255V188.195H207.61V173.073Z" fill="#616161"/>
<path d="M193.241 170.023C193.241 170.023 193.241 170.062 193.241 170.075C193.241 171.798 194.642 173.205 196.387 173.205H207.703C209.448 173.205 210.849 171.798 210.849 170.075C210.849 170.062 210.849 170.036 210.849 170.023H193.254H193.241Z" fill="#FAD2AE"/>
<path d="M193.241 187.774V187.827C193.241 189.549 194.642 190.956 196.374 190.956H207.689C209.434 190.956 210.836 189.549 210.836 187.827V187.774H193.241Z" fill="#FAD2AE"/>
<path d="M202.561 172.153H201.278V188.063H202.561V172.153Z" fill="#FAD2AE"/>
<path d="M203.896 168.458C203.896 169.484 203.063 170.312 202.045 170.312C201.027 170.312 200.181 169.484 200.181 168.458C200.181 167.432 201.014 166.617 202.045 166.617C203.076 166.617 203.896 167.445 203.896 168.458Z" fill="#FAD2AE"/>
<path d="M233.849 173.073H222.494V188.195H233.849V173.073Z" fill="#616161"/>
<path d="M219.48 170.023C219.48 170.023 219.48 170.062 219.48 170.075C219.48 171.798 220.895 173.205 222.627 173.205H233.942C235.687 173.205 237.088 171.798 237.088 170.075C237.088 170.062 237.088 170.036 237.088 170.023H219.494H219.48Z" fill="#FAD2AE"/>
<path d="M219.48 187.774V187.827C219.48 189.549 220.882 190.956 222.627 190.956H233.942C235.687 190.956 237.088 189.549 237.088 187.827V187.774H219.48Z" fill="#FAD2AE"/>
<path d="M228.813 172.153H227.531V188.063H228.813V172.153Z" fill="#FAD2AE"/>
<path d="M230.135 168.458C230.135 169.484 229.302 170.312 228.271 170.312C227.24 170.312 226.42 169.484 226.42 168.458C226.42 167.432 227.253 166.617 228.271 166.617C229.289 166.617 230.135 167.445 230.135 168.458Z" fill="#FAD2AE"/>
<path d="M207.61 202.869H196.255V218.004H207.61V202.869Z" fill="#43403D"/>
<path d="M193.241 199.819C193.241 199.819 193.241 199.858 193.241 199.871C193.241 201.594 194.642 203.001 196.387 203.001H207.703C209.448 203.001 210.849 201.594 210.849 199.871C210.849 199.858 210.849 199.832 210.849 199.819H193.254H193.241Z" fill="#FAD2AE"/>
<path d="M193.241 217.57V217.623C193.241 219.359 194.642 220.752 196.374 220.752H207.689C209.434 220.752 210.836 219.345 210.836 217.623V217.57H193.241Z" fill="#FAD2AE"/>
<path d="M202.561 201.949H201.278V217.86H202.561V201.949Z" fill="#FAD2AE"/>
<path d="M203.896 198.254C203.896 199.28 203.063 200.108 202.045 200.108C201.027 200.108 200.181 199.28 200.181 198.254C200.181 197.228 201.014 196.4 202.045 196.4C203.076 196.4 203.896 197.228 203.896 198.254Z" fill="#FAD2AE"/>
<path d="M233.849 202.869H222.494V218.004H233.849V202.869Z" fill="#43403D"/>
<path d="M219.48 199.819C219.48 199.819 219.48 199.858 219.48 199.871C219.48 201.594 220.895 203.001 222.627 203.001H233.942C235.687 203.001 237.088 201.594 237.088 199.871C237.088 199.858 237.088 199.832 237.088 199.819H219.494H219.48Z" fill="#FAD2AE"/>
<path d="M219.48 217.57V217.623C219.48 219.359 220.882 220.752 222.627 220.752H233.942C235.687 220.752 237.088 219.345 237.088 217.623V217.57H219.48Z" fill="#FAD2AE"/>
<path d="M228.813 201.949H227.531V217.86H228.813V201.949Z" fill="#FAD2AE"/>
<path d="M230.135 198.254C230.135 199.28 229.302 200.108 228.271 200.108C227.24 200.108 226.42 199.28 226.42 198.254C226.42 197.228 227.253 196.4 228.271 196.4C229.289 196.4 230.135 197.228 230.135 198.254Z" fill="#FAD2AE"/>
<path d="M259.243 173.073H247.888V188.195H259.243V173.073Z" fill="#616161"/>
<path d="M244.874 170.023C244.874 170.023 244.874 170.062 244.874 170.075C244.874 171.798 246.288 173.205 248.02 173.205H259.335C261.067 173.205 262.482 171.798 262.482 170.075C262.482 170.062 262.482 170.036 262.482 170.023H244.887H244.874Z" fill="#FAD2AE"/>
<path d="M244.874 187.774V187.827C244.874 189.549 246.275 190.956 248.02 190.956H259.335C261.067 190.956 262.482 189.549 262.482 187.827V187.774H244.874Z" fill="#FAD2AE"/>
<path d="M254.207 172.153H252.924V188.063H254.207V172.153Z" fill="#FAD2AE"/>
<path d="M255.528 168.458C255.528 169.484 254.696 170.312 253.678 170.312C252.66 170.312 251.814 169.484 251.814 168.458C251.814 167.432 252.647 166.617 253.678 166.617C254.709 166.617 255.528 167.445 255.528 168.458Z" fill="#FAD2AE"/>
<path d="M259.243 202.869H247.888V218.004H259.243V202.869Z" fill="#43403D"/>
<path d="M244.874 199.819C244.874 199.819 244.874 199.858 244.874 199.871C244.874 201.594 246.288 203.001 248.02 203.001H259.335C261.067 203.001 262.482 201.594 262.482 199.871C262.482 199.858 262.482 199.832 262.482 199.819H244.887H244.874Z" fill="#FAD2AE"/>
<path d="M244.874 217.57V217.623C244.874 219.359 246.275 220.752 248.02 220.752H259.335C261.067 220.752 262.482 219.345 262.482 217.623V217.57H244.874Z" fill="#FAD2AE"/>
<path d="M254.207 201.949H252.924V217.86H254.207V201.949Z" fill="#FAD2AE"/>
<path d="M255.528 198.254C255.528 199.28 254.696 200.108 253.678 200.108C252.66 200.108 251.814 199.28 251.814 198.254C251.814 197.228 252.647 196.4 253.678 196.4C254.709 196.4 255.528 197.228 255.528 198.254Z" fill="#FAD2AE"/>
<path d="M207.61 202.869H196.255V218.004H207.61V202.869Z" fill="#616161"/>
<path d="M193.241 199.819C193.241 199.819 193.241 199.858 193.241 199.871C193.241 201.594 194.642 203.001 196.387 203.001H207.703C209.448 203.001 210.849 201.594 210.849 199.871C210.849 199.858 210.849 199.832 210.849 199.819H193.254H193.241Z" fill="#FAD2AE"/>
<path d="M193.241 217.57V217.623C193.241 219.359 194.642 220.752 196.374 220.752H207.689C209.434 220.752 210.836 219.345 210.836 217.623V217.57H193.241Z" fill="#FAD2AE"/>
<path d="M202.561 201.949H201.278V217.86H202.561V201.949Z" fill="#FAD2AE"/>
<path d="M203.896 198.254C203.896 199.28 203.063 200.108 202.045 200.108C201.027 200.108 200.181 199.28 200.181 198.254C200.181 197.228 201.014 196.4 202.045 196.4C203.076 196.4 203.896 197.228 203.896 198.254Z" fill="#FAD2AE"/>
<path d="M233.849 202.869H222.494V218.004H233.849V202.869Z" fill="#616161"/>
<path d="M219.48 199.819C219.48 199.819 219.48 199.858 219.48 199.871C219.48 201.594 220.895 203.001 222.627 203.001H233.942C235.687 203.001 237.088 201.594 237.088 199.871C237.088 199.858 237.088 199.832 237.088 199.819H219.494H219.48Z" fill="#FAD2AE"/>
<path d="M219.48 217.57V217.623C219.48 219.359 220.882 220.752 222.627 220.752H233.942C235.687 220.752 237.088 219.345 237.088 217.623V217.57H219.48Z" fill="#FAD2AE"/>
<path d="M228.813 201.949H227.531V217.86H228.813V201.949Z" fill="#FAD2AE"/>
<path d="M230.135 198.254C230.135 199.28 229.302 200.108 228.271 200.108C227.24 200.108 226.42 199.28 226.42 198.254C226.42 197.228 227.253 196.4 228.271 196.4C229.289 196.4 230.135 197.228 230.135 198.254Z" fill="#FAD2AE"/>
<path d="M259.243 202.869H247.888V218.004H259.243V202.869Z" fill="#616161"/>
<path d="M244.874 199.819C244.874 199.819 244.874 199.858 244.874 199.871C244.874 201.594 246.288 203.001 248.02 203.001H259.335C261.067 203.001 262.482 201.594 262.482 199.871C262.482 199.858 262.482 199.832 262.482 199.819H244.887H244.874Z" fill="#FAD2AE"/>
<path d="M244.874 217.57V217.623C244.874 219.359 246.275 220.752 248.02 220.752H259.335C261.067 220.752 262.482 219.345 262.482 217.623V217.57H244.874Z" fill="#FAD2AE"/>
<path d="M254.207 201.949H252.924V217.86H254.207V201.949Z" fill="#FAD2AE"/>
<path d="M255.528 198.254C255.528 199.28 254.696 200.108 253.678 200.108C252.66 200.108 251.814 199.28 251.814 198.254C251.814 197.228 252.647 196.4 253.678 196.4C254.709 196.4 255.528 197.228 255.528 198.254Z" fill="#FAD2AE"/>
<path d="M298.145 173.073H286.804V188.195H298.145V173.073Z" fill="#43403D"/>
<path d="M283.79 187.774V187.827C283.79 189.549 285.191 190.956 286.936 190.956H298.251C299.996 190.956 301.398 189.549 301.398 187.827V187.774H283.803H283.79Z" fill="#FAD2AE"/>
<path d="M293.109 172.153H291.827V188.063H293.109V172.153Z" fill="#FAD2AE"/>
<path d="M294.444 168.458C294.444 169.484 293.612 170.312 292.594 170.312C291.576 170.312 290.73 169.484 290.73 168.458C290.73 167.432 291.563 166.617 292.594 166.617C293.625 166.617 294.444 167.445 294.444 168.458Z" fill="#F5F5F5"/>
<path d="M283.79 170.023C283.79 170.023 283.79 170.062 283.79 170.075C283.79 171.798 285.204 173.205 286.936 173.205H298.251C299.996 173.205 301.398 171.798 301.398 170.075V170.023H283.803H283.79Z" fill="#F5F5F5"/>
<path d="M298.145 202.869H286.804V218.004H298.145V202.869Z" fill="#43403D"/>
<path d="M283.79 217.57V217.623C283.79 219.359 285.191 220.752 286.936 220.752H298.251C299.996 220.752 301.398 219.345 301.398 217.623V217.57H283.803H283.79Z" fill="#FAD2AE"/>
<path d="M293.109 201.949H291.827V217.86H293.109V201.949Z" fill="#FAD2AE"/>
<path d="M294.444 198.254C294.444 199.28 293.612 200.108 292.594 200.108C291.576 200.108 290.73 199.28 290.73 198.254C290.73 197.228 291.563 196.4 292.594 196.4C293.625 196.4 294.444 197.228 294.444 198.254Z" fill="#F5F5F5"/>
<path d="M283.79 199.819C283.79 199.819 283.79 199.858 283.79 199.871C283.79 201.594 285.204 203.001 286.936 203.001H298.251C299.996 203.001 301.398 201.594 301.398 199.871V199.819H283.803H283.79Z" fill="#F5F5F5"/>
<path d="M298.145 233.402H286.804V248.524H298.145V233.402Z" fill="#43403D"/>
<path d="M283.79 248.103V248.169C283.79 249.891 285.191 251.298 286.936 251.298H298.251C299.996 251.298 301.398 249.891 301.398 248.169V248.103H283.803H283.79Z" fill="#FAD2AE"/>
<path d="M293.109 232.482H291.827V248.392H293.109V232.482Z" fill="#FAD2AE"/>
<path d="M294.444 228.787C294.444 229.799 293.612 230.628 292.594 230.628C291.576 230.628 290.73 229.799 290.73 228.787C290.73 227.774 291.563 226.946 292.594 226.946C293.625 226.946 294.444 227.774 294.444 228.787Z" fill="#F5F5F5"/>
<path d="M283.79 230.351C283.79 230.351 283.79 230.391 283.79 230.417C283.79 232.153 285.204 233.547 286.936 233.547H298.251C299.996 233.547 301.398 232.153 301.398 230.417V230.351H283.803H283.79Z" fill="#F5F5F5"/>
<path d="M168.693 173.073H157.338V188.195H168.693V173.073Z" fill="#43403D"/>
<path d="M154.325 187.774V187.827C154.325 189.549 155.726 190.956 157.471 190.956H168.786C170.518 190.956 171.932 189.549 171.932 187.827V187.774H154.325Z" fill="#FAD2AE"/>
<path d="M163.657 172.153H162.375V188.063H163.657V172.153Z" fill="#FAD2AE"/>
<path d="M164.979 168.458C164.979 169.484 164.146 170.312 163.129 170.312C162.111 170.312 161.265 169.484 161.265 168.458C161.265 167.432 162.097 166.617 163.129 166.617C164.16 166.617 164.979 167.445 164.979 168.458Z" fill="#F5F5F5"/>
<path d="M154.325 170.023C154.325 170.023 154.325 170.062 154.325 170.075C154.325 171.798 155.739 173.205 157.471 173.205H168.786C170.518 173.205 171.932 171.798 171.932 170.075C171.932 170.062 171.932 170.036 171.932 170.023H154.338H154.325Z" fill="#F5F5F5"/>
<path d="M168.693 202.869H157.338V218.004H168.693V202.869Z" fill="#43403D"/>
<path d="M154.325 217.57V217.623C154.325 219.359 155.726 220.752 157.471 220.752H168.786C170.518 220.752 171.932 219.345 171.932 217.623V217.57H154.325Z" fill="#FAD2AE"/>
<path d="M163.657 201.949H162.375V217.86H163.657V201.949Z" fill="#FAD2AE"/>
<path d="M164.979 198.254C164.979 199.28 164.146 200.108 163.129 200.108C162.111 200.108 161.265 199.28 161.265 198.254C161.265 197.228 162.097 196.4 163.129 196.4C164.16 196.4 164.979 197.228 164.979 198.254Z" fill="#F5F5F5"/>
<path d="M154.325 199.819C154.325 199.819 154.325 199.858 154.325 199.871C154.325 201.594 155.739 203.001 157.471 203.001H168.786C170.518 203.001 171.932 201.594 171.932 199.871C171.932 199.858 171.932 199.832 171.932 199.819H154.338H154.325Z" fill="#F5F5F5"/>
<path d="M168.693 233.402H157.338V248.524H168.693V233.402Z" fill="#43403D"/>
<path d="M154.325 248.103V248.169C154.325 249.891 155.726 251.298 157.471 251.298H168.786C170.518 251.298 171.932 249.891 171.932 248.169V248.103H154.325Z" fill="#FAD2AE"/>
<path d="M163.657 232.482H162.375V248.392H163.657V232.482Z" fill="#FAD2AE"/>
<path d="M164.979 228.787C164.979 229.799 164.146 230.628 163.129 230.628C162.111 230.628 161.265 229.799 161.265 228.787C161.265 227.774 162.097 226.946 163.129 226.946C164.16 226.946 164.979 227.774 164.979 228.787Z" fill="#F5F5F5"/>
<path d="M154.325 230.351C154.325 230.351 154.325 230.391 154.325 230.417C154.325 232.153 155.739 233.547 157.471 233.547H168.786C170.518 233.547 171.932 232.153 171.932 230.417C171.932 230.404 171.932 230.378 171.932 230.351H154.338H154.325Z" fill="#F5F5F5"/>
<path d="M178.475 152.126H147.781V156.071H178.475V152.126Z" fill="#F5F5F5"/>
<path d="M307.928 152.126H277.234V156.071H307.928V152.126Z" fill="#F5F5F5"/>
<path d="M273.413 229.944H182.058V281.173H273.413V229.944Z" fill="#F5F5F5"/>
<path d="M141 141.252L315 141.16V144.539C315 146.643 313.282 148.432 311.18 148.432H144.833C142.718 148.432 141 146.735 141 144.645V141.252Z" fill="#C4C4C4"/>
<path d="M144.833 148.432H311.18C313.057 148.432 314.603 147.103 314.934 145.328H141.066C141.396 147.09 142.943 148.432 144.82 148.432H144.833Z" fill="#D18B5E"/>
<path d="M141 143.382H315V141.16L141 141.252V143.382Z" fill="#90432C"/>
<path d="M179.56 229.878L276.269 229.812V232.232C276.269 233.731 275.039 235.019 273.533 235.019H182.296C180.789 235.019 179.56 233.796 179.56 232.297V229.878Z" fill="#F5F5F5"/>
<path d="M182.296 235.006H273.546C274.881 235.006 275.991 234.046 276.229 232.784H179.612C179.85 234.046 180.961 235.006 182.296 235.006Z" fill="#C7C7C7"/>
<path d="M179.56 231.403H276.282V229.812L179.56 229.878V231.403Z" fill="#747474"/>
<path d="M271.444 234.875H183.79V265.407H271.444V234.875Z" fill="#C4C4C4"/>
<path d="M200.379 242.514H189.024V257.636H200.379V242.514Z" fill="#43403D"/>
<path d="M186.01 239.464C186.01 239.464 186.01 239.503 186.01 239.516C186.01 241.239 187.425 242.646 189.156 242.646H200.472C202.203 242.646 203.618 241.239 203.618 239.516C203.618 239.503 203.618 239.477 203.618 239.464H186.023H186.01Z" fill="#FAD2AE"/>
<path d="M186.01 257.228C186.01 257.228 186.01 257.268 186.01 257.281C186.01 259.004 187.425 260.411 189.156 260.411H200.472C202.203 260.411 203.618 259.004 203.618 257.281C203.618 257.268 203.618 257.242 203.618 257.228H186.023H186.01Z" fill="#FAD2AE"/>
<path d="M195.343 241.594H194.061V257.505H195.343V241.594Z" fill="#FAD2AE"/>
<path d="M196.665 237.899C196.665 238.925 195.832 239.74 194.814 239.74C193.796 239.74 192.963 238.911 192.963 237.899C192.963 236.887 193.796 236.058 194.814 236.058C195.832 236.058 196.665 236.887 196.665 237.899Z" fill="#FAD2AE"/>
<path d="M265.733 242.514H254.378V257.636H265.733V242.514Z" fill="#43403D"/>
<path d="M251.364 239.464C251.364 239.464 251.364 239.503 251.364 239.516C251.364 241.239 252.779 242.646 254.51 242.646H265.826C267.571 242.646 268.972 241.239 268.972 239.516C268.972 239.503 268.972 239.477 268.972 239.464H251.364Z" fill="#FAD2AE"/>
<path d="M251.364 257.228C251.364 257.228 251.364 257.268 251.364 257.281C251.364 259.004 252.779 260.411 254.51 260.411H265.826C267.571 260.411 268.972 259.004 268.972 257.281C268.972 257.268 268.972 257.242 268.972 257.228H251.364Z" fill="#FAD2AE"/>
<path d="M260.697 241.594H259.415V257.505H260.697V241.594Z" fill="#FAD2AE"/>
<path d="M262.032 237.899C262.032 238.925 261.199 239.74 260.168 239.74C259.137 239.74 258.317 238.911 258.317 237.899C258.317 236.887 259.15 236.058 260.168 236.058C261.186 236.058 262.032 236.887 262.032 237.899Z" fill="#FAD2AE"/>
<path d="M248.655 265.407H206.817V270.575H248.655V265.407Z" fill="#C4C4C4"/>
<path opacity="0.64" d="M248.655 270.575H206.817V275.743H248.655V270.575Z" fill="#C4C4C4"/>
<path opacity="0.32" d="M248.655 275.743H206.817V280.91H248.655V275.743Z" fill="#C4C4C4"/>
<path d="M185.045 260.976C185.045 263.698 184.094 265.907 182.944 265.907C181.794 265.907 180.842 263.698 180.842 260.976C180.842 258.254 181.78 256.058 182.944 256.058C184.107 256.058 185.045 258.254 185.045 260.976Z" fill="#F5F5F5"/>
<path d="M184.675 255.059C184.675 256.006 183.895 256.781 182.944 256.781C181.992 256.781 181.212 256.006 181.212 255.059C181.212 254.112 181.992 253.336 182.944 253.336C183.895 253.336 184.675 254.112 184.675 255.059Z" fill="#F5F5F5"/>
<path d="M190.743 260.976C190.743 263.698 189.804 265.907 188.641 265.907C187.478 265.907 186.539 263.698 186.539 260.976C186.539 258.254 187.478 256.058 188.641 256.058C189.804 256.058 190.743 258.254 190.743 260.976Z" fill="#F5F5F5"/>
<path d="M188.641 256.781C189.597 256.781 190.373 256.01 190.373 255.059C190.373 254.107 189.597 253.336 188.641 253.336C187.684 253.336 186.909 254.107 186.909 255.059C186.909 256.01 187.684 256.781 188.641 256.781Z" fill="#F5F5F5"/>
<path d="M196.427 260.976C196.427 263.698 195.488 265.907 194.325 265.907C193.162 265.907 192.223 263.698 192.223 260.976C192.223 258.254 193.162 256.058 194.325 256.058C195.488 256.058 196.427 258.254 196.427 260.976Z" fill="#F5F5F5"/>
<path d="M196.057 255.059C196.057 256.006 195.277 256.781 194.325 256.781C193.373 256.781 192.593 256.006 192.593 255.059C192.593 254.112 193.373 253.336 194.325 253.336C195.277 253.336 196.057 254.112 196.057 255.059Z" fill="#F5F5F5"/>
<path d="M202.124 260.976C202.124 263.698 201.185 265.907 200.022 265.907C198.859 265.907 197.92 263.698 197.92 260.976C197.92 258.254 198.859 256.058 200.022 256.058C201.185 256.058 202.124 258.254 202.124 260.976Z" fill="#F5F5F5"/>
<path d="M200.022 256.781C200.979 256.781 201.754 256.01 201.754 255.059C201.754 254.107 200.979 253.336 200.022 253.336C199.066 253.336 198.291 254.107 198.291 255.059C198.291 256.01 199.066 256.781 200.022 256.781Z" fill="#F5F5F5"/>
<path d="M207.821 260.976C207.821 263.698 206.883 265.907 205.719 265.907C204.556 265.907 203.618 263.698 203.618 260.976C203.618 258.254 204.556 256.058 205.719 256.058C206.883 256.058 207.821 258.254 207.821 260.976Z" fill="#F5F5F5"/>
<path d="M207.451 255.059C207.451 256.006 206.671 256.781 205.719 256.781C204.768 256.781 203.988 256.006 203.988 255.059C203.988 254.112 204.768 253.336 205.719 253.336C206.671 253.336 207.451 254.112 207.451 255.059Z" fill="#F5F5F5"/>
<path d="M251.893 260.976C251.893 263.698 250.955 265.907 249.791 265.907C248.628 265.907 247.689 263.698 247.689 260.976C247.689 258.254 248.628 256.058 249.791 256.058C250.955 256.058 251.893 258.254 251.893 260.976Z" fill="#F5F5F5"/>
<path d="M251.51 255.059C251.51 256.006 250.743 256.781 249.778 256.781C248.813 256.781 248.046 256.006 248.046 255.059C248.046 254.112 248.826 253.336 249.778 253.336C250.73 253.336 251.51 254.112 251.51 255.059Z" fill="#F5F5F5"/>
<path d="M257.577 260.976C257.577 263.698 256.639 265.907 255.475 265.907C254.312 265.907 253.374 263.698 253.374 260.976C253.374 258.254 254.312 256.058 255.475 256.058C256.639 256.058 257.577 258.254 257.577 260.976Z" fill="#F5F5F5"/>
<path d="M257.207 255.059C257.207 256.006 256.427 256.781 255.475 256.781C254.524 256.781 253.744 256.006 253.744 255.059C253.744 254.112 254.51 253.336 255.475 253.336C256.44 253.336 257.207 254.112 257.207 255.059Z" fill="#F5F5F5"/>
<path d="M263.274 260.976C263.274 263.698 262.336 265.907 261.173 265.907C260.009 265.907 259.071 263.698 259.071 260.976C259.071 258.254 260.009 256.058 261.173 256.058C262.336 256.058 263.274 258.254 263.274 260.976Z" fill="#F5F5F5"/>
<path d="M262.904 255.059C262.904 256.006 262.124 256.781 261.173 256.781C260.221 256.781 259.441 256.006 259.441 255.059C259.441 254.112 260.221 253.336 261.173 253.336C262.124 253.336 262.904 254.112 262.904 255.059Z" fill="#F5F5F5"/>
<path d="M268.958 260.976C268.958 263.698 268.02 265.907 266.857 265.907C265.693 265.907 264.755 263.698 264.755 260.976C264.755 258.254 265.693 256.058 266.857 256.058C268.02 256.058 268.958 258.254 268.958 260.976Z" fill="#F5F5F5"/>
<path d="M266.857 256.781C267.813 256.781 268.588 256.01 268.588 255.059C268.588 254.107 267.813 253.336 266.857 253.336C265.9 253.336 265.125 254.107 265.125 255.059C265.125 256.01 265.9 256.781 266.857 256.781Z" fill="#F5F5F5"/>
<path d="M274.656 260.976C274.656 263.698 273.717 265.907 272.554 265.907C271.391 265.907 270.452 263.698 270.452 260.976C270.452 258.254 271.391 256.058 272.554 256.058C273.717 256.058 274.656 258.254 274.656 260.976Z" fill="#F5F5F5"/>
<path d="M274.286 255.059C274.286 256.006 273.519 256.781 272.554 256.781C271.589 256.781 270.822 256.006 270.822 255.059C270.822 254.112 271.602 253.336 272.554 253.336C273.506 253.336 274.286 254.112 274.286 255.059Z" fill="#F5F5F5"/>
<path d="M274.524 252.35C274.524 253.021 273.969 253.586 273.295 253.586H248.298C247.61 253.586 247.055 253.034 247.055 252.35C247.055 251.666 247.61 251.114 248.298 251.114H273.295C273.969 251.114 274.524 251.666 274.524 252.35Z" fill="#F5F5F5"/>
<path d="M209.434 252.35C209.434 253.021 208.879 253.586 208.205 253.586H181.952C181.265 253.586 180.723 253.034 180.723 252.35C180.723 251.666 181.278 251.114 181.952 251.114H208.205C208.892 251.114 209.434 251.666 209.434 252.35Z" fill="#F5F5F5"/>
<path d="M235.647 245.565C234.828 243.422 232.752 241.896 230.307 241.896H224.927C222.495 241.896 220.406 243.422 219.586 245.565H235.647Z" fill="#494949"/>
<path d="M235.581 246.893H219.666V265.355H235.581V246.893Z" fill="#616161"/>
<path d="M235.568 246.893H227.583V265.355H235.568V246.893Z" fill="#545454"/>
<path d="M217.114 265.407V247.117C217.114 243.093 220.406 239.819 224.451 239.819H230.783C234.828 239.819 238.119 243.093 238.119 247.117V265.407H241.067V247.117C241.067 241.476 236.454 236.887 230.783 236.887H224.451C218.767 236.887 214.167 241.476 214.167 247.117V265.407H217.114Z" fill="#F5F5F5"/>
<path d="M217.709 265.407V247.117C217.709 243.409 220.723 240.424 224.451 240.424H230.783C234.51 240.424 237.524 243.422 237.524 247.117V265.407H239.6V247.117C239.6 242.278 235.647 238.346 230.796 238.346H224.464C219.599 238.346 215.647 242.278 215.647 247.117V265.407H217.722H217.709Z" fill="#D6D6D6"/>
<path d="M229.897 256.387C229.897 256.808 229.553 257.15 229.13 257.15C228.707 257.15 228.364 256.808 228.364 256.387C228.364 255.966 228.707 255.624 229.13 255.624C229.553 255.624 229.897 255.966 229.897 256.387Z" fill="#80776D"/>
<path d="M228.271 241.896H226.962V245.565H228.271V241.896Z" fill="#545454"/>
<path d="M183.975 232.416H182.098V251.627H183.975V232.416Z" fill="#F5F5F5"/>
<path d="M206.817 232.416H204.939V251.627H206.817V232.416Z" fill="#F5F5F5"/>
<path d="M250.624 232.416H248.747V251.627H250.624V232.416Z" fill="#F5F5F5"/>
<path d="M273.281 232.416H271.404V251.627H273.281V232.416Z" fill="#F5F5F5"/>
<g clip-path="url(#clip2_271_1808)">
<path d="M619.214 279.151H615.797C615.506 279.151 615.274 278.92 615.274 278.632C615.274 278.343 615.506 278.112 615.797 278.112H619.214C619.505 278.112 619.737 278.343 619.737 278.632C619.737 278.92 619.505 279.151 619.214 279.151Z" fill="black"/>
<path d="M619.947 279.948H615.053C614.763 279.948 614.53 279.717 614.53 279.428C614.53 279.14 614.763 278.909 615.053 278.909H619.947C620.237 278.909 620.47 279.14 620.47 279.428C620.47 279.717 620.237 279.948 619.947 279.948Z" fill="black"/>
<path d="M618.006 217.649H617.134C617.134 216.344 617.762 215.132 618.889 214.254C619.866 213.492 621.179 213.042 622.388 213.042V213.908C621.365 213.908 620.249 214.289 619.424 214.947C618.506 215.663 618.006 216.621 618.006 217.66V217.649Z" fill="#676766"/>
<path d="M620.912 214.554C620.726 215.709 623.724 215.928 626.735 215.674C629.745 215.42 632.023 215.028 632 213.111C631.977 211.206 629.269 210.987 626.27 211.241C623.259 211.495 621.156 213.007 620.912 214.554Z" fill="#8E8E8E"/>
<path d="M631.593 214.3C630.815 215.224 628.978 215.49 626.723 215.674C624.48 215.859 622.248 215.79 621.33 215.259C622.202 214.231 623.899 213.4 626.061 213.215C628.583 213.007 630.908 213.123 631.593 214.3Z" fill="#FAAE21"/>
<path d="M628.467 213.146C628.188 214.058 627.281 214.728 626.212 214.739C625.305 214.739 624.503 214.289 624.108 213.596C624.701 213.411 625.363 213.284 626.072 213.227C626.909 213.157 627.734 213.123 628.478 213.146H628.467Z" fill="white"/>
<path d="M616.995 217.649H617.866C617.866 216.344 617.239 215.132 616.111 214.254C615.135 213.492 613.822 213.042 612.613 213.042V213.908C613.636 213.908 614.751 214.289 615.577 214.947C616.495 215.663 616.995 216.621 616.995 217.66V217.649Z" fill="#676766"/>
<path d="M614.089 214.554C614.275 215.709 611.276 215.928 608.266 215.674C605.255 215.42 602.977 215.028 603 213.123C603.023 211.206 605.732 210.998 608.73 211.241C611.729 211.483 613.845 213.007 614.089 214.554Z" fill="#8E8E8E"/>
<path d="M603.396 214.3C604.174 215.224 606.011 215.49 608.266 215.674C610.509 215.859 612.741 215.79 613.659 215.259C612.787 214.231 611.09 213.4 608.928 213.215C606.406 213.007 604.081 213.123 603.396 214.3Z" fill="#FAAE21"/>
<path d="M606.534 213.146C606.813 214.058 607.719 214.728 608.789 214.739C609.695 214.739 610.497 214.289 610.892 213.596C610.3 213.411 609.637 213.284 608.928 213.227C608.091 213.157 607.266 213.123 606.522 213.146H606.534Z" fill="white"/>
<path d="M618.541 278.412H616.46L616.902 217.706H618.099L618.541 278.412Z" fill="black"/>
<path d="M621.853 281.16C621.771 280.375 621.341 279.763 620.818 279.763H614.181C613.658 279.763 613.228 280.363 613.147 281.16H621.853Z" fill="black"/>
<path d="M618.192 217.487H616.82C616.679 217.487 616.564 217.601 616.564 217.741V217.983C616.564 218.124 616.679 218.237 616.82 218.237H618.192C618.333 218.237 618.447 218.124 618.447 217.983V217.741C618.447 217.601 618.333 217.487 618.192 217.487Z" fill="#676766"/>
</g>
<g clip-path="url(#clip3_271_1808)">
<path d="M64.2142 279.151H60.797C60.5064 279.151 60.2739 278.92 60.2739 278.632C60.2739 278.343 60.5064 278.112 60.797 278.112H64.2142C64.5048 278.112 64.7373 278.343 64.7373 278.632C64.7373 278.92 64.5048 279.151 64.2142 279.151Z" fill="black"/>
<path d="M64.9467 279.948H60.0533C59.7627 279.948 59.5303 279.717 59.5303 279.428C59.5303 279.14 59.7627 278.909 60.0533 278.909H64.9467C65.2373 278.909 65.4698 279.14 65.4698 279.428C65.4698 279.717 65.2373 279.948 64.9467 279.948Z" fill="black"/>
<path d="M63.006 217.649H62.1343C62.1343 216.344 62.7619 215.132 63.8894 214.254C64.8657 213.492 66.1792 213.042 67.388 213.042V213.908C66.3651 213.908 65.2493 214.289 64.4241 214.947C63.5058 215.663 63.006 216.621 63.006 217.66V217.649Z" fill="#676766"/>
<path d="M65.9115 214.554C65.7256 215.709 68.7244 215.928 71.7348 215.674C74.7452 215.42 77.0234 215.028 77.0001 213.111C76.9769 211.206 74.2687 210.987 71.2699 211.241C68.2594 211.495 66.1556 213.007 65.9115 214.554Z" fill="#8E8E8E"/>
<path d="M76.5934 214.3C75.8146 215.224 73.9782 215.49 71.7233 215.674C69.48 215.859 67.2483 215.79 66.3301 215.259C67.2018 214.231 68.8988 213.4 71.0607 213.215C73.583 213.007 75.9076 213.123 76.5934 214.3Z" fill="#FAAE21"/>
<path d="M73.4666 213.146C73.1877 214.058 72.2811 214.728 71.2117 214.739C70.3051 214.739 69.5031 214.289 69.1079 213.596C69.7007 213.411 70.3632 213.284 71.0722 213.227C71.9091 213.157 72.7344 213.123 73.4783 213.146H73.4666Z" fill="white"/>
<path d="M61.9948 217.649H62.8665C62.8665 216.344 62.2388 215.132 61.1114 214.254C60.135 213.492 58.8216 213.042 57.6128 213.042V213.908C58.6356 213.908 59.7515 214.289 60.5767 214.947C61.495 215.663 61.9948 216.621 61.9948 217.66V217.649Z" fill="#676766"/>
<path d="M59.0888 214.554C59.2747 215.709 56.2759 215.928 53.2655 215.674C50.2551 215.42 47.9769 215.028 48.0002 213.123C48.0234 211.206 50.7316 210.998 53.7304 211.241C56.7292 211.483 58.8447 213.007 59.0888 214.554Z" fill="#8E8E8E"/>
<path d="M48.3955 214.3C49.1743 215.224 51.0107 215.49 53.2656 215.674C55.5089 215.859 57.7406 215.79 58.6588 215.259C57.7871 214.231 56.0901 213.4 53.9282 213.215C51.4059 213.007 49.0813 213.123 48.3955 214.3Z" fill="#FAAE21"/>
<path d="M51.5336 213.146C51.8126 214.058 52.7192 214.728 53.7885 214.739C54.6951 214.739 55.4971 214.289 55.8923 213.596C55.2995 213.411 54.637 213.284 53.928 213.227C53.0911 213.157 52.2659 213.123 51.522 213.146H51.5336Z" fill="white"/>
<path d="M63.5405 278.412H61.46L61.9016 217.706H63.0988L63.5405 278.412Z" fill="black"/>
<path d="M66.8528 281.16C66.7714 280.375 66.3414 279.763 65.8183 279.763H59.1814C58.6584 279.763 58.2283 280.363 58.147 281.16H66.8528Z" fill="black"/>
<path d="M63.1917 217.487H61.8202C61.6789 217.487 61.5645 217.601 61.5645 217.741V217.983C61.5645 218.124 61.6789 218.237 61.8202 218.237H63.1917C63.3329 218.237 63.4474 218.124 63.4474 217.983V217.741C63.4474 217.601 63.3329 217.487 63.1917 217.487Z" fill="#676766"/>
</g>
<g clip-path="url(#clip4_271_1808)">
<path d="M935.214 279.151H931.797C931.506 279.151 931.274 278.92 931.274 278.632C931.274 278.343 931.506 278.112 931.797 278.112H935.214C935.505 278.112 935.737 278.343 935.737 278.632C935.737 278.92 935.505 279.151 935.214 279.151Z" fill="black"/>
<path d="M935.947 279.948H931.053C930.763 279.948 930.53 279.717 930.53 279.428C930.53 279.14 930.763 278.909 931.053 278.909H935.947C936.237 278.909 936.47 279.14 936.47 279.428C936.47 279.717 936.237 279.948 935.947 279.948Z" fill="black"/>
<path d="M934.006 217.649H933.134C933.134 216.344 933.762 215.132 934.889 214.254C935.866 213.492 937.179 213.042 938.388 213.042V213.908C937.365 213.908 936.249 214.289 935.424 214.947C934.506 215.663 934.006 216.621 934.006 217.66V217.649Z" fill="#676766"/>
<path d="M936.912 214.554C936.726 215.709 939.724 215.928 942.735 215.674C945.745 215.42 948.023 215.028 948 213.111C947.977 211.206 945.269 210.987 942.27 211.241C939.259 211.495 937.156 213.007 936.912 214.554Z" fill="#8E8E8E"/>
<path d="M947.593 214.3C946.815 215.224 944.978 215.49 942.723 215.674C940.48 215.859 938.248 215.79 937.33 215.259C938.202 214.231 939.899 213.4 942.061 213.215C944.583 213.007 946.908 213.123 947.593 214.3Z" fill="#FAAE21"/>
<path d="M944.467 213.146C944.188 214.058 943.281 214.728 942.212 214.739C941.305 214.739 940.503 214.289 940.108 213.596C940.701 213.411 941.363 213.284 942.072 213.227C942.909 213.157 943.734 213.123 944.478 213.146H944.467Z" fill="white"/>
<path d="M932.995 217.649H933.866C933.866 216.344 933.239 215.132 932.111 214.254C931.135 213.492 929.822 213.042 928.613 213.042V213.908C929.636 213.908 930.751 214.289 931.577 214.947C932.495 215.663 932.995 216.621 932.995 217.66V217.649Z" fill="#676766"/>
<path d="M930.089 214.554C930.275 215.709 927.276 215.928 924.266 215.674C921.255 215.42 918.977 215.028 919 213.123C919.023 211.206 921.732 210.998 924.73 211.241C927.729 211.483 929.845 213.007 930.089 214.554Z" fill="#8E8E8E"/>
<path d="M919.396 214.3C920.174 215.224 922.011 215.49 924.266 215.674C926.509 215.859 928.741 215.79 929.659 215.259C928.787 214.231 927.09 213.4 924.928 213.215C922.406 213.007 920.081 213.123 919.396 214.3Z" fill="#FAAE21"/>
<path d="M922.534 213.146C922.813 214.058 923.719 214.728 924.789 214.739C925.695 214.739 926.497 214.289 926.892 213.596C926.3 213.411 925.637 213.284 924.928 213.227C924.091 213.157 923.266 213.123 922.522 213.146H922.534Z" fill="white"/>
<path d="M934.541 278.412H932.46L932.902 217.706H934.099L934.541 278.412Z" fill="black"/>
<path d="M937.853 281.16C937.771 280.375 937.341 279.763 936.818 279.763H930.181C929.658 279.763 929.228 280.363 929.147 281.16H937.853Z" fill="black"/>
<path d="M934.192 217.487H932.82C932.679 217.487 932.564 217.601 932.564 217.741V217.983C932.564 218.124 932.679 218.237 932.82 218.237H934.192C934.333 218.237 934.447 218.124 934.447 217.983V217.741C934.447 217.601 934.333 217.487 934.192 217.487Z" fill="#676766"/>
</g>
<g clip-path="url(#clip5_271_1808)">
<path d="M1321.21 279.151H1317.8C1317.51 279.151 1317.27 278.92 1317.27 278.632C1317.27 278.343 1317.51 278.112 1317.8 278.112H1321.21C1321.5 278.112 1321.74 278.343 1321.74 278.632C1321.74 278.92 1321.5 279.151 1321.21 279.151Z" fill="black"/>
<path d="M1321.95 279.948H1317.05C1316.76 279.948 1316.53 279.717 1316.53 279.428C1316.53 279.14 1316.76 278.909 1317.05 278.909H1321.95C1322.24 278.909 1322.47 279.14 1322.47 279.428C1322.47 279.717 1322.24 279.948 1321.95 279.948Z" fill="black"/>
<path d="M1320.01 217.649H1319.13C1319.13 216.344 1319.76 215.132 1320.89 214.254C1321.87 213.492 1323.18 213.042 1324.39 213.042V213.908C1323.37 213.908 1322.25 214.289 1321.42 214.947C1320.51 215.663 1320.01 216.621 1320.01 217.66V217.649Z" fill="#676766"/>
<path d="M1322.91 214.554C1322.73 215.709 1325.72 215.928 1328.73 215.674C1331.75 215.42 1334.02 215.028 1334 213.111C1333.98 211.206 1331.27 210.987 1328.27 211.241C1325.26 211.495 1323.16 213.007 1322.91 214.554Z" fill="#8E8E8E"/>
<path d="M1333.59 214.3C1332.81 215.224 1330.98 215.49 1328.72 215.674C1326.48 215.859 1324.25 215.79 1323.33 215.259C1324.2 214.231 1325.9 213.4 1328.06 213.215C1330.58 213.007 1332.91 213.123 1333.59 214.3Z" fill="#FAAE21"/>
<path d="M1330.47 213.146C1330.19 214.058 1329.28 214.728 1328.21 214.739C1327.31 214.739 1326.5 214.289 1326.11 213.596C1326.7 213.411 1327.36 213.284 1328.07 213.227C1328.91 213.157 1329.73 213.123 1330.48 213.146H1330.47Z" fill="white"/>
<path d="M1318.99 217.649H1319.87C1319.87 216.344 1319.24 215.132 1318.11 214.254C1317.14 213.492 1315.82 213.042 1314.61 213.042V213.908C1315.64 213.908 1316.75 214.289 1317.58 214.947C1318.49 215.663 1318.99 216.621 1318.99 217.66V217.649Z" fill="#676766"/>
<path d="M1316.09 214.554C1316.27 215.709 1313.28 215.928 1310.27 215.674C1307.26 215.42 1304.98 215.028 1305 213.123C1305.02 211.206 1307.73 210.998 1310.73 211.241C1313.73 211.483 1315.84 213.007 1316.09 214.554Z" fill="#8E8E8E"/>
<path d="M1305.4 214.3C1306.17 215.224 1308.01 215.49 1310.27 215.674C1312.51 215.859 1314.74 215.79 1315.66 215.259C1314.79 214.231 1313.09 213.4 1310.93 213.215C1308.41 213.007 1306.08 213.123 1305.4 214.3Z" fill="#FAAE21"/>
<path d="M1308.53 213.146C1308.81 214.058 1309.72 214.728 1310.79 214.739C1311.7 214.739 1312.5 214.289 1312.89 213.596C1312.3 213.411 1311.64 213.284 1310.93 213.227C1310.09 213.157 1309.27 213.123 1308.52 213.146H1308.53Z" fill="white"/>
<path d="M1320.54 278.412H1318.46L1318.9 217.706H1320.1L1320.54 278.412Z" fill="black"/>
<path d="M1323.85 281.16C1323.77 280.375 1323.34 279.763 1322.82 279.763H1316.18C1315.66 279.763 1315.23 280.363 1315.15 281.16H1323.85Z" fill="black"/>
<path d="M1320.19 217.487H1318.82C1318.68 217.487 1318.56 217.601 1318.56 217.741V217.983C1318.56 218.124 1318.68 218.237 1318.82 218.237H1320.19C1320.33 218.237 1320.45 218.124 1320.45 217.983V217.741C1320.45 217.601 1320.33 217.487 1320.19 217.487Z" fill="#676766"/>
</g>
<defs>
<clipPath id="clip0_271_1808">
<rect width="1388" height="327" fill="white"/>
</clipPath>
<clipPath id="clip1_271_1808">
<rect width="204.28" height="187.69" fill="white" transform="translate(1040 94.16)"/>
</clipPath>
<clipPath id="clip2_271_1808">
<rect width="29" height="70" fill="white" transform="translate(603 211.16)"/>
</clipPath>
<clipPath id="clip3_271_1808">
<rect width="29" height="70" fill="white" transform="translate(48 211.16)"/>
</clipPath>
<clipPath id="clip4_271_1808">
<rect width="29" height="70" fill="white" transform="translate(919 211.16)"/>
</clipPath>
<clipPath id="clip5_271_1808">
<rect width="29" height="70" fill="white" transform="translate(1305 211.16)"/>
</clipPath>
</defs>
</svg>
