<svg width="162" height="64" viewBox="0 0 162 64" fill="none" xmlns="http://www.w3.org/2000/svg">
<g clip-path="url(#clip0_271_2110)">
<path d="M51.3608 40.037H24.0486C23.9093 40.037 23.7964 40.1475 23.7964 40.2838V47.919C23.7964 48.0553 23.9093 48.1658 24.0486 48.1658H51.3608C51.5001 48.1658 51.613 48.0553 51.613 47.919V40.2838C51.613 40.1475 51.5001 40.037 51.3608 40.037Z" fill="#59473D"/>
<path d="M84.7136 36.9054H115.896C116.034 36.9054 116.148 37.017 116.148 37.1522V47.6869C116.148 47.8221 116.037 47.9337 115.896 47.9337H84.7106C84.5725 47.9337 84.4614 47.825 84.4614 47.6899V37.1551C84.4614 37.02 84.5755 36.9083 84.7136 36.9083V36.9054Z" fill="#59473D"/>
<path d="M10.1628 45.4689H135.261C135.675 45.4689 136.015 45.798 136.015 46.2063V49.5818C136.015 49.9872 135.678 50.3192 135.261 50.3192H10.1628C9.74844 50.3192 9.40918 49.9901 9.40918 49.5818V46.2063C9.40918 45.8009 9.74544 45.4689 10.1628 45.4689Z" fill="#9E9693"/>
<path d="M2.31169 0.160034H118.817C119.232 0.160034 119.571 0.489062 119.571 0.897409V42.3343C119.571 42.7427 119.235 43.0717 118.817 43.0717H2.31169C1.89737 43.0717 1.55811 42.7427 1.55811 42.3343V0.897409C1.55811 0.492 1.89437 0.160034 2.31169 0.160034Z" fill="#E4E4E4"/>
<path d="M0.753586 42.3637H120.379C120.793 42.3637 121.132 42.6927 121.132 43.1011V43.1569C121.132 43.5623 120.796 43.8943 120.379 43.8943H0.753586C0.339264 43.8943 0 43.5652 0 43.1569V43.1011C0 42.6957 0.336262 42.3637 0.753586 42.3637Z" fill="#9F9691"/>
<path d="M122.396 3.78229V14.8811H143.641C143.641 14.8811 137.339 3.78229 122.396 3.78229Z" fill="#FE5D62"/>
<path d="M155.344 15.6184C155.248 15.2219 155.008 14.8811 154.59 14.8811H122.369C121.952 14.8811 121.616 15.2101 121.616 15.6184V41.9759C121.616 42.1199 121.658 42.2521 121.73 42.3637H136.012C142.158 42.3637 147.142 47.2404 147.142 53.2539C147.142 53.5565 147.127 53.8562 147.1 54.1558H158.544C158.962 54.1558 159.298 53.8268 159.298 53.4184V32.0845C159.298 32.0845 156.311 19.6432 155.338 15.6155L155.344 15.6184Z" fill="#FE5D62"/>
<path d="M144.058 46.7645L134.594 42.3637L125.972 46.1505L123.044 53.9649H146.144L144.058 46.7645Z" fill="#59473D"/>
<path d="M144.928 53.9649C144.928 48.7944 140.233 44.426 134.675 44.426C129.118 44.426 124.422 48.7944 124.422 53.9649C124.422 54.711 121.66 54.711 121.66 53.9649C121.66 47.3285 127.62 41.7233 134.675 41.7233C141.731 41.7233 147.69 47.3285 147.69 53.9649C147.69 54.711 144.928 54.711 144.928 53.9649Z" fill="#B6ABA5"/>
<path d="M134.676 43.0717C128.53 43.0717 123.042 47.9484 123.042 53.9619V54.5231C123.732 54.5231 124.423 54.335 124.423 53.9619C124.423 48.7915 129.118 44.4231 134.676 44.4231C140.233 44.4231 144.929 48.7915 144.929 53.9619C144.929 54.335 145.619 54.5231 146.31 54.5231V53.9619C146.31 47.9454 140.824 43.0717 134.676 43.0717Z" fill="#7E6D63"/>
<path d="M143.796 54.1558C143.796 59.1294 139.677 63.16 134.594 63.16C129.511 63.16 125.392 59.1294 125.392 54.1558C125.392 49.1822 129.511 45.1516 134.594 45.1516C139.677 45.1516 143.796 49.1822 143.796 54.1558Z" fill="#6F5755"/>
<path d="M140.461 54.1558C140.461 57.3257 137.834 59.8962 134.595 59.8962C131.355 59.8962 128.728 57.3257 128.728 54.1558C128.728 50.986 131.355 48.4155 134.595 48.4155C137.834 48.4155 140.461 50.986 140.461 54.1558Z" fill="#7E6D63"/>
<path d="M139.341 54.1558C139.341 56.7205 137.215 58.8004 134.594 58.8004C131.973 58.8004 129.848 56.7205 129.848 54.1558C129.848 51.5912 131.973 49.5112 134.594 49.5112C137.215 49.5112 139.341 51.5912 139.341 54.1558Z" fill="#B6ABA5"/>
<path d="M136.015 54.1558C136.015 54.9225 135.378 55.5453 134.594 55.5453C133.811 55.5453 133.174 54.9225 133.174 54.1558C133.174 53.389 133.811 52.7662 134.594 52.7662C135.378 52.7662 136.015 53.389 136.015 54.1558Z" fill="#6F5755"/>
<path d="M93.8439 46.7645L84.3805 42.3637L75.7578 46.1505L72.8306 53.9649H95.9335L93.8439 46.7645Z" fill="#59473D"/>
<path d="M94.7173 53.9649C94.7173 48.7944 90.0217 44.426 84.4643 44.426C78.907 44.426 74.2114 48.7944 74.2114 53.9649C74.2114 54.711 71.4492 54.711 71.4492 53.9649C71.4492 47.3285 77.4089 41.7233 84.4643 41.7233C91.5198 41.7233 97.4795 47.3285 97.4795 53.9649C97.4795 54.711 94.7173 54.711 94.7173 53.9649Z" fill="#B6ABA5"/>
<path d="M84.4646 43.0717C78.3158 43.0717 72.8306 47.9484 72.8306 53.9619V54.5231C73.5211 54.5231 74.2116 54.335 74.2116 53.9619C74.2116 48.7915 78.9073 44.4231 84.4646 44.4231C90.0219 44.4231 94.7176 48.7915 94.7176 53.9619C94.7176 54.335 95.4081 54.5231 96.0987 54.5231V53.9619C96.0987 47.9454 90.6134 43.0717 84.4646 43.0717Z" fill="#7E6D63"/>
<path d="M93.5855 54.1558C93.5855 59.1294 89.4663 63.16 84.3833 63.16C79.3004 63.16 75.1812 59.1294 75.1812 54.1558C75.1812 49.1822 79.3004 45.1516 84.3833 45.1516C89.4663 45.1516 93.5855 49.1822 93.5855 54.1558Z" fill="#6F5755"/>
<path d="M90.2468 54.1558C90.2468 57.3257 87.6197 59.8962 84.3802 59.8962C81.1407 59.8962 78.5137 57.3257 78.5137 54.1558C78.5137 50.986 81.1407 48.4155 84.3802 48.4155C87.6197 48.4155 90.2468 50.986 90.2468 54.1558Z" fill="#7E6D63"/>
<path d="M89.1272 54.1558C89.1272 56.7205 87.0015 58.8004 84.3805 58.8004C81.7594 58.8004 79.6338 56.7205 79.6338 54.1558C79.6338 51.5912 81.7594 49.5112 84.3805 49.5112C87.0015 49.5112 89.1272 51.5912 89.1272 54.1558Z" fill="#B6ABA5"/>
<path d="M85.8007 54.1558C85.8007 54.9225 85.1642 55.5453 84.3805 55.5453C83.5969 55.5453 82.9604 54.9225 82.9604 54.1558C82.9604 53.389 83.5969 52.7662 84.3805 52.7662C85.1642 52.7662 85.8007 53.389 85.8007 54.1558Z" fill="#6F5755"/>
<path d="M31.2453 46.7645L21.7819 42.3637L13.1592 46.1505L10.2319 53.9649H33.3319L31.2453 46.7645Z" fill="#59473D"/>
<path d="M32.1158 53.9649C32.1158 48.7944 27.4201 44.426 21.8628 44.426C16.3055 44.426 11.6098 48.7944 11.6098 53.9649C11.6098 54.711 8.84766 54.711 8.84766 53.9649C8.84766 47.3285 14.8073 41.7233 21.8628 41.7233C28.9183 41.7233 34.8779 47.3285 34.8779 53.9649C34.8779 54.711 32.1158 54.711 32.1158 53.9649Z" fill="#B6ABA5"/>
<path d="M21.866 43.0717C15.7172 43.0717 10.2319 47.9484 10.2319 53.9619V54.5231C10.9225 54.5231 11.613 54.335 11.613 53.9619C11.613 48.7915 16.3087 44.4231 21.866 44.4231C27.4233 44.4231 32.119 48.7915 32.119 53.9619C32.119 54.335 32.8095 54.5231 33.5 54.5231V53.9619C33.5 47.9454 28.0148 43.0717 21.866 43.0717Z" fill="#7E6D63"/>
<path d="M30.9839 54.1558C30.9839 59.1294 26.8647 63.16 21.7817 63.16C16.6988 63.16 12.5796 59.1294 12.5796 54.1558C12.5796 49.1822 16.6988 45.1516 21.7817 45.1516C26.8647 45.1516 30.9839 49.1822 30.9839 54.1558Z" fill="#6F5755"/>
<path d="M27.6482 54.1558C27.6482 57.3257 25.0211 59.8962 21.7816 59.8962C18.5421 59.8962 15.915 57.3257 15.915 54.1558C15.915 50.986 18.5421 48.4155 21.7816 48.4155C25.0211 48.4155 27.6482 50.986 27.6482 54.1558Z" fill="#7E6D63"/>
<path d="M26.5285 54.1558C26.5285 56.7205 24.4029 58.8004 21.7818 58.8004C19.1608 58.8004 17.0352 56.7205 17.0352 54.1558C17.0352 51.5912 19.1608 49.5112 21.7818 49.5112C24.4029 49.5112 26.5285 51.5912 26.5285 54.1558Z" fill="#B6ABA5"/>
<path d="M23.202 54.1558C23.202 54.9225 22.5655 55.5453 21.7819 55.5453C20.9983 55.5453 20.3618 54.9225 20.3618 54.1558C20.3618 53.389 20.9983 52.7662 21.7819 52.7662C22.5655 52.7662 23.202 53.389 23.202 54.1558Z" fill="#6F5755"/>
<path d="M151.915 19.5991C151.915 19.1908 151.579 18.8617 151.162 18.8617H133.772C133.358 18.8617 133.019 19.1908 133.019 19.5991V40.4277H136.426C141.365 40.4277 146.19 43.5741 147.646 47.9307H154.341C154.758 47.9307 155.095 47.6017 155.095 47.1934V33.8442L151.915 19.5962V19.5991Z" fill="#DD484A"/>
<path d="M160.346 46.2327H157.166C156.749 46.2327 156.413 46.5618 156.413 46.9701V49.5113H146.319C145.902 49.5113 145.565 49.8403 145.565 50.2486V54.2851C145.565 54.6934 145.902 55.0225 146.319 55.0225H160.346C160.763 55.0225 161.1 54.6934 161.1 54.2851V46.9701C161.1 46.5618 160.763 46.2327 160.346 46.2327Z" fill="#7E6D63"/>
<path d="M160.346 46.2327H159.842V51.3973C159.842 51.8056 159.505 52.1347 159.088 52.1347H145.565V54.2851C145.565 54.6934 145.902 55.0225 146.319 55.0225H160.346C160.763 55.0225 161.1 54.6934 161.1 54.2851V46.9701C161.1 46.5618 160.763 46.2327 160.346 46.2327Z" fill="#B6ABA5"/>
<path d="M126.131 19.3112H130.088C130.505 19.3112 130.842 19.6402 130.842 20.0486V30.4306C130.842 30.836 130.505 31.168 130.088 31.168H126.131C125.717 31.168 125.377 30.8389 125.377 30.4306V20.0486C125.377 19.6432 125.714 19.3112 126.131 19.3112Z" fill="#796860"/>
<path d="M153.651 33.0276C153.651 33.4359 153.314 33.765 152.897 33.765C152.897 33.765 139.302 32.0052 134.841 31.4089C134.43 31.3531 134.087 31.0799 134.087 30.6715V20.7331C134.087 20.3277 134.424 19.9957 134.841 19.9957H150.264C150.681 19.9957 150.931 20.3336 151.018 20.7331C151.678 23.7972 153.651 33.0276 153.651 33.0276Z" fill="#796860"/>
<path d="M156.13 18.8823C155.143 18.753 154.545 18.6767 154.545 18.6767C154.128 18.6767 153.792 19.0057 153.792 19.414C153.792 19.414 155.764 28.6444 156.425 31.7085C156.512 32.108 156.761 32.4459 157.178 32.4459H159.304V32.0845C159.304 32.0845 157.394 24.1262 156.13 18.8823Z" fill="#796860"/>
<path d="M126.693 19.6344H129.8C130.214 19.6344 130.554 19.9634 130.554 20.3717V29.1115C130.554 29.517 130.217 29.8489 129.8 29.8489H126.693C126.278 29.8489 125.939 29.5199 125.939 29.1115V20.3717C125.939 19.9663 126.275 19.6344 126.693 19.6344Z" fill="#CAF7F4"/>
<path d="M153.218 32.2637C153.218 32.6398 152.906 32.9453 152.522 32.9453C152.522 32.9453 139.942 31.3178 135.814 30.7655C135.432 30.7156 135.117 30.46 135.117 30.0839V20.8829C135.117 20.5069 135.429 20.2014 135.814 20.2014H150.084C150.468 20.2014 150.702 20.5157 150.78 20.8829C151.39 23.7208 153.215 32.2637 153.215 32.2637H153.218Z" fill="#CAF7F4"/>
<path d="M154.924 18.9704C154.539 18.9704 154.227 19.276 154.227 19.652C154.227 19.652 156.052 28.1979 156.662 31.0328C156.74 31.403 156.974 31.7144 157.358 31.7144H159.214C158.833 30.1192 157.289 23.6943 156.191 19.132C155.398 19.0292 154.924 18.9675 154.924 18.9675V18.9704Z" fill="#CAF7F4"/>
<path d="M138.011 33.3889C138.011 33.7062 137.75 33.9618 137.426 33.9618H134.676C134.352 33.9618 134.09 33.7062 134.09 33.3889C134.09 33.0716 134.352 32.816 134.676 32.816H137.426C137.75 32.816 138.011 33.0716 138.011 33.3889Z" fill="#54433B"/>
<path d="M119.781 47.4813H99.2814C98.8652 47.4813 98.5278 47.8114 98.5278 48.2186V55.7657C98.5278 56.173 98.8652 56.5031 99.2814 56.5031H119.781C120.198 56.5031 120.535 56.173 120.535 55.7657V48.2186C120.535 47.8114 120.198 47.4813 119.781 47.4813Z" fill="#B6ABA5"/>
<path d="M103.166 46.9877H104.124C104.262 46.9877 104.376 47.0994 104.376 47.2345V56.7469C104.376 56.8821 104.265 56.9937 104.124 56.9937H103.166C103.028 56.9937 102.914 56.8821 102.914 56.7469V47.2345C102.914 47.0994 103.028 46.9877 103.166 46.9877Z" fill="#7E6D63"/>
<path d="M114.939 46.9877H115.896C116.034 46.9877 116.149 47.0994 116.149 47.2345V56.7469C116.149 56.8821 116.037 56.9937 115.896 56.9937H114.939C114.801 56.9937 114.689 56.885 114.689 56.7499V47.2374C114.689 47.1023 114.801 46.9907 114.942 46.9907L114.939 46.9877Z" fill="#7E6D63"/>
<path d="M36.8479 46.9877H69.7535C69.8916 46.9877 70.0057 47.0994 70.0057 47.2345V53.0189C70.0057 53.1541 69.8946 53.2657 69.7535 53.2657H36.8479C36.7098 53.2657 36.5957 53.157 36.5957 53.0189V47.2345C36.5957 47.0994 36.7068 46.9877 36.8479 46.9877Z" fill="#B6ABA5"/>
<path d="M68.108 51.1182H38.49C38.3507 51.1182 38.2378 51.2287 38.2378 51.365V52.5195C38.2378 52.6558 38.3507 52.7663 38.49 52.7663H68.108C68.2473 52.7663 68.3602 52.6558 68.3602 52.5195V51.365C68.3602 51.2287 68.2473 51.1182 68.108 51.1182Z" fill="#7E6D63"/>
<path d="M6.35913 46.8996H15.6664C15.8045 46.8996 15.9186 47.0083 15.9186 47.1464V48.8209C15.9186 48.956 15.8045 49.0677 15.6664 49.0677H6.35913C6.22102 49.0677 6.10693 48.959 6.10693 48.8209V47.1464C6.10693 47.0112 6.21802 46.8996 6.35913 46.8996Z" fill="#B6ABA5"/>
<path d="M6.58716 45.5571H4.99292C4.85363 45.5571 4.74072 45.6675 4.74072 45.8038V50.1605C4.74072 50.2968 4.85363 50.4073 4.99292 50.4073H6.58716C6.72644 50.4073 6.83935 50.2968 6.83935 50.1605V45.8038C6.83935 45.6675 6.72644 45.5571 6.58716 45.5571Z" fill="#7E6D63"/>
<path d="M154.743 15.0045H122.396C122.327 15.0045 122.27 14.9486 122.27 14.8811C122.27 14.8135 122.327 14.7577 122.396 14.7577H154.743C154.812 14.7577 154.869 14.8135 154.869 14.8811C154.869 14.9486 154.812 15.0045 154.743 15.0045Z" fill="#FF7E7C"/>
<path d="M124.197 38.2098H126.587C127.002 38.2098 127.341 38.5389 127.341 38.9472V39.0882C127.341 39.4936 127.005 39.8256 126.587 39.8256H124.197C123.783 39.8256 123.444 39.4966 123.444 39.0882V38.9472C123.444 38.5418 123.78 38.2098 124.197 38.2098Z" fill="#FFF7D8"/>
<path d="M124.858 39.2822C124.441 39.2822 124.104 38.9531 124.104 38.5448V38.4067C124.104 38.3391 124.116 38.2775 124.134 38.2158C123.75 38.2481 123.444 38.5595 123.444 38.9473V39.0853C123.444 39.4937 123.78 39.8227 124.197 39.8227H126.587C126.936 39.8227 127.224 39.5906 127.311 39.2763C127.29 39.2763 127.269 39.2822 127.248 39.2822H124.858Z" fill="#FFE785"/>
<path d="M156.437 38.2097H158.827C159.241 38.2097 159.58 38.5388 159.58 38.9471V39.0852C159.58 39.4906 159.244 39.8225 158.827 39.8225H156.437C156.022 39.8225 155.683 39.4935 155.683 39.0852V38.9442C155.683 38.5388 156.019 38.2068 156.437 38.2068V38.2097Z" fill="#FFF7D8"/>
<path d="M157.097 39.282C156.68 39.282 156.344 38.953 156.344 38.5446V38.4065C156.344 38.339 156.356 38.2773 156.374 38.2156C155.989 38.2479 155.683 38.5593 155.683 38.9471V39.0852C155.683 39.4935 156.019 39.8225 156.437 39.8225H158.827C159.175 39.8225 159.463 39.5904 159.55 39.2761C159.529 39.2761 159.508 39.282 159.487 39.282H157.097Z" fill="#FFE785"/>
<path d="M157.598 40.8831H159.736C160.15 40.8831 160.49 41.2121 160.49 41.6204V44.7315C160.49 45.1369 160.153 45.4689 159.736 45.4689H157.598C157.184 45.4689 156.845 45.1399 156.845 44.7315V41.6204C156.845 41.2121 157.181 40.8831 157.598 40.8831Z" fill="#FFF7D8"/>
<path d="M157.757 43.9207V40.8831H157.598C157.181 40.8831 156.845 41.2121 156.845 41.6204V44.7315C156.845 45.1369 157.181 45.4689 157.598 45.4689H159.736C160.153 45.4689 160.49 45.1399 160.49 44.7315V44.6581H158.508C158.091 44.6581 157.754 44.329 157.754 43.9207H157.757Z" fill="#FFE785"/>
<path d="M161.687 51.1241H159.298C158.88 51.1241 158.544 50.795 158.544 50.3867V50.2486C158.544 49.8403 158.88 49.5112 159.298 49.5112H161.687C162.105 49.5112 162.105 51.1241 161.687 51.1241Z" fill="#FFF7D8"/>
<path d="M159.262 50.0106V49.8726C159.262 49.7404 159.301 49.6199 159.361 49.5142H159.295C158.877 49.5142 158.541 49.8432 158.541 50.2515V50.3896C158.541 50.798 158.877 51.127 159.295 51.127H161.684C161.817 51.127 161.904 50.9683 161.955 50.748H160.015C159.598 50.748 159.262 50.419 159.262 50.0106Z" fill="#FFE785"/>
<path fill-rule="evenodd" clip-rule="evenodd" d="M32.6522 27.1642C32.6522 26.4312 32.142 26.0324 31.3151 26.0324H30.0425V28.3196H31.3444C32.1654 28.3196 32.6463 27.8269 32.6463 27.1877V27.1642H32.6522ZM31.2975 29.7798H30.0483V32.026H28.4004V24.5486H31.4558C33.2387 24.5486 34.3177 25.6043 34.3177 27.1349V27.1584C34.3177 28.8884 32.9689 29.7857 31.2916 29.7857L31.2975 29.7798Z" fill="#0082C9"/>
<path fill-rule="evenodd" clip-rule="evenodd" d="M38.9856 32.026V28.8298C38.9856 28.0615 38.622 27.6627 38.0004 27.6627C37.3787 27.6627 36.9858 28.0557 36.9858 28.8298V32.026H35.3613V24.5428H36.9858V27.1115C37.3611 26.6306 37.842 26.1907 38.6631 26.1907C39.8888 26.1907 40.6101 27 40.6101 28.3196V32.026H38.9856Z" fill="#0082C9"/>
<path fill-rule="evenodd" clip-rule="evenodd" d="M45.4076 29.7212C45.132 29.5921 44.7684 29.5042 44.3696 29.5042C43.6775 29.5042 43.2494 29.7798 43.2494 30.2959V30.3193C43.2494 30.7592 43.613 31.0114 44.135 31.0114C44.8915 31.0114 45.4076 30.595 45.4076 30.0085V29.7212ZM45.3724 32.0259V31.4043C44.9795 31.8441 44.4341 32.1315 43.6424 32.1315C42.5633 32.1315 41.6777 31.5099 41.6777 30.378V30.3545C41.6777 29.1054 42.6278 28.5248 43.9884 28.5248C44.5631 28.5248 44.9795 28.6245 45.39 28.7594V28.6655C45.39 27.9911 44.9736 27.6158 44.1643 27.6158C43.5427 27.6158 43.1087 27.7331 42.5809 27.9266L42.1762 26.6892C42.8096 26.4136 43.4254 26.2318 44.3989 26.2318C46.17 26.2318 46.95 27.1525 46.95 28.7007V32.0259H45.3783H45.3724Z" fill="#0082C9"/>
<path fill-rule="evenodd" clip-rule="evenodd" d="M51.712 27.8914C50.6329 27.8914 49.9702 28.5424 49.9702 29.9089V32.026H48.3457V26.3021H49.9702V27.4575C50.2986 26.6657 50.8381 26.1555 51.7941 26.1966V27.8973H51.7061L51.712 27.8914Z" fill="#0082C9"/>
<path fill-rule="evenodd" clip-rule="evenodd" d="M59.9282 32.026V28.8298C59.9282 28.0615 59.588 27.6627 58.9781 27.6627C58.3682 27.6627 57.9929 28.0557 57.9929 28.8298V32.026H56.3684V28.8298C56.3684 28.0615 56.0282 27.6627 55.4183 27.6627C54.8084 27.6627 54.4389 28.0557 54.4389 28.8298V32.026H52.8145V26.2963H54.4389V27.1056C54.8143 26.6247 55.3069 26.1849 56.1279 26.1849C56.8727 26.1849 57.4416 26.5133 57.7407 27.0939C58.245 26.5074 58.8432 26.1849 59.6232 26.1849C60.8313 26.1849 61.5585 26.9121 61.5585 28.2903V32.0201H59.934L59.9282 32.026Z" fill="#0082C9"/>
<path fill-rule="evenodd" clip-rule="evenodd" d="M66.35 29.7212C66.0743 29.5921 65.7107 29.5042 65.3119 29.5042C64.6199 29.5042 64.1918 29.7798 64.1918 30.2959V30.3193C64.1918 30.7592 64.5554 31.0114 65.0774 31.0114C65.8339 31.0114 66.35 30.595 66.35 30.0085V29.7212ZM66.3148 32.0259V31.4043C65.9219 31.8441 65.3765 32.1315 64.5847 32.1315C63.5057 32.1315 62.6201 31.5099 62.6201 30.378V30.3545C62.6201 29.1054 63.5702 28.5248 64.9308 28.5248C65.5055 28.5248 65.9219 28.6245 66.3324 28.7594V28.6655C66.3324 27.9911 65.916 27.6158 65.1008 27.6158C64.4792 27.6158 64.0452 27.7331 63.5174 27.9266L63.1127 26.6892C63.7461 26.4136 64.3619 26.2318 65.3354 26.2318C67.1065 26.2318 67.8865 27.1525 67.8865 28.7007V32.0259H66.3148Z" fill="#0082C9"/>
<path fill-rule="evenodd" clip-rule="evenodd" d="M72.3026 27.8797C73.9681 28.2433 74.7364 28.8532 74.7364 30.0085C74.7364 31.2987 73.6691 32.1374 72.1853 32.1374C71.0007 32.1374 70.0272 31.7444 69.1299 30.941L69.6518 30.3194C70.4318 31.0231 71.1766 31.375 72.2146 31.375C73.2527 31.375 73.8802 30.853 73.8802 30.0906C73.8802 29.3869 73.5048 28.9881 71.939 28.6597C70.2207 28.2843 69.429 27.7331 69.429 26.4898C69.429 25.2465 70.467 24.4372 71.8862 24.4372C72.977 24.4372 73.757 24.748 74.5135 25.3579L74.0209 26.0089C73.323 25.4459 72.631 25.1996 71.8628 25.1996C70.8893 25.1996 70.2676 25.7333 70.2676 26.4194C70.2676 27.1056 70.6488 27.5337 72.2967 27.8856" fill="#898B8D"/>
<path fill-rule="evenodd" clip-rule="evenodd" d="M80.3662 28.9588C80.2782 27.956 79.7035 27.0763 78.6068 27.0763C77.645 27.0763 76.9178 27.8797 76.8123 28.9588H80.3721H80.3662ZM78.7534 31.4395C79.51 31.4395 80.0436 31.1287 80.4952 30.6595L81.0054 31.117C80.4483 31.7386 79.7797 32.1491 78.7358 32.155H78.73C77.2111 32.155 75.9736 30.988 75.9736 29.2696C75.9736 27.6686 77.0938 26.3843 78.6244 26.3843C80.2606 26.3843 81.199 27.6862 81.199 29.3107C81.199 29.3869 81.199 29.469 81.1872 29.5687H76.8064C76.9237 30.7651 77.7799 31.4395 78.7534 31.4395Z" fill="#898B8D"/>
<path fill-rule="evenodd" clip-rule="evenodd" d="M85.1343 32.155C83.5216 32.155 82.3018 30.8413 82.3018 29.2814C82.3018 27.7214 83.5216 26.3843 85.1343 26.3843C86.1841 26.3843 86.8351 26.8241 87.3453 27.3695L86.7999 27.9443C86.36 27.4868 85.8674 27.1115 85.1226 27.1115C84.0025 27.1115 83.1463 28.0615 83.1463 29.2579C83.1463 30.4543 84.0201 31.4161 85.1754 31.4161C85.8791 31.4161 86.4246 31.0642 86.8644 30.595L87.3863 31.0877C86.8292 31.7093 86.1665 32.155 85.1343 32.155Z" fill="#898B8D"/>
<path fill-rule="evenodd" clip-rule="evenodd" d="M92.6642 26.5016H93.4794V32.026H92.6642V31.0642C92.2888 31.6624 91.7258 32.1433 90.7758 32.1433C89.4387 32.1433 88.6587 31.246 88.6587 29.9324V26.5016H89.4797V29.7271C89.4797 30.7534 90.0369 31.3926 91.0104 31.3926C91.9839 31.3926 92.6642 30.6947 92.6642 29.6626V26.5016Z" fill="#898B8D"/>
<path fill-rule="evenodd" clip-rule="evenodd" d="M96.1472 32.0259H95.3262V26.5015H96.1472V27.9442C96.5519 27.0235 97.3553 26.3608 98.3992 26.4077V27.2932H98.3347C97.1266 27.2932 96.1472 28.1612 96.1472 29.8267V32.0259Z" fill="#898B8D"/>
<path fill-rule="evenodd" clip-rule="evenodd" d="M103.467 28.9588C103.379 27.956 102.804 27.0763 101.702 27.0763C100.74 27.0763 100.013 27.8797 99.907 28.9588H103.467ZM101.854 31.4395C102.611 31.4395 103.15 31.1287 103.596 30.6595L104.106 31.117C103.549 31.7386 102.88 32.1491 101.836 32.155H101.831C100.318 32.155 99.0742 30.988 99.0742 29.2696C99.0742 27.6686 100.194 26.3843 101.725 26.3843C103.349 26.3843 104.288 27.6745 104.3 29.2872V29.3811C104.3 29.4397 104.3 29.5042 104.288 29.5687H99.907C100.024 30.7651 100.881 31.4395 101.848 31.4395H101.854Z" fill="#898B8D"/>
<path fill-rule="evenodd" clip-rule="evenodd" d="M31.2036 21.1648C31.7314 21.1648 32.1654 20.7367 32.1654 20.203V17.2649C32.1654 16.7371 31.7314 16.3089 31.2036 16.3089H25.9724C25.4446 16.3089 25.0107 15.875 25.0107 15.3471V10.116C25.0107 9.58815 24.5767 9.16003 24.0489 9.16003H21.1107C20.577 9.16003 20.1489 9.58815 20.1489 10.116V20.2089C20.1489 20.7425 20.577 21.1707 21.1107 21.1707H31.2036V21.1648Z" fill="#898B8D"/>
<path fill-rule="evenodd" clip-rule="evenodd" d="M13.9618 16.303C13.4398 16.303 13.0117 16.7194 13 17.2414V20.2206C13.0117 20.7366 13.4398 21.1648 13.9618 21.1648H19.193C19.7208 21.1648 20.1548 21.5929 20.1548 22.1266V27.3577C20.1548 27.8856 20.5887 28.3195 21.1166 28.3195H24.0547C24.5825 28.3195 25.0165 27.8856 25.0165 27.3577V17.2648C25.0165 16.737 24.5825 16.303 24.0547 16.303H13.9618Z" fill="#0082C9"/>
<path fill-rule="evenodd" clip-rule="evenodd" d="M24.0547 16.303H20.1548V20.203C20.1548 20.7308 20.5829 21.1648 21.1166 21.1648H25.0165V17.2648C25.0165 16.737 24.5825 16.303 24.0547 16.303Z" fill="#003565"/>
<path d="M104.476 25.2759V25.2642C104.476 24.3258 105.232 23.54 106.188 23.54C107.144 23.54 107.9 24.32 107.9 25.2524V25.2642C107.9 26.2025 107.144 26.9883 106.188 26.9883C105.232 26.9883 104.476 26.2084 104.476 25.27V25.2759ZM107.707 25.2642V25.2524C107.707 24.4138 107.056 23.7276 106.188 23.7276C105.32 23.7276 104.669 24.4255 104.669 25.2642V25.2759C104.669 26.1145 105.32 26.8065 106.188 26.8065C107.056 26.8065 107.707 26.1087 107.707 25.27V25.2642ZM105.549 24.3669H106.317C106.669 24.3669 106.956 24.5545 106.956 24.9006C106.956 25.1879 106.769 25.3521 106.534 25.4225L107.015 26.0911H106.669L106.235 25.4577H105.819V26.0911H105.543V24.3669H105.549ZM106.288 25.2348C106.534 25.2348 106.675 25.1058 106.675 24.9181C106.675 24.7129 106.528 24.6132 106.288 24.6132H105.824V25.2348H106.288Z" fill="#898B8D"/>
</g>
<defs>
<clipPath id="clip0_271_2110">
<rect width="162" height="63" fill="white" transform="translate(0 0.160034)"/>
</clipPath>
</defs>
</svg>
